<svg width="79" height="79" viewBox="0 0 79 79" fill="none" xmlns="http://www.w3.org/2000/svg">
<path d="M12.193 58.3298C12.193 58.3298 12.0212 58.1547 12.193 58.3298C12.0212 58.1547 11.8495 57.9795 11.8495 57.8043C11.6778 57.454 11.506 57.2788 11.506 57.2788C11.506 56.7533 11.6777 56.2278 11.6777 55.7023C12.193 55.7023 13.0517 55.5272 13.3951 54.4762C13.5669 53.9507 13.5669 53.25 13.5669 52.5494C13.5669 52.199 13.5669 51.8487 13.3951 51.6735C13.3951 51.3232 13.3951 51.148 13.3951 50.9729C12.8799 51.3232 10.9908 52.7245 10.6473 53.6003C10.4756 54.1258 10.4756 54.4762 10.6473 54.8265C10.819 55.1768 11.1625 55.352 11.3343 55.5272C11.1625 55.7023 11.1625 56.0527 10.9908 56.403C10.9908 56.403 10.819 56.2278 10.6473 55.8775C10.4756 55.5272 10.3039 55.1768 10.1321 54.8265C9.96037 54.4762 9.78863 54.1259 9.61689 53.7755C9.61689 53.6004 9.44514 53.4252 9.44514 53.4252V53.25L8.92992 52.0239C8.92992 51.6735 9.2734 50.9729 9.44514 50.4474C9.96036 50.4474 10.8191 50.4474 11.3343 49.5716C11.506 49.2212 11.6777 48.5206 11.6777 47.8199C11.6777 47.4696 11.6777 47.1192 11.6777 46.7689C11.6777 46.4186 11.6777 46.2434 11.6777 46.0682C11.1625 46.2434 9.10166 47.2944 8.58645 48.1702C8.41471 48.3454 8.41472 48.5206 8.41472 48.6957C8.24299 49.3964 8.75818 49.9219 8.92992 50.097C8.75818 50.2722 8.58646 50.6225 8.41472 50.7977C8.41472 50.7977 8.41471 50.6225 8.24298 50.4474C8.24298 50.2722 8.07123 50.097 8.07123 49.7467C7.89949 49.2212 7.72775 48.6957 7.72775 48.6957C7.72775 48.6957 7.72777 48.5206 7.55603 48.3454C7.55603 48.1702 7.38428 47.9951 7.38428 47.9951L7.04081 46.7689C7.21255 46.4186 7.55602 45.7179 7.72775 45.3676C8.07123 45.5427 9.10166 45.5427 9.78861 44.6669C10.1321 44.3166 10.3038 43.6159 10.4756 42.9153C10.6473 42.2146 10.8191 41.6891 10.8191 41.3388C10.3038 41.5139 8.07124 42.2146 7.38428 42.9153C6.69733 43.7911 7.21254 44.6669 7.38428 45.0173C7.21254 45.1924 7.0408 45.3676 6.86906 45.7179C6.86906 45.7179 6.86908 45.5428 6.69734 45.1924C6.69734 44.8421 6.52559 44.4918 6.52559 43.9663C6.52559 43.6159 6.35384 43.0904 6.35384 42.7401C6.35384 42.3898 6.35384 42.2146 6.35384 42.2146C6.35384 42.2146 6.35384 41.8643 6.35384 41.514C6.35384 41.3388 6.35384 41.1636 6.35384 41.1636C6.35384 40.9884 6.35384 40.9884 6.35384 40.9884C6.52558 40.6381 7.04079 40.1126 7.21253 39.7623C7.55601 39.9375 8.58646 40.1126 9.27342 39.412C9.6169 39.0616 9.96037 38.5361 10.1321 37.8355C10.4756 37.1348 10.6473 36.6093 10.6473 36.259C9.96035 36.259 7.72776 36.6093 7.04081 37.31C6.86907 37.4851 6.69734 37.6603 6.69734 37.8355C6.35386 38.5361 6.69732 39.0616 6.86906 39.412C6.69732 39.5871 6.52559 39.7623 6.18212 39.9375C6.18212 39.9375 6.18212 39.7623 6.18212 39.5871C6.18212 39.412 6.18212 39.0616 6.18212 38.8865C6.18212 38.361 6.18212 37.8355 6.18212 37.8355V36.9596C6.18212 36.9596 6.18212 36.6093 6.18212 36.259C6.18212 35.9087 6.18212 35.5583 6.18212 35.5583C6.35385 35.208 6.86906 34.6825 7.21253 34.5073C7.55601 34.6825 8.41472 35.208 9.27342 34.5073C9.6169 34.157 10.1321 33.6315 10.4756 33.106C10.8191 32.5805 11.1625 32.055 11.1625 31.7047C10.4756 31.7047 8.24298 31.7047 7.38428 32.2302C6.86907 32.5805 6.69734 32.9308 6.69734 33.2812C6.69734 33.6315 6.69732 33.9818 6.86906 34.157C6.69732 34.3322 6.35385 34.5073 6.18212 34.6825C6.18212 34.6825 6.18212 34.5073 6.18212 34.157C6.18212 33.8067 6.35384 33.4563 6.35384 32.9308C6.35384 32.4053 6.52559 32.055 6.52559 31.7047C6.52559 31.3543 6.69734 31.1792 6.69734 31.1792C6.69734 31.1792 6.69734 31.1792 6.69734 31.004C6.69734 30.8289 6.69734 30.6537 6.69734 30.6537C6.69734 30.3034 6.86906 29.953 6.86906 29.953C7.21254 29.6027 7.72775 29.2524 8.07123 29.0772C8.4147 29.4275 9.10168 29.953 10.1321 29.4275C10.3039 29.2524 10.6473 29.0772 10.8191 28.902C10.9908 28.7269 11.3343 28.3765 11.506 28.2014C12.0212 27.6759 12.3647 27.1504 12.5364 26.9752C12.193 26.9752 11.506 26.8001 10.8191 26.6249C10.1321 26.6249 9.27341 26.6249 8.7582 26.8001C8.58646 26.9752 8.41471 26.9752 8.24298 27.1504C8.07124 27.3255 7.8995 27.6759 7.8995 28.0262C7.8995 28.3765 7.8995 28.5517 7.8995 28.7269C7.72776 28.902 7.38429 28.902 7.04081 29.0772C7.04081 29.0772 7.21254 28.5517 7.38428 28.0262C7.38428 27.851 7.55603 27.5007 7.55603 27.3255C7.55603 27.1504 7.72775 26.9752 7.72775 26.9752L8.07123 26.0994C8.07123 26.0994 8.07123 26.0994 8.07123 25.9242C8.07123 25.9242 8.07123 25.9242 8.07123 25.7491C8.07123 25.7491 8.07124 25.5739 8.24298 25.3987C8.41471 25.0484 8.41472 24.8732 8.41472 24.8732C8.7582 24.5229 9.44514 24.3477 9.78861 24.1726C10.1321 24.5229 10.8191 25.2236 11.8495 24.8732C12.7082 24.5229 14.0821 23.1216 14.5973 22.7713C14.0821 22.5961 11.8495 21.7203 10.8191 22.0706C10.3038 22.2458 9.96035 22.5961 9.78861 22.9464C9.61687 23.2967 9.61689 23.6471 9.61689 23.8222C9.44515 23.8222 9.10167 23.9974 8.7582 23.9974C8.7582 23.9974 8.92992 23.8222 8.92992 23.4719C9.10166 23.1216 9.2734 22.7713 9.44514 22.4209C9.61688 22.0706 9.78862 21.7203 9.96036 21.3699C10.1321 21.0196 10.1321 20.8444 10.1321 20.8444L10.8191 19.7934C11.1625 19.6183 11.8495 19.4431 12.3647 19.2679C12.5364 19.6183 13.2234 20.3189 14.2538 20.3189C14.769 20.3189 15.2843 19.9686 15.7995 19.6183C16.1429 19.4431 16.3147 19.2679 16.6582 19.0928C16.8299 18.9176 17.1734 18.7425 17.1734 18.7425C16.6582 18.3921 14.5973 17.3411 13.5669 17.3411C13.3951 17.3411 13.2234 17.3411 13.0517 17.5163C12.3647 17.8666 12.193 18.5673 12.193 18.7425C12.0212 18.7425 11.6778 18.7425 11.3343 18.7425C11.3343 18.7425 11.3343 18.5673 11.506 18.3921C11.6777 18.217 11.6778 18.0418 11.8495 17.8666C12.193 17.5163 12.3647 16.9908 12.3647 16.9908C12.3647 16.9908 12.5364 16.8156 12.5364 16.6405C12.7082 16.4653 12.7082 16.2901 12.7082 16.2901L13.0517 15.7646L13.5669 15.2391C13.9104 15.064 14.5973 15.064 15.1125 15.064C15.2843 15.4143 15.7995 16.2901 16.8299 16.2901C17.3451 16.2901 18.0321 16.115 18.5473 15.7646C19.2343 15.5895 19.7495 15.2391 19.9212 15.064C19.406 14.7136 17.6886 13.3123 16.6582 13.3123C16.1429 13.3123 15.7995 13.4875 15.456 13.8378C15.2843 14.1882 15.1125 14.3633 15.1125 14.7136C14.9408 14.7136 14.5973 14.7136 14.2538 14.7136C14.2538 14.7136 14.4256 14.5385 14.5973 14.3633C14.769 14.1882 15.1125 13.8378 15.456 13.4875C15.6277 13.3123 15.7995 13.1372 15.9712 12.962C16.143 12.7868 16.3147 12.6117 16.3147 12.6117C16.4864 12.4365 16.6582 12.2613 16.6582 12.2613C16.6582 12.2613 16.8299 12.0862 17.1734 11.7358C17.3451 11.5607 17.6886 11.3855 17.6886 11.3855C18.2038 11.3855 18.719 11.3855 19.2342 11.3855C19.2342 11.911 19.5777 12.7868 20.6082 12.962C20.7799 12.962 21.1234 12.962 21.4669 12.962C21.8103 12.962 22.1538 12.7868 22.3255 12.7868C22.669 12.7868 23.0125 12.6117 23.356 12.6117C23.6995 12.6117 23.8712 12.4365 24.0429 12.4365C23.6995 11.911 21.9821 10.3345 21.1234 10.1594C20.9516 10.1594 20.7799 10.1594 20.4364 10.1594C20.2647 10.1594 20.093 10.1593 19.9212 10.3345C19.7495 10.3345 19.7495 10.5097 19.5777 10.6848C19.406 10.86 19.2342 11.0352 19.2342 11.2103C19.0625 11.2103 18.719 11.0352 18.3755 11.0352C18.3755 11.0352 18.719 10.6848 19.2342 10.3345C19.5777 9.98418 20.0929 9.63385 20.0929 9.63385L20.7799 9.10836C20.7799 9.10836 20.7799 9.10835 20.9516 8.93319C20.9516 8.93319 21.1234 8.93319 21.1234 8.75802C21.4669 8.58286 21.6386 8.4077 21.6386 8.4077C21.9821 8.4077 22.669 8.58286 23.1842 8.58286C23.1842 9.10836 23.356 9.98418 24.3864 10.3345C24.9016 10.5097 25.5886 10.5097 26.2755 10.5097C26.619 10.5097 26.9625 10.5097 27.1342 10.3345C27.4777 10.3345 27.6494 10.3345 27.8212 10.3345C27.4777 9.80902 26.1038 7.8822 25.2451 7.53187C24.7299 7.35671 24.3864 7.35671 24.0429 7.53187C23.6995 7.70704 23.5277 8.05737 23.356 8.23254C23.1842 8.05737 22.8408 8.05736 22.4973 7.8822C22.4973 7.8822 22.669 7.70704 23.0125 7.53187C23.356 7.35671 23.6995 7.18153 24.0429 7.00637C24.2147 6.8312 26.1038 5.95538 27.4777 5.07955C27.8212 5.42988 28.5081 5.95539 29.3668 5.60505C30.2255 5.25472 31.5994 3.32789 31.9429 2.8024C31.4277 2.62723 29.0234 2.27691 28.1647 2.62724C26.9625 3.15273 27.1342 4.20372 27.1342 4.55405C26.4473 4.90438 25.7603 5.07955 25.4168 5.25472C25.0734 5.42988 23.356 5.95538 23.356 5.95538C23.356 5.60505 23.5277 5.25472 23.5277 5.07955C23.6994 5.07955 24.0429 5.07956 24.3864 4.90439C24.7299 4.72923 25.0734 4.3789 25.2451 3.8534C25.4168 3.32791 25.4168 2.45207 25.4168 1.75141C25.4168 1.05075 25.2451 0.174921 25.2451 -0.000244141C25.0734 0.174921 24.9016 0.350092 24.5582 0.525257C24.2147 0.700423 24.0429 1.05076 23.6995 1.22592C23.0125 1.75142 22.4973 2.45208 22.3255 2.97757C21.9821 4.02857 22.669 4.72923 23.0125 4.90439C23.0125 5.07956 22.8408 5.42989 22.669 5.60505C22.4973 5.95539 22.4973 6.13054 22.3255 6.30571C22.3255 6.30571 22.1538 6.30572 21.9821 6.48088C21.8103 6.65605 21.4669 6.8312 21.2951 7.00637C20.7799 7.3567 20.2647 7.70703 20.2647 7.70703C20.2647 7.70703 20.2647 7.70703 20.0929 7.8822C19.9212 7.8822 19.9212 8.05737 19.7495 8.23254C19.406 8.4077 19.2342 8.58286 19.2342 8.58286L18.8908 8.75802C18.8908 8.58286 18.8908 8.4077 18.8908 8.23254C18.8908 8.05737 18.8908 8.05736 18.8908 7.8822C19.0625 7.8822 19.406 7.70704 19.7495 7.53187C20.0929 7.35671 20.4364 7.00638 20.4364 6.48088C20.6082 5.42989 19.9212 3.15273 19.7495 2.62724C19.5777 2.8024 19.406 2.97757 19.2342 3.15274C19.0625 3.50307 18.719 3.67823 18.3755 4.02856C17.8603 4.72923 17.3451 5.42988 17.3451 5.95538V6.13054C17.3451 7.18153 18.0321 7.53187 18.3755 7.70703C18.2038 8.23253 18.2038 8.93319 18.0321 9.28352C18.0321 9.28352 17.8603 9.45868 17.6886 9.63385C17.5169 9.80902 17.1734 10.1593 16.8299 10.3345C16.4864 10.5097 16.3147 10.86 15.9712 11.0352C15.7995 11.2103 15.6277 11.3855 15.6277 11.3855C15.6277 11.3855 15.2843 11.7358 14.9408 11.911C14.769 12.0862 14.5973 12.2613 14.5973 12.2613C14.4256 12.4365 14.4256 12.4365 14.4256 12.4365C14.4256 12.0862 14.2538 11.7358 14.2538 11.5607C14.4256 11.5607 14.769 11.3855 15.1125 11.0352C15.456 10.86 15.6277 10.3345 15.6277 9.80901C15.6277 8.75802 14.5973 6.65604 14.4256 6.13054C14.2538 6.48087 13.7386 7.00637 13.3951 7.8822C13.0517 8.58286 12.7082 9.45869 12.7082 9.98419C12.7082 11.2103 13.5669 11.5607 14.0821 11.5607C14.0821 12.0862 14.0821 12.7868 13.9104 13.1372C13.9104 13.1372 13.7386 13.3123 13.5669 13.4875C13.3951 13.6627 13.2234 13.8378 13.0517 14.1881C12.8799 14.3633 12.7082 14.7136 12.5364 14.8888C12.3647 15.064 12.3647 15.2391 12.3647 15.2391C12.3647 15.2391 12.193 15.5895 11.8495 15.7646C11.6778 15.9398 11.6777 16.115 11.506 16.115C11.506 16.2901 11.3343 16.2901 11.3343 16.2901L11.1625 16.6405C11.1625 16.4653 10.9908 16.2901 10.9908 16.115C10.9908 15.9398 10.9908 15.9398 10.8191 15.7646C10.9908 15.5895 11.3343 15.4143 11.506 15.2391C11.6777 14.8888 11.8495 14.5385 11.8495 14.013C11.6778 12.962 10.4756 11.0352 10.1321 10.5097C9.96037 10.86 9.6169 11.5607 9.27342 12.2613C8.92994 13.1372 8.75818 13.8378 8.92992 14.5385V14.7136C9.10166 15.7646 9.96037 15.9398 10.4756 15.9398C10.4756 16.4653 10.6473 17.166 10.6473 17.5163C10.6473 17.5163 10.3038 18.217 9.78861 18.9176C9.44514 19.6183 8.92992 20.3189 8.92992 20.3189C8.92992 20.3189 8.92994 20.4941 8.7582 20.4941C8.7582 20.6693 8.58646 20.8444 8.41472 21.0196C8.24299 21.3699 8.07123 21.7203 8.07123 21.7203C7.89949 21.3699 7.72775 21.1948 7.72775 20.8444C7.89949 20.6693 8.24299 20.4941 8.41472 20.1438C8.58646 19.7934 8.75819 19.4431 8.58645 18.7425C8.24297 17.6915 6.69733 16.115 6.18212 15.5895C6.18212 15.7646 6.01038 16.115 5.83864 16.2901C5.66691 16.6405 5.66688 16.9908 5.49515 17.5163C5.32341 18.3921 5.32341 19.2679 5.49515 19.7934C5.83862 20.8444 6.86906 21.0196 7.21253 21.0196C7.38427 21.5451 7.55603 22.2458 7.55603 22.5961C7.55603 22.5961 7.55602 22.7712 7.38428 22.9464C7.21254 23.1216 7.21255 23.4719 7.04081 23.8222C6.86907 24.3477 6.52559 25.0484 6.52559 25.0484C6.52559 25.0484 6.52559 25.0484 6.52559 25.2236C6.52559 25.3987 6.35384 25.5739 6.35384 25.7491C6.1821 26.0994 6.18212 26.4497 6.18212 26.4497L6.01037 26.8001C5.83863 26.6249 5.83863 26.4497 5.66689 26.4497C5.66689 26.2746 5.49515 26.2746 5.49515 26.0994C5.66688 25.9242 5.83863 25.7491 6.01037 25.2236C6.18211 24.8732 6.18211 24.3477 6.01037 23.8222C5.49515 22.9464 3.77778 21.3699 3.26256 21.0196C3.09082 21.7203 2.74735 24.3477 3.26256 25.2236C3.26256 25.2236 3.26255 25.3987 3.43429 25.3987C3.9495 26.2746 4.80821 26.2746 5.32342 26.0994C5.49516 26.4497 5.83864 27.1504 5.83864 27.6759C5.83864 27.6759 5.83863 27.851 5.66689 28.2014C5.66689 28.5517 5.49515 28.902 5.49515 29.2524C5.32341 29.6027 5.32342 29.953 5.32342 30.3034C5.32342 30.6537 5.15167 30.8289 5.15167 30.8289C5.15167 30.8289 5.15169 31.1792 4.97995 31.7047C4.80821 32.055 4.8082 32.5805 4.8082 32.5805C4.63646 32.4053 4.293 32.055 4.12126 31.8799C4.293 31.7047 4.46473 31.3544 4.46473 31.004C4.46473 30.6537 4.46473 30.1282 4.12126 29.6027C3.60604 28.7269 1.54517 27.6759 1.02995 27.3255C1.02995 27.6759 1.02995 28.5517 1.02995 29.4275C1.20169 30.3034 1.37342 31.1792 1.7169 31.5295C2.40385 32.4053 3.26254 32.2302 3.77776 32.055C4.12124 32.4053 4.46471 33.106 4.63645 33.4563C4.63645 33.4563 4.63645 33.6315 4.63645 33.8067C4.63645 33.9818 4.63645 34.3322 4.63645 34.6825C4.63645 35.0328 4.63645 35.3832 4.63645 35.5583C4.63645 35.7335 4.63645 35.9087 4.63645 35.9087V37.31V37.6603C4.46471 37.4851 4.29298 37.4851 4.29298 37.31C4.12124 37.31 4.12125 37.1348 3.94951 37.1348C4.12125 36.9597 4.12126 36.6093 4.12126 36.259C4.12126 35.9087 3.94951 35.3832 3.60604 35.0328C2.91908 34.3322 0.686477 33.4563 0.171261 33.2812C0.171261 33.6315 0.342994 34.5073 0.514733 35.208C0.686472 36.0838 1.02995 36.7845 1.37343 37.31C1.37343 37.31 1.37344 37.31 1.54518 37.4851C2.40387 38.1858 3.09081 37.8355 3.43429 37.6603C3.77776 38.0106 4.29299 38.5361 4.46473 38.8865C4.46473 38.8865 4.46473 39.0616 4.46473 39.412C4.46473 39.7623 4.46473 40.1126 4.46473 40.4629C4.46473 40.8133 4.46471 41.1636 4.63645 41.514C4.63645 41.8643 4.63645 42.0394 4.63645 42.0394C4.63645 42.0394 4.63646 42.5649 4.8082 42.9153C4.8082 43.2656 4.97995 43.7911 4.97995 43.7911C4.63647 43.6159 4.46473 43.4408 4.12126 43.4408C4.293 43.0904 4.46473 42.0394 3.60604 41.3388C2.74734 40.6381 0.514728 40.2878 -0.000488281 40.2878C0.17125 40.6381 0.343005 41.3388 0.686482 42.2146C1.02996 42.9153 1.54517 43.7911 1.88865 44.1414C2.74734 44.8421 3.60603 44.3166 3.94951 43.9663C4.29298 44.3166 4.8082 44.6669 5.15167 45.0173C5.15167 45.0173 5.32341 45.7179 5.49515 46.2434C5.49515 46.5937 5.66689 46.9441 5.66689 47.1192C5.66689 47.2944 5.83864 47.4696 5.83864 47.4696C5.83864 47.4696 6.01037 47.8199 6.01037 48.1702C6.01037 48.3454 6.18212 48.5206 6.18212 48.6957C6.18212 48.8709 6.18212 48.8709 6.18212 48.8709L6.35384 49.2212C6.1821 49.2212 6.01038 49.0461 5.83864 49.0461C5.66691 49.0461 5.66688 48.8709 5.49515 48.8709C5.49515 48.6957 5.49515 48.3454 5.49515 47.9951C5.32341 47.6447 5.15167 47.2944 4.63645 46.9441C3.77776 46.4186 1.37342 46.4186 0.858205 46.4186C1.02994 46.7689 1.37343 47.4696 1.88865 48.1702C2.40386 48.8709 2.91907 49.5716 3.43429 49.7467H3.60604C4.46473 50.097 5.15167 49.5715 5.49515 49.2212C5.83862 49.3964 6.52558 49.7467 6.86906 50.097C6.86906 50.097 7.21254 50.7977 7.38428 51.4984C7.55602 51.8487 7.72776 52.199 7.8995 52.5494C8.07124 52.8997 8.07123 53.0749 8.07123 53.0749C8.07123 53.0749 8.07124 53.25 8.24298 53.25C8.24298 53.4252 8.41471 53.6004 8.58645 53.7755C8.75819 54.1259 8.92992 54.6514 8.92992 54.6514C8.58644 54.6514 8.24297 54.4762 8.07123 54.4762C8.07123 54.301 8.07124 53.9507 7.8995 53.6003C7.72776 53.25 7.38428 52.8997 6.86906 52.7245C6.35384 52.5494 5.49516 52.5494 4.8082 52.5494C4.12125 52.5494 3.26255 52.7245 3.09081 52.7245C3.26255 52.8997 3.26256 53.0749 3.60604 53.4252C3.77777 53.7755 4.12124 53.9507 4.29298 54.301C4.8082 55.0017 5.49515 55.5272 6.01037 55.7023C7.0408 56.0527 7.72776 55.352 7.8995 55.0017C8.07124 55.0017 8.41471 55.1768 8.58645 55.352C8.92993 55.5272 9.10168 55.5272 9.27342 55.7023C9.27342 55.7023 9.2734 55.8775 9.44514 56.0527C9.61688 56.2278 9.78862 56.5782 9.96036 56.7533C10.3038 57.2788 10.6473 57.8043 10.6473 57.8043C10.6473 57.8043 10.6473 57.8043 10.8191 57.9795C10.8191 58.1546 10.9908 58.1547 11.1625 58.3298C11.3343 58.6802 11.506 58.8553 11.506 58.8553L12.193 58.3298V58.3298Z" fill="#F5EFDB"/>
<path d="M66.291 59.9069C65.9476 60.2573 65.6041 60.7828 65.6041 60.7828C65.6041 60.4324 65.4324 60.0821 65.4324 59.9069C65.6041 59.9069 65.7758 59.7318 65.9476 59.5566C66.1193 59.3814 66.1193 59.3814 66.291 59.2063C66.291 59.0311 66.4628 58.8559 66.4628 58.6808C66.4628 58.5056 66.4628 58.3304 66.4628 57.9801C66.291 56.9291 64.5737 55.3526 64.2302 55.0023C64.2302 55.1775 64.0584 55.3526 64.0584 55.703C64.0584 56.0533 63.8867 56.4036 63.8867 56.754C63.8867 57.1043 63.715 57.4546 63.715 57.6298C63.715 57.9801 63.715 58.1553 63.715 58.5056C63.8867 59.5566 64.7454 59.9069 65.2606 59.9069C65.2606 60.4324 65.2606 61.1331 65.2606 61.4834C65.2606 61.4834 65.0889 61.6586 64.9171 62.0089C64.7454 62.1841 64.4019 62.5344 64.4019 62.5344C64.4019 62.5344 64.2302 62.7096 64.0584 62.8848C63.8867 63.0599 63.8867 63.0599 63.715 63.2351C63.5432 63.4102 63.3715 63.5854 63.1997 63.7606C62.8563 64.1109 62.5128 64.4612 62.341 64.6364C62.1693 64.8116 61.9976 64.9867 61.9976 64.9867C61.9976 64.6364 61.9976 64.2861 61.9976 64.1109C62.1693 64.1109 62.5128 63.9357 62.8563 63.7606C63.1997 63.5854 63.3715 63.0599 63.3715 62.5344C63.3715 61.4834 61.9976 59.5566 61.6541 59.2063C61.4824 59.3814 61.3106 60.0821 60.9671 60.6076C60.6236 61.3083 60.4519 62.0089 60.4519 62.3593C60.4519 63.4102 61.3106 63.9357 61.6541 64.1109C61.6541 64.6364 61.4823 65.3371 61.4823 65.6874L60.4519 66.5632C60.4519 66.5632 60.2802 66.7384 60.1084 66.7384C59.9367 66.9136 59.765 66.9136 59.765 66.9136C59.765 66.9136 59.4215 67.2639 58.9063 67.439C58.7345 67.6142 58.391 67.7894 58.391 67.7894C58.2193 67.9646 58.0476 67.9646 58.0476 67.9646C58.0476 67.6142 58.0476 67.2639 58.0476 67.0887C58.391 67.0887 59.078 66.9136 59.2497 66.2129C59.2497 66.0377 59.4215 65.8626 59.4215 65.6874C59.5932 64.6364 58.3911 62.5344 58.2193 62.0089C58.2193 62.1841 58.0476 62.3593 57.8758 62.5344C57.7041 62.7096 57.5324 63.0599 57.3606 63.4103C57.0171 63.9358 56.6737 64.6364 56.6737 64.9867C56.5019 66.0377 57.1889 66.5632 57.7041 66.9136C57.5324 67.2639 57.3606 67.9645 57.1889 68.49L56.1584 69.1907C56.1584 69.1907 55.9867 69.3659 55.6432 69.3659C55.2998 69.541 54.9563 69.7162 54.6128 69.8914C54.2693 70.0665 53.7541 70.2417 53.5823 70.4169C53.2389 70.592 53.0672 70.592 53.0672 70.592C53.0672 70.2417 53.2389 69.8914 53.2389 69.7162C53.4106 69.7162 53.7541 69.7162 54.0976 69.541C54.441 69.3659 54.7845 69.0155 54.9563 68.49C55.2997 67.439 54.4411 65.3371 54.2693 64.6364C54.0976 64.8116 54.0976 64.9867 53.9258 65.1619C53.7541 65.3371 53.5824 65.5122 53.2389 65.8626C52.8954 66.3881 52.3802 66.9136 52.2085 67.439C51.865 68.49 52.5519 69.1907 52.8954 69.541C52.7237 69.8914 52.3802 70.592 52.2085 70.9424C52.2085 70.9424 51.865 71.1175 51.6932 71.1175C51.5215 71.1175 51.3498 71.2927 51.3498 71.2927C51.178 71.2927 51.178 71.2927 51.178 71.2927L50.3193 71.643C50.3193 71.643 50.1476 71.643 49.9758 71.8182C49.8041 71.8182 49.4606 71.9933 49.2889 71.9933C48.7737 72.1685 48.2585 72.3437 48.2585 72.3437C48.4302 71.9934 48.4302 71.8182 48.6019 71.4679C48.7737 71.4679 48.9454 71.4679 49.2889 71.4679C49.6323 71.4679 49.8041 71.2927 50.1476 71.1175C50.3193 70.9424 50.3193 70.7672 50.4911 70.592C50.6628 70.0665 50.6628 69.3659 50.6628 68.49C50.6628 67.7894 50.4911 66.9136 50.3193 66.7384C50.1476 66.9136 49.6324 67.2639 49.1171 67.7894C48.9454 67.9646 48.6019 68.3149 48.4302 68.49C48.2584 68.6652 48.0867 69.0155 47.915 69.1907C47.3998 70.2417 47.915 70.9424 48.2585 71.2927C48.0867 71.643 47.5715 72.1685 47.3998 72.5188C47.3998 72.5188 47.0563 72.5189 46.7128 72.694H46.5411C44.3085 72.8692 40.7019 73.2195 40.7019 73.2195C40.7019 73.2195 36.5802 73.0443 34.5193 72.8692C34.5193 72.8692 34.5193 72.8692 34.3476 72.8692C34.1758 72.8692 34.0041 72.8692 34.0041 72.8692C33.6606 72.8692 33.3172 72.694 33.3172 72.694C32.9737 72.3437 32.6302 71.8182 32.4585 71.4679C32.802 71.1175 33.3172 70.4169 32.8019 69.3659C32.6302 69.1907 32.6302 68.8404 32.2867 68.6652C32.115 68.49 31.7715 68.1397 31.5998 67.9646C31.0846 67.4391 30.5693 67.0887 30.3976 66.9136C30.3976 67.2639 30.2259 67.9646 30.0541 68.6652C30.0541 69.3659 30.0541 70.2417 30.2259 70.7672C30.3976 70.9424 30.3976 71.1175 30.5693 71.2927C30.7411 71.4679 31.0846 71.643 31.428 71.643C31.7715 71.643 31.9432 71.643 32.115 71.643C32.2867 71.8182 32.2867 72.1685 32.4585 72.5188C32.4585 72.5188 31.9432 72.3437 31.428 72.1685C31.2563 72.1685 30.9128 71.9933 30.7411 71.9933C30.5693 71.9933 30.3976 71.8182 30.3976 71.8182L29.5389 71.4679C29.5389 71.4679 29.5389 71.4679 29.3672 71.4679C29.3672 71.4679 29.3672 71.4679 29.1954 71.4679C29.0237 71.4679 29.0237 71.2927 28.8519 71.2927C28.5085 71.1175 28.3367 71.1175 28.3367 71.1175C28.165 70.7672 27.8215 70.0665 27.6498 69.7162C27.9933 69.3659 28.6802 68.6652 28.3367 67.6142C28.165 67.0887 27.8215 66.5632 27.3063 66.0377C27.1346 65.8626 26.9628 65.5122 26.6193 65.3371C26.4476 65.1619 26.2759 64.9867 26.2759 64.8116C26.1041 65.3371 25.2454 67.6142 25.5889 68.6652C25.7607 69.1907 26.1041 69.541 26.4476 69.7162C26.7911 69.8914 27.1346 69.8914 27.3063 69.8914C27.3063 70.0665 27.478 70.4169 27.478 70.7672C27.478 70.7672 27.3063 70.592 26.9628 70.592C26.6193 70.4169 26.2759 70.2417 25.9324 70.0665C25.5889 69.8914 25.2454 69.7162 24.9019 69.541C24.5585 69.3659 24.3867 69.3659 24.3867 69.3659L23.3563 68.6652C23.1846 68.3149 23.0128 67.6142 22.8411 67.0887C23.1846 66.9136 23.8715 66.2129 23.8715 65.1619C23.8715 64.6364 23.528 64.1109 23.1846 63.5854C23.0128 63.2351 22.8411 63.0599 22.6693 62.7096C22.4976 62.5344 22.3259 62.1841 22.3259 62.1841C21.9824 62.7096 20.9519 64.8116 20.9519 65.8626C20.9519 66.0377 20.952 66.2129 21.1237 66.3881C21.4672 67.0887 21.9824 67.2639 22.3259 67.2639C22.3259 67.4391 22.3259 67.7894 22.3259 68.1397C22.3259 68.1397 22.1541 68.1397 21.9824 67.9646C21.8106 67.7894 21.6389 67.7894 21.4672 67.6142C21.1237 67.2639 20.6085 66.9136 20.6085 66.9136C20.6085 66.9136 20.4367 66.7384 20.265 66.7384C20.0933 66.5632 19.9215 66.5632 19.9215 66.5632L18.5476 65.5122C18.3759 65.1619 18.3759 64.4612 18.3759 63.9357C18.7193 63.7606 19.5781 63.2351 19.5781 62.1841C19.5781 61.6586 19.4063 60.9579 19.0628 60.4324C18.8911 59.7318 18.5476 59.2063 18.3759 59.0311C18.0324 59.5566 16.6585 61.3083 16.6585 62.3593C16.6585 62.8847 16.8302 63.2351 17.1737 63.5854C17.5172 63.7606 17.6889 63.9357 18.0324 63.9357C18.0324 64.1109 18.0324 64.4612 18.0324 64.8116C18.0324 64.8116 17.8607 64.6364 17.6889 64.4612C17.5172 64.2861 17.1737 63.9357 16.8302 63.5854C16.6585 63.4103 16.4867 63.2351 16.315 63.0599C16.1433 62.8847 15.9715 62.7096 15.9715 62.7096C15.7998 62.5344 15.628 62.3593 15.628 62.3593C15.628 62.3593 15.4563 62.1841 15.1128 61.8338C14.9411 61.6586 14.7694 61.3083 14.7694 61.3083C14.7694 60.7828 14.7694 60.2573 14.7694 59.7318C15.2846 59.7318 16.1433 59.3814 16.315 58.3305C16.315 58.1553 16.315 57.805 16.315 57.4546C16.315 57.1043 16.1433 56.754 16.1433 56.5788C16.1433 56.2285 15.9715 55.8781 15.9715 55.5278C15.9715 55.1775 15.7998 55.0023 15.7998 54.8271C15.2846 55.1775 13.7389 56.9291 13.5672 57.805C13.5672 57.9801 13.5672 58.1553 13.5672 58.5056C13.5672 58.6808 13.5672 58.856 13.7389 59.0311C13.7389 59.2063 13.9106 59.2063 14.0824 59.3814C14.2541 59.5566 14.4259 59.7318 14.5976 59.7318C14.5976 59.9069 14.4259 60.2573 14.4259 60.6076C14.4259 60.6076 14.0824 60.2573 13.7389 59.7318C13.3954 59.3814 13.052 58.8559 13.052 58.8559L12.365 59.3814L12.5367 59.7318C12.365 59.7318 12.1933 59.7318 12.0215 59.7318C11.8498 59.7318 11.8498 59.7318 11.678 59.7318C11.678 59.5566 11.5063 59.2063 11.3346 58.8559C11.1628 58.5056 10.8193 58.1553 10.3041 58.1553C9.2737 57.9801 7.0411 58.6808 6.52588 58.8559C6.69762 59.0311 6.86936 59.2063 7.0411 59.3814C7.21284 59.5566 7.55632 59.9069 7.8998 60.2573C8.58675 60.7828 9.27369 61.3083 9.78891 61.3083H9.96066C10.9911 61.3083 11.3346 60.6076 11.5063 60.2573C12.0215 60.4324 12.7085 60.4324 13.052 60.6076C13.052 60.6076 13.2237 60.7828 13.3954 60.9579C13.5672 61.1331 13.7389 61.4834 14.0824 61.8338C14.2541 62.1841 14.5976 62.3593 14.7694 62.7096C14.9411 62.8848 15.1128 63.0599 15.1128 63.0599C15.1128 63.0599 15.4563 63.4102 15.628 63.7606C15.7998 63.9357 15.9715 64.1109 15.9715 64.1109C16.1433 64.2861 16.1433 64.2861 16.1433 64.2861C15.7998 64.2861 15.4563 64.4612 15.2846 64.4612C15.2846 64.2861 15.1128 63.9357 14.7694 63.5854C14.5976 63.2351 14.0824 63.0599 13.5672 63.0599C12.5368 63.0599 10.4759 64.1109 9.96066 64.2861C10.3041 64.4612 10.8194 64.9867 11.678 65.3371C12.365 65.6874 13.2237 66.0377 13.7389 66.0377C14.9411 66.0377 15.2846 65.1619 15.2846 64.6364C15.7998 64.6364 16.4867 64.6364 16.8302 64.8116C16.8302 64.8116 17.002 64.9867 17.1737 65.1619C17.3454 65.3371 17.5172 65.5122 17.8607 65.6874C18.0324 65.8626 18.3759 66.0377 18.5476 66.2129C18.7193 66.3881 18.8911 66.3881 18.8911 66.3881C18.8911 66.3881 19.2346 66.5632 19.4063 66.9136C19.578 67.0887 19.7498 67.0887 19.7498 67.2639C19.9215 67.2639 19.9215 67.439 19.9215 67.439L20.0932 67.6142C19.9215 67.6142 19.7498 67.7894 19.5781 67.7894C19.4063 67.7894 19.4063 67.7894 19.2346 67.9646C19.0628 67.7894 18.8911 67.4391 18.7194 67.2639C18.3759 67.0887 18.0324 66.9136 17.5172 66.9136C16.4867 67.0887 14.5976 68.3149 14.0824 68.6652C14.4259 68.8404 15.1128 69.1907 15.7998 69.541C16.6585 69.8914 17.3454 70.0665 18.0324 70.0665H18.2041C19.2346 69.8914 19.4063 69.0155 19.4063 68.49C19.9215 68.49 20.6085 68.3149 20.9519 68.3149C20.9519 68.3149 21.6389 68.6652 22.3259 69.1907C23.0128 69.541 23.6998 70.0665 23.6998 70.0665C23.6998 70.0665 23.8715 70.0665 23.8715 70.2417C24.0433 70.2417 24.215 70.4169 24.3867 70.592C24.7302 70.7672 25.2454 70.9424 25.2454 70.9424C24.9019 71.1175 24.7302 71.2927 24.3867 71.2927C24.215 71.1175 24.0433 70.7672 23.6998 70.592C23.3563 70.4169 23.0128 70.2417 22.3259 70.4169C21.2954 70.7672 19.7498 72.3437 19.2346 72.8692C19.4063 72.8692 19.7498 73.0443 19.9215 73.2195C20.265 73.3947 20.6085 73.3947 21.1237 73.5699C21.9824 73.745 22.8411 73.745 23.3563 73.5699C24.3867 73.2195 24.5585 72.1685 24.5585 71.8182C25.0737 71.643 25.7606 71.4679 26.1041 71.4679C26.1041 71.4679 26.2759 71.4679 26.4476 71.643C26.6193 71.8182 26.9628 71.8182 27.3063 71.9933C27.8215 72.1685 28.5085 72.5188 28.5085 72.5188C28.5085 72.5188 28.5085 72.5188 28.6802 72.5188C28.8519 72.5188 29.0237 72.694 29.1954 72.694C29.5389 72.8692 29.8824 72.8692 29.8824 72.8692L30.2259 73.0443C30.0541 73.2195 29.8824 73.2195 29.8824 73.3947C29.7107 73.3947 29.7106 73.5699 29.5389 73.5699C29.3672 73.3947 29.1954 73.2195 28.6802 73.0443C28.3367 72.8692 27.8215 72.8692 27.3063 73.0443C26.4476 73.5698 24.9019 75.3215 24.5585 75.847C25.2454 76.0221 27.8215 76.3725 28.6802 75.847C28.6802 75.847 28.8519 75.847 28.8519 75.6718C29.7106 75.1463 29.5389 74.2705 29.5389 73.745C29.8824 73.5698 30.5693 73.2195 31.0846 73.2195C31.0846 73.2195 31.2563 73.2195 31.5998 73.3947C31.9433 73.5698 32.2867 73.5698 32.6302 73.745C32.9737 73.9202 33.3172 73.9202 33.6606 73.9202C34.0041 73.9202 34.1759 73.9202 34.1759 73.9202C35.2063 74.0953 36.7519 74.2705 38.1258 74.4457C38.1258 74.4457 38.2976 74.4457 38.4693 74.4457C33.8324 76.0222 32.6302 79 32.6302 79H34.6911C35.2063 77.2483 38.1258 75.847 40.3585 75.1463C42.4193 76.0222 45.3389 77.4235 46.0258 79H48.0867C48.0867 79 46.8845 76.0222 42.2476 74.4457C42.2476 74.4457 42.2476 74.4457 42.4193 74.4457C43.7932 74.2705 46.1976 74.0953 47.7432 73.745C47.915 73.745 48.0867 73.745 48.2585 73.5699C48.6019 73.3947 48.9454 73.3947 49.2889 73.2195C49.6323 73.2195 49.8041 73.0443 49.8041 73.0443C50.1476 73.2195 50.8345 73.3947 51.3498 73.745C51.3498 74.0953 51.178 75.1463 52.0367 75.6718H52.2085C53.2389 76.1973 55.6432 75.847 56.3302 75.6718C55.9867 75.1463 54.6128 73.2195 53.5823 72.8692C53.0671 72.694 52.5519 72.694 52.2085 72.8692C51.865 73.0443 51.5215 73.2195 51.3498 73.3947C51.178 73.3947 51.178 73.2195 51.0063 73.2195C50.8345 73.0443 50.6628 73.0443 50.6628 72.8692L51.0063 72.694C51.0063 72.694 51.3498 72.5188 51.6932 72.5188C51.865 72.5188 52.0367 72.3437 52.2085 72.3437C52.3802 72.3437 52.3802 72.3437 52.3802 72.3437C52.3802 72.3437 52.8954 72.1685 53.5823 71.8182C53.9258 71.643 54.0976 71.643 54.441 71.4679C54.6128 71.2927 54.7845 71.2927 54.7845 71.2927C55.2998 71.2927 55.9867 71.643 56.3302 71.643C56.3302 72.1685 56.3302 73.0443 57.5323 73.3947C58.0476 73.5698 58.9063 73.5698 59.765 73.3947C60.1084 73.3947 60.6236 73.2195 60.9671 73.0443C61.3106 72.8692 61.6541 72.8692 61.6541 72.694C61.1389 72.1685 59.5932 70.592 58.5628 70.2417C58.0476 70.0665 57.5324 70.2417 57.1889 70.4169C56.8454 70.592 56.6737 70.9424 56.5019 71.1175C56.3302 70.9424 55.9867 70.9424 55.6432 70.7672C55.6432 70.7672 55.9867 70.592 56.3302 70.4169C56.5019 70.2417 56.6737 70.2417 56.8454 70.0665C57.0171 70.0665 57.0171 69.8914 57.0171 69.8914C57.0171 69.8914 57.7041 69.541 58.391 69.0155C59.078 68.6652 59.765 68.1397 59.765 68.1397C60.2802 68.1397 60.9671 68.1397 61.3106 68.3149C61.3106 68.6652 61.4824 69.541 62.5128 69.8914H62.6845C63.1997 70.0665 64.0584 69.7162 64.9171 69.541C65.7758 69.1907 66.4628 68.8404 66.6345 68.6652C66.1193 68.3149 64.2302 66.9136 63.1997 66.9136C62.6845 66.9136 62.1693 67.0887 61.9976 67.2639C61.6541 67.4391 61.4823 67.7894 61.4823 67.9646C61.3106 67.9646 61.3106 67.9646 61.1389 67.7894C60.9671 67.7894 60.7954 67.6142 60.6237 67.6142L60.9671 67.439C60.9671 67.439 60.9671 67.4391 61.1389 67.2639C61.3106 67.2639 61.3106 67.0887 61.4823 66.9136C61.8258 66.7384 61.9976 66.3881 61.9976 66.3881C61.9976 66.3881 62.1693 66.2129 62.341 66.2129C62.5128 66.0377 62.8563 65.8626 63.028 65.6874C63.1997 65.5122 63.5432 65.3371 63.715 65.1619C63.8867 64.9867 64.0584 64.8116 64.0584 64.8116C64.4019 64.6364 65.2606 64.6364 65.6041 64.6364C65.7758 64.9867 66.1193 66.0377 67.1497 66.0377C67.665 66.0377 68.5236 65.6874 69.2106 65.3371C69.8976 64.9867 70.5845 64.4612 70.928 64.2861C70.4128 63.9358 68.3519 62.8847 67.3215 63.0599C66.8062 63.0599 66.291 63.2351 66.1193 63.5854C65.7758 63.9357 65.7758 64.2861 65.6041 64.4612C65.4323 64.4612 65.0889 64.4612 64.7454 64.2861C64.7454 64.2861 64.7454 64.2861 64.9171 64.1109C65.0889 63.9357 65.2606 63.7606 65.2606 63.7606C65.6041 63.4102 65.9476 63.0599 65.9476 63.0599C65.9476 63.0599 66.1193 62.8848 66.291 62.7096C66.4628 62.5344 66.8063 62.1841 66.978 61.8338C67.1497 61.4834 67.4932 61.3083 67.665 60.9579C67.8367 60.7828 68.0084 60.6076 68.0084 60.6076C68.3519 60.4324 69.0389 60.2573 69.5541 60.2573C69.7258 60.6076 70.241 61.4834 71.0997 61.3083H71.2715C71.7867 61.1331 72.4736 60.7828 73.1606 60.2573C73.5041 59.9069 73.8476 59.7318 74.0193 59.5566C74.191 59.3814 74.5345 59.0311 74.5345 59.0311C74.0193 58.856 71.7867 58.1553 70.7562 58.3305C70.241 58.5056 69.8976 58.6808 69.7258 59.0311C69.5541 59.3815 69.3824 59.7318 69.3824 59.9069C69.2106 59.9069 69.2106 59.9069 69.0389 59.9069C68.8671 59.9069 68.6954 59.9069 68.5237 59.9069L68.6954 59.5566L68.0084 59.0311C66.978 59.0311 66.6345 59.5566 66.291 59.9069Z" fill="#F5EFDB"/>
<path d="M73.5039 46.9442C73.6756 46.2436 73.8473 45.7181 73.8473 45.7181C74.1908 45.3677 74.706 45.0174 75.0495 44.6671C75.393 45.0174 76.2517 45.5429 77.1104 44.8422C77.6256 44.4919 77.9691 43.7912 78.3125 42.9154C78.656 42.2148 78.8278 41.3389 78.9995 40.9886C78.3125 41.1638 76.0799 41.5141 75.393 42.0396C74.5343 42.7403 74.706 43.7913 74.8778 44.1416C74.706 44.3167 74.3626 44.4919 74.0191 44.4919C74.0191 44.4919 74.0191 44.1416 74.1908 43.6161C74.1908 43.0906 74.3625 42.7403 74.3625 42.7403C74.3625 42.7403 74.3625 42.5651 74.3625 42.2148C74.3625 41.8644 74.3626 41.5141 74.5343 41.1638C74.5343 40.8134 74.5343 40.4631 74.5343 40.1128C74.5343 39.7624 74.5343 39.5873 74.5343 39.5873C74.706 39.2369 75.2212 38.7115 75.5647 38.3611C75.9082 38.5363 76.7669 38.8866 77.4539 38.186C77.4539 38.186 77.6256 38.186 77.6256 38.0108C77.9691 37.6605 78.3125 36.7846 78.4843 35.9088C78.656 35.033 78.8278 34.3323 78.8278 33.982C78.3125 34.1571 76.0799 34.8578 75.393 35.7336C75.0495 36.084 74.8778 36.6095 74.8778 36.9598C74.8778 37.3101 75.0495 37.6605 75.0495 37.8356C75.0495 37.8356 74.8778 38.0108 74.706 38.0108C74.5343 38.186 74.3625 38.186 74.3625 38.3611V38.0108V36.6095C74.3625 36.6095 74.3625 36.4343 74.3625 36.2591C74.3625 36.084 74.3625 35.7336 74.3625 35.3833C74.3625 35.033 74.3625 34.6827 74.3625 34.5075C74.3625 34.3323 74.3625 34.1571 74.3625 34.1571C74.5343 33.8068 74.8778 33.1062 75.2212 32.7558C75.5647 32.931 76.5951 33.1062 77.2821 32.2303C77.6256 31.88 77.7973 31.0042 77.9691 30.1284C78.1408 29.2525 78.1408 28.3767 77.9691 28.0264C77.4539 28.3767 75.393 29.4277 74.706 30.3035C74.3625 30.829 74.3625 31.1793 74.3625 31.7048C74.3625 32.0552 74.5343 32.4055 74.706 32.5807C74.5343 32.7558 74.3626 32.931 74.0191 33.2813C74.0191 33.2813 74.0191 32.7558 73.8473 32.4055C73.8473 32.0552 73.6756 31.5297 73.6756 31.5297C73.6756 31.5297 73.6756 31.3545 73.6756 31.0042C73.6756 30.6538 73.5039 30.3035 73.5039 29.9532C73.5039 29.6028 73.3321 29.2525 73.3321 28.9022C73.3321 28.5519 73.1604 28.3767 73.1604 28.3767C73.3321 28.0264 73.5038 27.3257 73.8473 26.8002C74.1908 26.8002 75.2212 26.9754 75.7365 26.0995V25.9244C76.2517 25.0486 75.9082 22.4211 75.7365 21.7204C75.2212 22.0707 73.3321 23.4721 72.9886 24.523C72.8169 25.0485 72.8169 25.574 72.9886 25.9244C73.1604 26.2747 73.3321 26.625 73.5039 26.8002C73.5039 26.9754 73.3321 26.9754 73.3321 27.1505C73.1604 27.3257 73.1604 27.5009 72.9886 27.5009L72.8169 27.1505C72.8169 27.1505 72.6452 26.8002 72.6452 26.4499C72.6452 26.2747 72.4734 26.0995 72.4734 25.9244C72.4734 25.7492 72.4734 25.7492 72.4734 25.7492C72.4734 25.7492 72.3017 25.2237 71.9582 24.523C71.7865 24.1727 71.7865 23.9976 71.6147 23.6472C71.443 23.4721 71.443 23.2969 71.443 23.2969C71.443 22.7714 71.7865 22.2459 71.7865 21.7204C72.3017 21.7204 73.1604 21.7204 73.5039 20.4943C73.6756 19.9688 73.6756 19.0929 73.5039 18.2171C73.5039 17.8668 73.3321 17.3413 73.1604 16.9909C72.9886 16.6406 72.9886 16.2903 72.8169 16.2903C72.3017 16.8158 70.756 18.3923 70.4126 19.4432C70.2408 19.9687 70.4126 20.4942 70.5843 20.8446C70.756 21.1949 71.0995 21.3701 71.2712 21.5452C71.0995 21.7204 71.0995 22.0707 70.9278 22.4211C70.9278 22.4211 70.756 22.0707 70.5843 21.5452C70.4126 21.3701 70.4126 21.1949 70.2408 21.0197C70.2408 20.8446 70.0691 20.8446 70.0691 20.8446C70.0691 20.8446 69.7256 20.1439 69.3821 19.4432C69.0387 18.7426 68.5234 18.0419 68.5234 18.0419C68.5234 17.5164 68.5234 16.8158 68.6952 16.4654C69.0386 16.4654 69.8973 16.2903 70.2408 15.2393V15.0641C70.4126 14.5386 70.0691 13.6628 69.8973 12.787C69.5539 11.9111 69.2104 11.2105 69.0386 11.0353C68.6952 11.5608 67.3213 13.4876 67.1495 14.5386C67.1495 15.0641 67.3213 15.5896 67.493 15.7648C67.6647 16.1151 68.0082 16.2903 68.1799 16.2903C68.1799 16.4654 68.18 16.4654 68.0082 16.6406C68.0082 16.8158 67.8365 16.9909 67.8365 17.1661L67.6647 16.8158C67.6647 16.8158 67.6647 16.8158 67.493 16.6406C67.493 16.4654 67.3213 16.4654 67.1495 16.2903C66.9778 15.9399 66.6343 15.7648 66.6343 15.7648C66.6343 15.7648 66.4626 15.5896 66.4626 15.4145C66.2908 15.2393 66.1191 14.889 65.9474 14.7138C65.7756 14.5386 65.6039 14.1883 65.4321 14.0131C65.2604 13.838 65.2604 13.6628 65.2604 13.6628C65.0886 13.3125 65.0887 12.4366 65.0887 12.0863C65.4321 11.9111 66.4626 11.5608 66.4626 10.5098C66.4626 9.98432 66.1191 9.1085 65.7756 8.40783C65.4321 7.70717 64.9169 7.00651 64.7452 6.65618C64.4017 7.18168 63.3713 9.28366 63.543 10.3347C63.543 10.8601 63.7147 11.3856 64.0582 11.5608C64.4017 11.9111 64.7452 11.9111 64.9169 12.0863C64.9169 12.2615 64.9169 12.6118 64.7452 12.9621C64.7452 12.9621 64.7452 12.9621 64.5734 12.787C64.4017 12.6118 64.4017 12.4366 64.23 12.4366C63.8865 12.0863 63.543 11.9111 63.543 11.9111C63.543 11.9111 63.3713 11.736 63.1995 11.5608C63.0278 11.3856 62.6843 11.0353 62.3408 10.8602C61.9974 10.685 61.8256 10.3347 61.4821 10.1595C61.3104 9.98432 61.1387 9.80915 61.1387 9.80915C60.9669 9.45882 60.7952 8.75817 60.7952 8.23267C61.1387 8.05751 61.9974 7.53201 61.8256 6.65618V6.48102C61.6539 5.95552 61.3104 5.25485 60.7952 4.55419C60.4517 4.20386 60.28 3.85353 59.9365 3.67836C59.7648 3.50319 59.4213 3.15287 59.4213 3.15287C59.2495 3.67837 58.5626 5.95551 58.7343 7.00651C58.906 7.532 59.0778 7.88233 59.4213 8.0575C59.7648 8.23266 60.1082 8.40783 60.28 8.40783C60.28 8.583 60.28 8.58299 60.28 8.75816C60.28 8.93333 60.28 9.1085 60.28 9.28366L60.1082 9.1085C60.1082 9.1085 59.7647 8.93333 59.593 8.75816C59.4213 8.58299 59.2495 8.583 59.2495 8.40783C59.0778 8.40783 59.0778 8.23267 59.0778 8.23267C59.0778 8.23267 58.5626 7.88234 58.0474 7.53201C57.7039 7.35684 57.5322 7.18167 57.3604 7.00651C57.1887 6.83134 57.0169 6.83134 57.0169 6.83134C56.8452 6.65618 56.8452 6.30584 56.6734 6.13068C56.5017 5.78035 56.5017 5.60518 56.33 5.43001C56.6735 5.25485 57.5321 4.55419 57.1887 3.5032C57.0169 2.9777 56.5017 2.27704 55.8148 1.75154C55.4713 1.40121 55.1278 1.22604 54.9561 1.05088C54.6126 0.875713 54.4409 0.700556 54.2691 0.525391C54.2691 0.875721 54.0974 1.57638 54.0974 2.27704C54.0974 2.97771 54.0974 3.85353 54.2691 4.37902C54.4409 4.90452 54.7843 5.25485 55.1278 5.43001C55.4713 5.60518 55.8148 5.60519 55.9865 5.60519C55.9865 5.78036 56.1582 6.13069 56.1582 6.48102C56.1582 6.48102 54.6126 5.95552 54.0974 5.78035C53.9256 5.60519 53.2387 5.43002 52.38 5.07969C52.38 4.72936 52.5517 3.67837 51.3496 3.15287C50.4909 2.80254 48.0865 3.15287 47.5713 3.15287C47.9148 3.67837 49.2887 5.60519 50.1474 5.95552C51.1778 6.30585 51.8648 5.78035 52.0365 5.43001C53.5822 6.30584 55.2995 7.18168 55.4713 7.35684C55.8148 7.53201 56.1582 7.70717 56.5017 7.88233C56.8452 8.0575 57.0169 8.23267 57.0169 8.23267C56.6734 8.40784 56.5017 8.40783 56.1582 8.583C55.9865 8.40783 55.8148 8.0575 55.4713 7.88233C55.1278 7.70717 54.7843 7.70717 54.2691 7.88233C53.4104 8.23266 52.0365 10.1595 51.693 10.685C51.8648 10.685 52.0365 10.685 52.38 10.685C52.7235 10.685 52.8952 10.685 53.2387 10.8602C53.9256 10.8602 54.6126 10.8601 55.1278 10.685C56.1582 10.3346 56.33 9.45882 56.33 8.93332C56.8452 8.75816 57.3604 8.75816 57.8756 8.75816C57.8756 8.75816 58.2191 8.93333 58.3908 9.1085C58.5626 9.1085 58.5626 9.28366 58.7343 9.28366C58.906 9.28366 58.9061 9.45882 58.9061 9.45882L59.593 9.98433C59.593 9.98433 59.9365 10.3346 60.4517 10.685C60.7952 11.0353 61.3104 11.3856 61.3104 11.3856C60.9669 11.3856 60.6234 11.5608 60.4517 11.5608C60.4517 11.3856 60.28 11.2105 60.1082 11.0353C59.9365 10.8602 59.9365 10.8601 59.7648 10.685C59.593 10.685 59.4213 10.5098 59.2495 10.5098C59.0778 10.5098 58.9061 10.5098 58.5626 10.5098C57.5322 10.685 55.9865 12.4366 55.643 12.787C55.8148 12.787 55.9865 12.9621 56.33 12.9621C56.6735 12.9621 57.0169 13.1373 57.3604 13.1373C57.7039 13.1373 58.0474 13.3125 58.2191 13.3125C58.5626 13.3125 58.7343 13.3125 59.0778 13.3125C60.1082 13.1373 60.4517 12.2615 60.4517 11.736C60.9669 11.736 61.6539 11.736 61.9974 11.736C61.9974 11.736 62.1691 11.9111 62.5126 12.0863C62.6843 12.2615 63.0278 12.6118 63.0278 12.6118C63.0278 12.6118 63.1995 12.787 63.3713 12.9621C63.543 13.1373 63.543 13.1373 63.7147 13.3125C63.8865 13.4876 64.0582 13.6628 64.23 13.838C64.5734 14.1883 64.7452 14.5386 65.0887 14.7138C65.2604 14.889 65.4321 15.0641 65.4321 15.0641C65.0887 15.0641 64.7452 15.0641 64.5734 15.0641C64.5734 14.8889 64.4017 14.5386 64.23 14.1883C64.0582 13.838 63.543 13.6628 63.0278 13.6628C61.9973 13.6628 60.1082 15.0641 59.7648 15.4145C59.9365 15.5896 60.6235 15.7648 61.1387 16.1151C61.8256 16.4654 62.5126 16.6406 62.8561 16.6406C63.8865 16.6406 64.4017 15.7648 64.5734 15.4145C65.0887 15.4145 65.7756 15.5896 66.1191 15.5896L66.9778 16.6406C66.9778 16.6406 67.1495 16.8158 67.1495 16.9909C67.3213 17.1661 67.3212 17.3413 67.3212 17.3413C67.3212 17.3413 67.6647 17.6916 67.8365 18.2171C68.0082 18.3923 68.1799 18.7426 68.1799 18.7426C68.3517 18.9178 68.3517 19.0929 68.3517 19.0929C68.0082 19.0929 67.6647 19.0929 67.493 19.0929C67.493 18.7426 67.3213 18.0419 66.6343 17.8668C66.4626 17.8668 66.2908 17.6916 66.1191 17.6916C65.0886 17.5164 63.0278 18.7426 62.5126 18.9178C62.6843 18.9178 62.856 19.0929 63.0278 19.2681C63.1995 19.4433 63.543 19.6184 63.8865 19.7936C64.4017 20.1439 65.0887 20.4943 65.4321 20.4943C66.4626 20.6694 66.9778 19.9687 67.3212 19.4432C67.6647 19.6184 68.3517 19.7936 68.8669 19.9688L69.5539 21.0197C69.5539 21.0197 69.7256 21.1949 69.7256 21.5452C69.8973 21.8956 70.0691 22.2459 70.2408 22.5962C70.4126 22.9466 70.5843 23.4721 70.756 23.6472C70.9278 23.9976 70.9278 24.1727 70.9278 24.1727C70.5843 24.1727 70.2408 23.9976 70.0691 23.9976C70.0691 23.8224 70.0691 23.4721 69.8973 23.1217C69.7256 22.7714 69.3821 22.4211 68.8669 22.2459C67.8365 21.8956 65.7756 22.7714 65.0887 22.9466C65.4321 23.2969 66.806 24.6982 67.8365 25.0486C68.8669 25.3989 69.5539 24.6982 69.8973 24.3479C70.2408 24.5231 70.9278 24.8734 71.2712 25.0486C71.2712 25.0486 71.443 25.3989 71.443 25.574C71.443 25.7492 71.6147 25.9244 71.6147 25.9244C71.6147 26.0995 71.6147 26.0995 71.6147 26.0995L71.9582 26.9754C71.9582 26.9754 71.9582 27.1505 72.1299 27.3257C72.1299 27.5009 72.3017 27.8512 72.3017 28.0264C72.4734 28.5519 72.6452 29.0773 72.6452 29.0773C72.3017 28.9022 72.1299 28.9022 71.7865 28.727C71.7865 28.5519 71.7865 28.3767 71.7865 28.0264C71.7865 27.676 71.6147 27.5009 71.443 27.1505C71.2713 26.9754 71.0995 26.9754 70.9278 26.8002C70.4126 26.625 69.7256 26.625 68.8669 26.625C68.18 26.625 67.3213 26.8002 67.1495 26.9754C67.3213 27.1505 67.6647 27.676 68.1799 28.2015C68.3517 28.3767 68.6952 28.727 68.8669 28.9022C69.0387 29.0773 69.3821 29.2525 69.5539 29.4277C70.5843 29.9532 71.2712 29.4277 71.6147 29.0773C71.9582 29.2525 72.4734 29.778 72.8169 29.9532C72.8169 29.9532 72.8169 30.3035 72.9886 30.6538C72.9886 30.829 72.9886 31.0042 72.9886 31.0042C72.9886 31.1793 72.9886 31.1793 72.9886 31.1793C72.9886 31.1793 72.9886 31.3545 73.1604 31.7048C73.1604 32.0552 73.3321 32.4055 73.3321 32.931C73.3321 33.4565 73.5039 33.8068 73.5039 34.1571C73.5039 34.5075 73.5039 34.6826 73.5039 34.6826C73.1604 34.5075 72.9886 34.3323 72.8169 34.1571C72.8169 33.982 72.9886 33.6317 72.9886 33.2813C72.9886 32.931 72.8169 32.5807 72.3017 32.2303C71.443 31.7048 69.2104 31.7048 68.5234 31.7048C68.6952 31.88 68.8669 32.5807 69.2104 33.1062C69.5539 33.6317 69.8973 34.3323 70.4126 34.5075C71.2712 35.033 72.1299 34.6827 72.4734 34.5075C72.8169 34.8578 73.3321 35.2081 73.5039 35.5585C73.5039 35.5585 73.5039 35.9088 73.5039 36.2591C73.5039 36.6095 73.5039 36.9598 73.5039 36.9598V37.8356C73.5039 37.8356 73.5039 38.3611 73.5039 38.8866C73.5039 39.0618 73.5039 39.4121 73.5039 39.5873C73.5039 39.7624 73.5039 39.9376 73.5039 39.9376C73.3321 39.7624 72.9886 39.5873 72.8169 39.4121C72.9886 39.0618 73.1604 38.5363 72.9886 37.8356C72.8169 37.6605 72.8169 37.4853 72.6452 37.3101C71.9582 36.6095 69.5539 36.2591 69.0386 36.2591C69.0386 36.6095 69.3821 37.135 69.5539 37.8356C69.7256 38.3611 70.0691 39.0618 70.4126 39.4121C71.0995 40.1128 72.1299 39.9376 72.4734 39.7624C72.8169 40.1128 73.1604 40.6383 73.3321 40.9886C73.3321 40.9886 73.3321 40.9886 73.3321 41.1638C73.3321 41.3389 73.3321 41.5141 73.3321 41.6893C73.3321 42.0396 73.3321 42.3899 73.3321 42.3899C73.3321 42.3899 73.3321 42.5651 73.3321 42.9154C73.3321 43.2657 73.1604 43.6161 73.1604 44.1416C73.1604 44.4919 72.9886 45.0174 72.9886 45.3677C72.9886 45.7181 72.8169 45.8932 72.8169 45.8932C72.6452 45.7181 72.4734 45.3677 72.3017 45.1926C72.6452 44.8422 72.9886 43.9664 72.3017 43.0906C71.6147 42.2148 69.5539 41.5141 68.8669 41.5141C68.8669 41.6893 69.0386 42.3899 69.2104 43.0906C69.3821 43.7912 69.5539 44.4919 69.8973 44.8422C70.5843 45.7181 71.443 45.5429 71.9582 45.5429C72.13 45.8932 72.4734 46.5939 72.6452 46.9442L72.3017 48.1704C72.3017 48.1704 72.3017 48.3456 72.1299 48.5207C72.1299 48.6959 71.9582 48.871 71.9582 48.871C71.9582 48.871 71.7865 49.3965 71.6147 49.922C71.6147 50.0972 71.443 50.4475 71.443 50.6227C71.443 50.7979 71.2712 50.973 71.2712 50.973C71.0995 50.7979 70.9278 50.4475 70.756 50.2724C71.0995 50.0972 71.443 49.5717 71.2712 48.871C71.2712 48.6959 71.0995 48.5207 71.0995 48.3455C70.5843 47.4697 68.5234 46.4187 68.0082 46.2436C68.0082 46.4187 68.0082 46.5939 68.0082 46.9442C68.0082 47.2946 68.0082 47.6449 68.0082 47.9952C68.0082 48.6959 68.18 49.3965 68.3517 49.7469C68.8669 50.6227 69.7256 50.7979 70.2408 50.6227C70.4126 50.973 70.756 51.6737 70.756 52.1992L70.2408 53.4253C70.2408 53.4253 70.2408 53.4253 70.2408 53.6005C70.2408 53.6005 70.0691 53.7757 70.0691 53.9508C69.8973 54.3012 69.7256 54.6515 69.5539 55.0018C69.3821 55.3522 69.2104 55.7025 69.0386 56.0528C68.8669 56.4032 68.6952 56.5783 68.6952 56.5783C68.5234 56.228 68.5234 56.0528 68.3517 55.7025C68.5234 55.5273 68.8669 55.3522 69.0386 55.0018C69.2104 54.6515 69.2104 54.3012 69.0386 53.7757C68.6952 52.8999 66.806 51.4985 66.2908 51.1482C66.2908 51.3234 66.2908 51.4985 66.2908 51.8489C66.2908 52.1992 66.2908 52.3743 66.1191 52.7247C66.1191 53.4253 66.1191 54.126 66.2908 54.6515C66.6343 55.7025 67.493 55.8777 68.0082 55.8777C68.18 56.4032 68.1799 56.9287 68.1799 57.4542C68.1799 57.4542 68.0082 57.8045 67.8365 57.9796C67.6647 58.1548 67.6647 58.33 67.6647 58.33C67.6647 58.5051 67.493 58.5051 67.493 58.5051L66.9778 59.2058L67.6647 59.7313C67.6647 59.7313 67.8365 59.381 68.0082 59.2058C68.18 59.0306 68.18 58.8555 68.3517 58.8555C68.3517 58.6803 68.5234 58.6803 68.5234 58.6803C68.5234 58.6803 68.8669 58.1548 69.2104 57.6293C69.3821 57.279 69.5539 57.1038 69.7256 56.9287C69.8973 56.7535 69.8973 56.5783 69.8973 56.5783C70.0691 56.4032 70.4126 56.4032 70.5843 56.228C70.9278 56.0528 71.0995 56.0528 71.2712 55.8777C71.443 56.228 72.1299 57.1038 73.1604 56.5783C73.6756 56.4032 74.3626 55.8777 74.8778 55.177C75.2212 54.8267 75.393 54.4763 75.5647 54.3012C75.7365 53.9508 75.9082 53.7757 76.0799 53.6005C75.7365 53.6005 75.0495 53.4253 74.3625 53.4253C73.6756 53.4253 72.8169 53.4253 72.3017 53.6005C71.7865 53.7757 71.443 54.126 71.2712 54.4763C71.0995 54.8267 71.0995 55.177 71.0995 55.3522C70.9278 55.3522 70.5843 55.5273 70.2408 55.5273C70.2408 55.5273 70.4126 55.177 70.5843 54.8267C70.756 54.6515 70.756 54.4763 70.9278 54.3012C70.9278 54.126 71.0995 54.126 71.0995 54.126C71.0995 54.126 71.0995 53.9508 71.2712 53.6005C71.443 53.2502 71.6147 52.8998 71.7865 52.5495C72.1299 51.8489 72.3017 51.1482 72.3017 51.1482C72.6452 50.7979 73.1604 50.4475 73.6756 50.2724C74.0191 50.6227 74.5343 51.1482 75.5647 50.7979H75.7365C76.2517 50.6227 76.7669 49.922 77.2821 49.2214C77.7973 48.5207 78.1408 47.82 78.3125 47.4697C77.6256 47.4697 75.393 47.4697 74.5343 47.9952C74.0191 48.3455 73.8473 48.6959 73.6756 49.0462C73.5039 49.3965 73.6756 49.7469 73.6756 49.922C73.5039 49.922 73.5038 50.0972 73.3321 50.0972C73.1604 50.0972 72.9886 50.2724 72.8169 50.2724L72.9886 49.922C72.9886 49.922 72.9886 49.922 72.9886 49.7469C72.9886 49.5717 73.1604 49.3965 73.1604 49.2214C73.3321 48.871 73.3321 48.5207 73.3321 48.5207C73.3321 48.5207 73.3321 48.3455 73.5039 48.1704C73.3321 47.4697 73.3321 47.2946 73.5039 46.9442Z" fill="#F5EFDB"/>
<path d="M33.3957 52.9998C33.337 52.9998 33.3077 52.9083 33.3077 52.7253C33.3077 52.5423 33.337 52.4509 33.3957 52.4509C34.6871 52.4509 35.6557 52.3746 36.3014 52.2222C36.9765 52.0392 37.4607 51.7342 37.7542 51.3073C38.0477 50.8499 38.1945 50.179 38.1945 49.2947V32.2789C38.1945 30.2053 37.7249 29.1685 36.7857 29.1685C36.0813 29.1685 34.9513 29.7479 33.3957 30.9067L33.3077 30.9524C33.1903 30.9524 33.1022 30.8914 33.0435 30.7695C32.9848 30.617 32.9848 30.5103 33.0435 30.4493L41.5404 24.0912C41.6578 24.0302 41.7605 23.9998 41.8486 23.9998C41.9073 23.9998 41.966 24.0302 42.0247 24.0912C42.0834 24.1522 42.1127 24.2132 42.1127 24.2742V49.2947C42.1127 50.2095 42.2448 50.8804 42.5089 51.3073C42.7731 51.7342 43.228 52.0392 43.8737 52.2222C44.5488 52.3746 45.5467 52.4509 46.8674 52.4509C46.9555 52.4509 46.9995 52.5423 46.9995 52.7253C46.9995 52.9083 46.9555 52.9998 46.8674 52.9998C45.6934 52.9998 44.7689 52.9845 44.0939 52.954L40.1316 52.9083L36.3014 52.954C35.597 52.9845 34.6284 52.9998 33.3957 52.9998Z" fill="#AAAAAA"/>
</svg>
