<svg width="35" height="35" viewBox="0 0 35 35" fill="none" xmlns="http://www.w3.org/2000/svg">
<path d="M14 17C12.625 17 11.5 15.92 11.5 14.6C11.5 13.28 12.625 12.2 14 12.2C15.375 12.2 16.5 13.28 16.5 14.6C16.5 15.92 15.375 17 14 17ZM21.5 14.84C21.5 10.484 18.1875 7.4 14 7.4C9.8125 7.4 6.5 10.484 6.5 14.84C6.5 17.648 8.9375 21.368 14 25.808C19.0625 21.368 21.5 17.648 21.5 14.84ZM14 5C19.25 5 24 8.864 24 14.84C24 18.824 20.6625 23.54 14 29C7.3375 23.54 4 18.824 4 14.84C4 8.864 8.75 5 14 5Z" fill="#0156FF"/>
</svg>
