<svg width="24" height="24" viewBox="0 0 24 24" fill="none" xmlns="http://www.w3.org/2000/svg">
<g clip-path="url(#clip0_2491_3763)">
<path fill-rule="evenodd" clip-rule="evenodd" d="M18.4303 3.93473C16.6241 2.12856 13.6957 2.12856 11.8895 3.93473L5.54782 10.2765C5.1573 10.667 4.52413 10.667 4.13361 10.2765C3.74308 9.88593 3.74308 9.25276 4.13361 8.86224L10.4753 2.52052C13.0626 -0.0667034 17.2573 -0.0667034 19.8445 2.52052C22.4317 5.10774 22.4317 9.30246 19.8445 11.8897L11.3137 20.4205C9.45873 22.2755 6.45119 22.2755 4.5962 20.4205C2.74121 18.5655 2.74121 15.5579 4.5962 13.7029L4.60003 13.6991L4.60004 13.6991L11.0404 7.3282C11.0411 7.32749 11.0418 7.32678 11.0425 7.32608C12.1407 6.2301 13.9252 6.14718 15.0715 7.29351C16.1943 8.41627 16.1943 10.2366 15.0715 11.3594L10.5637 15.8672C10.1732 16.2577 9.54003 16.2577 9.14951 15.8672C8.75898 15.4767 8.75898 14.8435 9.14951 14.453L13.6573 9.94516C13.999 9.60345 13.999 9.04943 13.6573 8.70772C13.3399 8.39033 12.821 8.37594 12.4546 8.74241L12.4507 8.74624L12.4507 8.74623L6.01042 15.1172C6.00981 15.1178 6.00921 15.1184 6.00861 15.119C4.93647 16.1931 4.93708 17.9329 6.01042 19.0062C7.08436 20.0802 8.82556 20.0802 9.8995 19.0062L18.4303 10.4755C20.2365 8.6693 20.2365 5.74091 18.4303 3.93473Z" fill="#1E212C"/>
</g>
<defs>
<clipPath id="clip0_2491_3763">
<rect width="24" height="24" fill="white"/>
</clipPath>
</defs>
</svg>
