<svg width="24" height="24" viewBox="0 0 24 24" fill="none" xmlns="http://www.w3.org/2000/svg">
<path fill-rule="evenodd" clip-rule="evenodd" d="M18.7652 19.7597V15.808C18.7652 15.27 19.2013 14.8339 19.7393 14.8339C20.2773 14.8339 20.7134 15.27 20.7134 15.808V19.7597C20.7134 22.1015 18.8151 23.9999 16.4735 23.9999L4.24036 23.9999C1.89874 23.9999 0.000488179 22.1015 0.000488281 19.7597L0.000488816 7.52565C0.000488918 5.18386 1.89875 3.28547 4.24037 3.28547L8.19178 3.28549C8.72976 3.28549 9.16587 3.72163 9.16587 4.25965C9.16587 4.79766 8.72975 5.23381 8.19178 5.23381L4.24037 5.23379C2.9747 5.23379 1.94867 6.25989 1.94867 7.52565L1.94867 19.7597C1.94867 21.0255 2.97469 22.0516 4.24036 22.0516H16.4735C17.7392 22.0516 18.7652 21.0255 18.7652 19.7597Z" fill="#1E212C"/>
<path fill-rule="evenodd" clip-rule="evenodd" d="M20.4296 3.57075C20.81 3.95118 20.81 4.56798 20.4296 4.94842L9.60379 15.775C9.22338 16.1554 8.60662 16.1554 8.22622 15.775C7.84581 15.3946 7.84581 14.7778 8.22622 14.3973L19.052 3.57075C19.4324 3.19031 20.0492 3.19031 20.4296 3.57075Z" fill="#1E212C"/>
<path fill-rule="evenodd" clip-rule="evenodd" d="M19.7424 3.29573C20.2797 3.29671 20.7147 3.73257 20.7147 4.26989L20.7147 10.0334C20.7147 10.5714 20.2786 11.0076 19.7406 11.0076C19.2026 11.0076 18.7665 10.5715 18.7665 10.0334L18.7665 5.24227L13.9651 5.23347C13.4271 5.23249 12.9918 4.79555 12.9927 4.25753C12.9937 3.71952 13.4306 3.28417 13.9686 3.28516L19.7424 3.29573Z" fill="#1E212C"/>
</svg>
