<svg width="16" height="17" viewBox="0 0 16 17" fill="none" xmlns="http://www.w3.org/2000/svg">
<path fill-rule="evenodd" clip-rule="evenodd" d="M5.33301 9.61784C5.33301 9.24965 5.63148 8.95117 5.99967 8.95117H9.99967C10.3679 8.95117 10.6663 9.24965 10.6663 9.61784C10.6663 9.98603 10.3679 10.2845 9.99967 10.2845H5.99967C5.63148 10.2845 5.33301 9.98603 5.33301 9.61784Z" fill="#424551"/>
<path fill-rule="evenodd" clip-rule="evenodd" d="M5.33301 12.1178C5.33301 11.7496 5.63148 11.4512 5.99967 11.4512H7.99967C8.36786 11.4512 8.66634 11.7496 8.66634 12.1178C8.66634 12.486 8.36786 12.7845 7.99967 12.7845H5.99967C5.63148 12.7845 5.33301 12.486 5.33301 12.1178Z" fill="#424551"/>
<path fill-rule="evenodd" clip-rule="evenodd" d="M6.02829 1.64643C6.15331 1.52141 6.32288 1.45117 6.49969 1.45117H10.9997C12.4725 1.45117 13.6664 2.64508 13.6664 4.11784L13.6664 13.1178C13.6664 14.5906 12.4725 15.7845 10.9997 15.7845H4.99967C3.52691 15.7845 2.333 14.5906 2.33301 13.1178L2.33302 5.61784C2.33302 5.44103 2.40326 5.27146 2.52829 5.14643L6.02829 1.64643ZM6.333 3.22734V5.45117H4.10917L6.333 3.22734ZM3.66636 6.78451L3.66634 13.1178C3.66634 13.8542 4.26329 14.4512 4.99967 14.4512H10.9997C11.7361 14.4512 12.333 13.8542 12.333 13.1178L12.333 4.11784C12.333 3.38146 11.7361 2.78451 10.9997 2.78451H7.66634V6.11784C7.66634 6.48603 7.36786 6.78451 6.99967 6.78451H3.66636Z" fill="#424551"/>
</svg>
