<svg width="24" height="24" viewBox="0 0 24 24" fill="none" xmlns="http://www.w3.org/2000/svg">
<path fill-rule="evenodd" clip-rule="evenodd" d="M11.2929 1.54289C11.6834 1.15237 12.3166 1.15237 12.7071 1.54289L17.2071 6.04289C17.5976 6.43342 17.5976 7.06658 17.2071 7.45711C16.8166 7.84763 16.1834 7.84763 15.7929 7.45711L13 4.66421V17.25C13 17.8023 12.5523 18.25 12 18.25C11.4477 18.25 11 17.8023 11 17.25V4.66421L8.20711 7.45711C7.81658 7.84763 7.18342 7.84763 6.79289 7.45711C6.40237 7.06658 6.40237 6.43342 6.79289 6.04289L11.2929 1.54289ZM2.25 14C2.80228 14 3.25 14.4477 3.25 15V18.75C3.25 19.8546 4.14543 20.75 5.25 20.75H18.75C19.8546 20.75 20.75 19.8546 20.75 18.75V15C20.75 14.4477 21.1977 14 21.75 14C22.3023 14 22.75 14.4477 22.75 15V18.75C22.75 20.9591 20.9591 22.75 18.75 22.75H5.25C3.04086 22.75 1.25 20.9591 1.25 18.75V15C1.25 14.4477 1.69772 14 2.25 14Z" fill="#1E212C"/>
</svg>
