<svg width="24" height="24" viewBox="0 0 24 24" fill="none" xmlns="http://www.w3.org/2000/svg">
<path fill-rule="evenodd" clip-rule="evenodd" d="M18.375 3.25C17.0633 3.25 16 4.31332 16 5.625C16 5.88361 16.041 6.13068 16.116 6.3612C16.4261 7.31368 17.3217 8 18.375 8C19.6867 8 20.75 6.93668 20.75 5.625C20.75 4.31332 19.6867 3.25 18.375 3.25ZM14 5.625C14 3.20875 15.9588 1.25 18.375 1.25C20.7912 1.25 22.75 3.20875 22.75 5.625C22.75 8.04125 20.7912 10 18.375 10C16.8404 10 15.4919 9.21034 14.7112 8.01651L9.83967 10.4561C10.0628 11.2703 10.0467 12.1392 9.79465 12.9444L15.1247 15.4466C15.9247 14.5594 17.0841 14 18.375 14C20.7912 14 22.75 15.9588 22.75 18.375C22.75 20.7912 20.7912 22.75 18.375 22.75C15.9588 22.75 14 20.7912 14 18.375C14 17.9696 14.0554 17.5763 14.1591 17.2027L8.76558 14.6707C7.97125 15.4895 6.85796 16 5.625 16C3.20875 16 1.25 14.0412 1.25 11.625C1.25 9.20875 3.20875 7.25 5.625 7.25C6.91778 7.25 8.07871 7.811 8.87878 8.70049L14.028 6.12188C14.0095 5.95859 14 5.79278 14 5.625ZM5.625 9.25C4.31332 9.25 3.25 10.3133 3.25 11.625C3.25 12.9367 4.31332 14 5.625 14C6.46827 14 7.20976 13.5612 7.63254 12.8948C8.09256 12.1697 8.11799 11.2121 7.69747 10.4638C7.28913 9.73724 6.51331 9.25 5.625 9.25ZM18.375 16C17.4933 16 16.7224 16.48 16.3116 17.1978C16.1136 17.5439 16 17.9447 16 18.375C16 19.6867 17.0633 20.75 18.375 20.75C19.6867 20.75 20.75 19.6867 20.75 18.375C20.75 17.0633 19.6867 16 18.375 16Z" fill="#1E212C"/>
</svg>
