<svg width="159" height="184" viewBox="0 0 159 184" fill="none" xmlns="http://www.w3.org/2000/svg">
<path d="M3.17246 0C2.54502 0 1.93162 0.186052 1.40992 0.534642C0.888222 0.883231 0.48155 1.37868 0.241438 1.95836C0.00132521 2.53805 -0.0614326 3.17593 0.0609757 3.79132C0.183384 4.40671 0.485537 4.97197 0.929208 5.41564C1.37288 5.85931 1.93811 6.16146 2.5535 6.28387C3.16888 6.40628 3.80683 6.34345 4.38652 6.10334C4.9662 5.86323 5.46161 5.45659 5.8102 4.93489C6.15879 4.41319 6.34488 3.79986 6.34488 3.17241C6.34488 2.33104 6.01066 1.5241 5.41572 0.92916C4.82077 0.334217 4.01384 0 3.17246 0Z" fill="#313131"/>
<path d="M3.17246 25.3794C2.54502 25.3794 1.93162 25.5654 1.40992 25.914C0.888222 26.2626 0.48155 26.7581 0.241438 27.3378C0.00132521 27.9174 -0.0614326 28.5553 0.0609757 29.1707C0.183384 29.7861 0.485537 30.3514 0.929208 30.795C1.37288 31.2387 1.93811 31.5409 2.5535 31.6633C3.16888 31.7857 3.80683 31.7228 4.38652 31.4827C4.9662 31.2426 5.46161 30.836 5.8102 30.3143C6.15879 29.7926 6.34488 29.1793 6.34488 28.5518C6.34488 27.7104 6.01066 26.9035 5.41572 26.3086C4.82077 25.7136 4.01384 25.3794 3.17246 25.3794Z" fill="#313131"/>
<path d="M3.17246 50.7585C2.54502 50.7585 1.93162 50.9446 1.40992 51.2932C0.888222 51.6418 0.48155 52.1372 0.241438 52.7169C0.00132521 53.2965 -0.0614326 53.9344 0.0609757 54.5498C0.183384 55.1652 0.485537 55.7304 0.929207 56.1741C1.37288 56.6178 1.93811 56.9199 2.5535 57.0423C3.16888 57.1647 3.80683 57.1019 4.38652 56.8618C4.9662 56.6217 5.46161 56.215 5.8102 55.6934C6.15879 55.1717 6.34488 54.5583 6.34488 53.9309C6.34488 53.0895 6.01066 52.2826 5.41572 51.6877C4.82077 51.0928 4.01384 50.7585 3.17246 50.7585Z" fill="#313131"/>
<path d="M3.17246 76.1379C2.54502 76.1379 1.93162 76.324 1.40992 76.6726C0.888222 77.0212 0.48155 77.5166 0.241438 78.0963C0.00132521 78.676 -0.0614326 79.3139 0.0609757 79.9293C0.183384 80.5446 0.485537 81.1099 0.929208 81.5536C1.37288 81.9972 1.93811 82.2994 2.5535 82.4218C3.16888 82.5442 3.80683 82.4814 4.38652 82.2413C4.9662 82.0012 5.46161 81.5945 5.8102 81.0728C6.15879 80.5511 6.34488 79.9378 6.34488 79.3104C6.34488 78.469 6.01066 77.662 5.41572 77.0671C4.82077 76.4722 4.01384 76.1379 3.17246 76.1379Z" fill="#313131"/>
<path d="M3.17246 101.517C2.54502 101.517 1.93162 101.703 1.40992 102.052C0.888222 102.401 0.48155 102.896 0.241438 103.476C0.00132521 104.055 -0.0614326 104.693 0.0609757 105.309C0.183384 105.924 0.485537 106.489 0.929208 106.933C1.37288 107.377 1.93811 107.679 2.5535 107.801C3.16888 107.924 3.80683 107.861 4.38652 107.621C4.9662 107.381 5.46161 106.974 5.8102 106.452C6.15879 105.931 6.34488 105.317 6.34488 104.69C6.34488 103.848 6.01066 103.041 5.41572 102.446C4.82077 101.852 4.01384 101.517 3.17246 101.517Z" fill="#313131"/>
<path d="M3.17246 126.896C2.54502 126.896 1.93162 127.083 1.40992 127.431C0.888222 127.78 0.48155 128.275 0.241438 128.855C0.00132521 129.434 -0.0614326 130.072 0.0609757 130.688C0.183384 131.303 0.485537 131.868 0.929207 132.312C1.37288 132.756 1.93811 133.058 2.5535 133.18C3.16888 133.303 3.80683 133.24 4.38652 133C4.9662 132.76 5.46161 132.353 5.8102 131.831C6.15879 131.31 6.34488 130.696 6.34488 130.069C6.34488 129.227 6.01066 128.421 5.41572 127.826C4.82077 127.231 4.01384 126.896 3.17246 126.896Z" fill="#313131"/>
<path d="M3.17246 152.276C2.54502 152.276 1.93162 152.462 1.40992 152.811C0.888222 153.159 0.48155 153.655 0.241438 154.234C0.00132521 154.814 -0.0614326 155.452 0.0609757 156.067C0.183384 156.683 0.485537 157.248 0.929208 157.692C1.37288 158.135 1.93811 158.437 2.5535 158.56C3.16888 158.682 3.80683 158.619 4.38652 158.379C4.9662 158.139 5.46161 157.732 5.8102 157.211C6.15879 156.689 6.34488 156.076 6.34488 155.448C6.34488 154.607 6.01066 153.8 5.41572 153.205C4.82077 152.61 4.01384 152.276 3.17246 152.276Z" fill="#313131"/>
<path d="M3.17246 177.655C2.54502 177.655 1.93162 177.841 1.40992 178.19C0.888222 178.539 0.48155 179.034 0.241438 179.614C0.00132521 180.193 -0.0614326 180.831 0.0609757 181.447C0.183384 182.062 0.485537 182.627 0.929208 183.071C1.37288 183.515 1.93811 183.817 2.5535 183.939C3.16888 184.062 3.80683 183.999 4.38652 183.759C4.9662 183.519 5.46161 183.112 5.8102 182.59C6.15879 182.068 6.34488 181.455 6.34488 180.828C6.34488 179.986 6.01066 179.179 5.41572 178.584C4.82077 177.989 4.01384 177.655 3.17246 177.655Z" fill="#313131"/>
<path d="M28.5518 0C27.9243 0 27.3109 0.186052 26.7892 0.534642C26.2675 0.883231 25.8609 1.37868 25.6207 1.95836C25.3806 2.53805 25.3179 3.17593 25.4403 3.79132C25.5627 4.40671 25.8648 4.97197 26.3085 5.41564C26.7522 5.85931 27.3174 6.16146 27.9328 6.28387C28.5482 6.40628 29.1861 6.34345 29.7658 6.10334C30.3455 5.86323 30.8409 5.45659 31.1895 4.93489C31.5381 4.41319 31.7242 3.79986 31.7242 3.17241C31.7242 2.33104 31.39 1.5241 30.795 0.92916C30.2001 0.334217 29.3931 0 28.5518 0Z" fill="#313131"/>
<path d="M28.5518 25.3794C27.9243 25.3794 27.3109 25.5654 26.7892 25.914C26.2675 26.2626 25.8609 26.7581 25.6207 27.3378C25.3806 27.9174 25.3179 28.5553 25.4403 29.1707C25.5627 29.7861 25.8648 30.3514 26.3085 30.795C26.7522 31.2387 27.3174 31.5409 27.9328 31.6633C28.5482 31.7857 29.1861 31.7228 29.7658 31.4827C30.3455 31.2426 30.8409 30.836 31.1895 30.3143C31.5381 29.7926 31.7242 29.1793 31.7242 28.5518C31.7242 27.7104 31.39 26.9035 30.795 26.3086C30.2001 25.7136 29.3931 25.3794 28.5518 25.3794Z" fill="#313131"/>
<path d="M28.5518 50.7585C27.9243 50.7585 27.3109 50.9446 26.7892 51.2932C26.2675 51.6418 25.8609 52.1372 25.6207 52.7169C25.3806 53.2965 25.3179 53.9344 25.4403 54.5498C25.5627 55.1652 25.8648 55.7304 26.3085 56.1741C26.7522 56.6178 27.3174 56.9199 27.9328 57.0423C28.5482 57.1647 29.1861 57.1019 29.7658 56.8618C30.3455 56.6217 30.8409 56.215 31.1895 55.6934C31.5381 55.1717 31.7242 54.5583 31.7242 53.9309C31.7242 53.0895 31.39 52.2826 30.795 51.6877C30.2001 51.0928 29.3931 50.7585 28.5518 50.7585Z" fill="#313131"/>
<path d="M28.5518 76.1379C27.9243 76.1379 27.3109 76.324 26.7892 76.6726C26.2675 77.0212 25.8609 77.5166 25.6207 78.0963C25.3806 78.676 25.3179 79.3139 25.4403 79.9293C25.5627 80.5446 25.8648 81.1099 26.3085 81.5536C26.7522 81.9972 27.3174 82.2994 27.9328 82.4218C28.5482 82.5442 29.1861 82.4814 29.7658 82.2413C30.3455 82.0012 30.8409 81.5945 31.1895 81.0728C31.5381 80.5511 31.7242 79.9378 31.7242 79.3104C31.7242 78.469 31.39 77.662 30.795 77.0671C30.2001 76.4722 29.3931 76.1379 28.5518 76.1379Z" fill="#313131"/>
<path d="M28.5518 101.517C27.9243 101.517 27.3109 101.703 26.7892 102.052C26.2675 102.401 25.8609 102.896 25.6207 103.476C25.3806 104.055 25.3179 104.693 25.4403 105.309C25.5627 105.924 25.8648 106.489 26.3085 106.933C26.7522 107.377 27.3174 107.679 27.9328 107.801C28.5482 107.924 29.1861 107.861 29.7658 107.621C30.3455 107.381 30.8409 106.974 31.1895 106.452C31.5381 105.931 31.7242 105.317 31.7242 104.69C31.7242 103.848 31.39 103.041 30.795 102.446C30.2001 101.852 29.3931 101.517 28.5518 101.517Z" fill="#313131"/>
<path d="M28.5518 126.896C27.9243 126.896 27.3109 127.083 26.7892 127.431C26.2675 127.78 25.8609 128.275 25.6207 128.855C25.3806 129.434 25.3179 130.072 25.4403 130.688C25.5627 131.303 25.8648 131.868 26.3085 132.312C26.7522 132.756 27.3174 133.058 27.9328 133.18C28.5482 133.303 29.1861 133.24 29.7658 133C30.3455 132.76 30.8409 132.353 31.1895 131.831C31.5381 131.31 31.7242 130.696 31.7242 130.069C31.7242 129.227 31.39 128.421 30.795 127.826C30.2001 127.231 29.3931 126.896 28.5518 126.896Z" fill="#313131"/>
<path d="M28.5518 152.276C27.9243 152.276 27.3109 152.462 26.7892 152.811C26.2675 153.159 25.8609 153.655 25.6207 154.234C25.3806 154.814 25.3179 155.452 25.4403 156.067C25.5627 156.683 25.8648 157.248 26.3085 157.692C26.7522 158.135 27.3174 158.437 27.9328 158.56C28.5482 158.682 29.1861 158.619 29.7658 158.379C30.3455 158.139 30.8409 157.732 31.1895 157.211C31.5381 156.689 31.7242 156.076 31.7242 155.448C31.7242 154.607 31.39 153.8 30.795 153.205C30.2001 152.61 29.3931 152.276 28.5518 152.276Z" fill="#313131"/>
<path d="M28.5518 177.655C27.9243 177.655 27.3109 177.841 26.7892 178.19C26.2675 178.539 25.8609 179.034 25.6207 179.614C25.3806 180.193 25.3179 180.831 25.4403 181.447C25.5627 182.062 25.8648 182.627 26.3085 183.071C26.7522 183.515 27.3174 183.817 27.9328 183.939C28.5482 184.062 29.1861 183.999 29.7658 183.759C30.3455 183.519 30.8409 183.112 31.1895 182.59C31.5381 182.068 31.7242 181.455 31.7242 180.828C31.7242 179.986 31.39 179.179 30.795 178.584C30.2001 177.989 29.3931 177.655 28.5518 177.655Z" fill="#313131"/>
<path d="M53.9311 0C53.3036 0 52.6902 0.186052 52.1685 0.534642C51.6468 0.883231 51.2402 1.37868 51.0001 1.95836C50.7599 2.53805 50.6972 3.17593 50.8196 3.79132C50.942 4.40671 51.2442 4.97197 51.6878 5.41564C52.1315 5.85931 52.6967 6.16146 53.3121 6.28387C53.9275 6.40628 54.5654 6.34345 55.1451 6.10334C55.7248 5.86323 56.2202 5.45659 56.5688 4.93489C56.9174 4.41319 57.1035 3.79986 57.1035 3.17241C57.1035 2.33104 56.7693 1.5241 56.1743 0.92916C55.5794 0.334217 54.7725 0 53.9311 0Z" fill="#313131"/>
<path d="M53.9311 25.3794C53.3036 25.3794 52.6902 25.5654 52.1685 25.914C51.6468 26.2626 51.2402 26.7581 51.0001 27.3378C50.7599 27.9174 50.6972 28.5553 50.8196 29.1707C50.942 29.7861 51.2442 30.3514 51.6878 30.795C52.1315 31.2387 52.6967 31.5409 53.3121 31.6633C53.9275 31.7857 54.5654 31.7228 55.1451 31.4827C55.7248 31.2426 56.2202 30.836 56.5688 30.3143C56.9174 29.7926 57.1035 29.1793 57.1035 28.5518C57.1035 27.7104 56.7693 26.9035 56.1743 26.3086C55.5794 25.7136 54.7725 25.3794 53.9311 25.3794Z" fill="#313131"/>
<path d="M53.9311 50.7585C53.3036 50.7585 52.6902 50.9446 52.1685 51.2932C51.6468 51.6418 51.2402 52.1372 51.0001 52.7169C50.7599 53.2965 50.6972 53.9344 50.8196 54.5498C50.942 55.1652 51.2442 55.7304 51.6878 56.1741C52.1315 56.6178 52.6967 56.9199 53.3121 57.0423C53.9275 57.1647 54.5655 57.1019 55.1451 56.8618C55.7248 56.6217 56.2202 56.215 56.5688 55.6934C56.9174 55.1717 57.1035 54.5583 57.1035 53.9309C57.1035 53.0895 56.7693 52.2826 56.1743 51.6877C55.5794 51.0928 54.7725 50.7585 53.9311 50.7585Z" fill="#313131"/>
<path d="M53.9311 76.1379C53.3036 76.1379 52.6902 76.324 52.1685 76.6726C51.6468 77.0212 51.2402 77.5166 51.0001 78.0963C50.7599 78.676 50.6972 79.3139 50.8196 79.9293C50.942 80.5446 51.2442 81.1099 51.6878 81.5536C52.1315 81.9972 52.6967 82.2994 53.3121 82.4218C53.9275 82.5442 54.5654 82.4814 55.1451 82.2413C55.7248 82.0012 56.2202 81.5945 56.5688 81.0728C56.9174 80.5511 57.1035 79.9378 57.1035 79.3104C57.1035 78.469 56.7693 77.662 56.1743 77.0671C55.5794 76.4722 54.7725 76.1379 53.9311 76.1379Z" fill="#313131"/>
<path d="M53.9311 101.517C53.3036 101.517 52.6902 101.703 52.1685 102.052C51.6468 102.401 51.2402 102.896 51.0001 103.476C50.7599 104.055 50.6972 104.693 50.8196 105.309C50.942 105.924 51.2442 106.489 51.6878 106.933C52.1315 107.377 52.6967 107.679 53.3121 107.801C53.9275 107.924 54.5654 107.861 55.1451 107.621C55.7248 107.381 56.2202 106.974 56.5688 106.452C56.9174 105.931 57.1035 105.317 57.1035 104.69C57.1035 103.848 56.7693 103.041 56.1743 102.446C55.5794 101.852 54.7725 101.517 53.9311 101.517Z" fill="#313131"/>
<path d="M53.9311 126.896C53.3036 126.896 52.6902 127.083 52.1685 127.431C51.6468 127.78 51.2402 128.275 51.0001 128.855C50.7599 129.434 50.6972 130.072 50.8196 130.688C50.942 131.303 51.2442 131.868 51.6878 132.312C52.1315 132.756 52.6967 133.058 53.3121 133.18C53.9275 133.303 54.5655 133.24 55.1451 133C55.7248 132.76 56.2202 132.353 56.5688 131.831C56.9174 131.31 57.1035 130.696 57.1035 130.069C57.1035 129.227 56.7693 128.421 56.1743 127.826C55.5794 127.231 54.7725 126.896 53.9311 126.896Z" fill="#313131"/>
<path d="M53.9311 152.276C53.3036 152.276 52.6902 152.462 52.1685 152.811C51.6468 153.159 51.2402 153.655 51.0001 154.234C50.7599 154.814 50.6972 155.452 50.8196 156.067C50.942 156.683 51.2442 157.248 51.6878 157.692C52.1315 158.135 52.6967 158.437 53.3121 158.56C53.9275 158.682 54.5654 158.619 55.1451 158.379C55.7248 158.139 56.2202 157.732 56.5688 157.211C56.9174 156.689 57.1035 156.076 57.1035 155.448C57.1035 154.607 56.7693 153.8 56.1743 153.205C55.5794 152.61 54.7725 152.276 53.9311 152.276Z" fill="#313131"/>
<path d="M53.9311 177.655C53.3036 177.655 52.6902 177.841 52.1685 178.19C51.6468 178.539 51.2402 179.034 51.0001 179.614C50.7599 180.193 50.6972 180.831 50.8196 181.447C50.942 182.062 51.2442 182.627 51.6878 183.071C52.1315 183.515 52.6967 183.817 53.3121 183.939C53.9275 184.062 54.5654 183.999 55.1451 183.759C55.7248 183.519 56.2202 183.112 56.5688 182.59C56.9174 182.068 57.1035 181.455 57.1035 180.828C57.1035 179.986 56.7693 179.179 56.1743 178.584C55.5794 177.989 54.7725 177.655 53.9311 177.655Z" fill="#313131"/>
<path d="M79.3104 0C78.6829 0 78.0696 0.186052 77.5479 0.534642C77.0262 0.883231 76.6195 1.37868 76.3794 1.95836C76.1393 2.53805 76.0765 3.17593 76.1989 3.79132C76.3213 4.40671 76.6235 4.97197 77.0671 5.41564C77.5108 5.85931 78.076 6.16146 78.6914 6.28387C79.3068 6.40628 79.9448 6.34345 80.5244 6.10334C81.1041 5.86323 81.5995 5.45659 81.9481 4.93489C82.2967 4.41319 82.4828 3.79986 82.4828 3.17241C82.4828 2.33104 82.1486 1.5241 81.5536 0.92916C80.9587 0.334217 80.1518 0 79.3104 0Z" fill="#313131"/>
<path d="M79.3104 25.3794C78.6829 25.3794 78.0696 25.5654 77.5479 25.914C77.0262 26.2626 76.6195 26.7581 76.3794 27.3378C76.1393 27.9174 76.0765 28.5553 76.1989 29.1707C76.3213 29.7861 76.6235 30.3514 77.0671 30.795C77.5108 31.2387 78.076 31.5409 78.6914 31.6633C79.3068 31.7857 79.9448 31.7228 80.5244 31.4827C81.1041 31.2426 81.5995 30.836 81.9481 30.3143C82.2967 29.7926 82.4828 29.1793 82.4828 28.5518C82.4828 27.7104 82.1486 26.9035 81.5536 26.3086C80.9587 25.7136 80.1518 25.3794 79.3104 25.3794Z" fill="#313131"/>
<path d="M79.3104 50.7585C78.683 50.7585 78.0696 50.9446 77.5479 51.2932C77.0262 51.6418 76.6195 52.1372 76.3794 52.7169C76.1393 53.2965 76.0765 53.9344 76.1989 54.5498C76.3213 55.1652 76.6235 55.7304 77.0671 56.1741C77.5108 56.6178 78.076 56.9199 78.6914 57.0423C79.3068 57.1647 79.9448 57.1019 80.5244 56.8618C81.1041 56.6217 81.5995 56.215 81.9481 55.6934C82.2967 55.1717 82.4828 54.5583 82.4828 53.9309C82.4828 53.0895 82.1486 52.2826 81.5537 51.6877C80.9587 51.0928 80.1518 50.7585 79.3104 50.7585Z" fill="#313131"/>
<path d="M79.3104 76.1379C78.6829 76.1379 78.0696 76.324 77.5479 76.6726C77.0262 77.0212 76.6195 77.5166 76.3794 78.0963C76.1393 78.676 76.0765 79.3139 76.1989 79.9293C76.3213 80.5446 76.6235 81.1099 77.0671 81.5536C77.5108 81.9972 78.076 82.2994 78.6914 82.4218C79.3068 82.5442 79.9448 82.4814 80.5244 82.2413C81.1041 82.0012 81.5995 81.5945 81.9481 81.0728C82.2967 80.5511 82.4828 79.9378 82.4828 79.3104C82.4828 78.469 82.1486 77.662 81.5536 77.0671C80.9587 76.4722 80.1518 76.1379 79.3104 76.1379Z" fill="#313131"/>
<path d="M79.3104 101.517C78.6829 101.517 78.0696 101.703 77.5479 102.052C77.0262 102.401 76.6195 102.896 76.3794 103.476C76.1393 104.055 76.0765 104.693 76.1989 105.309C76.3213 105.924 76.6235 106.489 77.0671 106.933C77.5108 107.377 78.076 107.679 78.6914 107.801C79.3068 107.924 79.9448 107.861 80.5244 107.621C81.1041 107.381 81.5995 106.974 81.9481 106.452C82.2967 105.931 82.4828 105.317 82.4828 104.69C82.4828 103.848 82.1486 103.041 81.5536 102.446C80.9587 101.852 80.1518 101.517 79.3104 101.517Z" fill="#313131"/>
<path d="M79.3104 126.896C78.683 126.896 78.0696 127.083 77.5479 127.431C77.0262 127.78 76.6195 128.275 76.3794 128.855C76.1393 129.434 76.0765 130.072 76.1989 130.688C76.3213 131.303 76.6235 131.868 77.0671 132.312C77.5108 132.756 78.076 133.058 78.6914 133.18C79.3068 133.303 79.9448 133.24 80.5244 133C81.1041 132.76 81.5995 132.353 81.9481 131.831C82.2967 131.31 82.4828 130.696 82.4828 130.069C82.4828 129.227 82.1486 128.421 81.5537 127.826C80.9587 127.231 80.1518 126.896 79.3104 126.896Z" fill="#313131"/>
<path d="M79.3104 152.276C78.6829 152.276 78.0696 152.462 77.5479 152.811C77.0262 153.159 76.6195 153.655 76.3794 154.234C76.1393 154.814 76.0765 155.452 76.1989 156.067C76.3213 156.683 76.6235 157.248 77.0671 157.692C77.5108 158.135 78.076 158.437 78.6914 158.56C79.3068 158.682 79.9448 158.619 80.5244 158.379C81.1041 158.139 81.5995 157.732 81.9481 157.211C82.2967 156.689 82.4828 156.076 82.4828 155.448C82.4828 154.607 82.1486 153.8 81.5536 153.205C80.9587 152.61 80.1518 152.276 79.3104 152.276Z" fill="#313131"/>
<path d="M79.3104 177.655C78.6829 177.655 78.0696 177.841 77.5479 178.19C77.0262 178.539 76.6195 179.034 76.3794 179.614C76.1393 180.193 76.0765 180.831 76.1989 181.447C76.3213 182.062 76.6235 182.627 77.0671 183.071C77.5108 183.515 78.076 183.817 78.6914 183.939C79.3068 184.062 79.9448 183.999 80.5244 183.759C81.1041 183.519 81.5995 183.112 81.9481 182.59C82.2967 182.068 82.4828 181.455 82.4828 180.828C82.4828 179.986 82.1486 179.179 81.5536 178.584C80.9587 177.989 80.1518 177.655 79.3104 177.655Z" fill="#313131"/>
<path d="M104.69 0C104.062 0 103.449 0.186052 102.927 0.534642C102.405 0.883231 101.999 1.37868 101.759 1.95836C101.519 2.53805 101.456 3.17593 101.578 3.79132C101.701 4.40671 102.003 4.97197 102.446 5.41564C102.89 5.85931 103.455 6.16146 104.071 6.28387C104.686 6.40628 105.324 6.34345 105.904 6.10334C106.483 5.86323 106.979 5.45659 107.327 4.93489C107.676 4.41319 107.862 3.79986 107.862 3.17241C107.862 2.33104 107.528 1.5241 106.933 0.92916C106.338 0.334217 105.531 0 104.69 0Z" fill="#313131"/>
<path d="M104.69 25.3794C104.062 25.3794 103.449 25.5654 102.927 25.914C102.405 26.2626 101.999 26.7581 101.759 27.3378C101.519 27.9174 101.456 28.5553 101.578 29.1707C101.701 29.7861 102.003 30.3514 102.446 30.795C102.89 31.2387 103.455 31.5409 104.071 31.6633C104.686 31.7857 105.324 31.7228 105.904 31.4827C106.483 31.2426 106.979 30.836 107.327 30.3143C107.676 29.7926 107.862 29.1793 107.862 28.5518C107.862 27.7104 107.528 26.9035 106.933 26.3086C106.338 25.7136 105.531 25.3794 104.69 25.3794Z" fill="#313131"/>
<path d="M104.69 50.7585C104.062 50.7585 103.449 50.9446 102.927 51.2932C102.405 51.6418 101.999 52.1372 101.759 52.7169C101.519 53.2965 101.456 53.9344 101.578 54.5498C101.701 55.1652 102.003 55.7304 102.446 56.1741C102.89 56.6178 103.455 56.9199 104.071 57.0423C104.686 57.1647 105.324 57.1019 105.904 56.8618C106.483 56.6217 106.979 56.215 107.327 55.6934C107.676 55.1717 107.862 54.5583 107.862 53.9309C107.862 53.0895 107.528 52.2826 106.933 51.6877C106.338 51.0928 105.531 50.7585 104.69 50.7585Z" fill="#313131"/>
<path d="M104.69 76.1379C104.062 76.1379 103.449 76.324 102.927 76.6726C102.405 77.0212 101.999 77.5166 101.759 78.0963C101.519 78.676 101.456 79.3139 101.578 79.9293C101.701 80.5446 102.003 81.1099 102.446 81.5536C102.89 81.9972 103.455 82.2994 104.071 82.4218C104.686 82.5442 105.324 82.4814 105.904 82.2413C106.483 82.0012 106.979 81.5945 107.327 81.0728C107.676 80.5511 107.862 79.9378 107.862 79.3104C107.862 78.469 107.528 77.662 106.933 77.0671C106.338 76.4722 105.531 76.1379 104.69 76.1379Z" fill="#313131"/>
<path d="M104.69 101.517C104.062 101.517 103.449 101.703 102.927 102.052C102.405 102.401 101.999 102.896 101.759 103.476C101.519 104.055 101.456 104.693 101.578 105.309C101.701 105.924 102.003 106.489 102.446 106.933C102.89 107.377 103.455 107.679 104.071 107.801C104.686 107.924 105.324 107.861 105.904 107.621C106.483 107.381 106.979 106.974 107.327 106.452C107.676 105.931 107.862 105.317 107.862 104.69C107.862 103.848 107.528 103.041 106.933 102.446C106.338 101.852 105.531 101.517 104.69 101.517Z" fill="#313131"/>
<path d="M104.69 126.896C104.062 126.896 103.449 127.083 102.927 127.431C102.405 127.78 101.999 128.275 101.759 128.855C101.519 129.434 101.456 130.072 101.578 130.688C101.701 131.303 102.003 131.868 102.446 132.312C102.89 132.756 103.455 133.058 104.071 133.18C104.686 133.303 105.324 133.24 105.904 133C106.483 132.76 106.979 132.353 107.327 131.831C107.676 131.31 107.862 130.696 107.862 130.069C107.862 129.227 107.528 128.421 106.933 127.826C106.338 127.231 105.531 126.896 104.69 126.896Z" fill="#313131"/>
<path d="M104.69 152.276C104.062 152.276 103.449 152.462 102.927 152.811C102.405 153.159 101.999 153.655 101.759 154.234C101.519 154.814 101.456 155.452 101.578 156.067C101.701 156.683 102.003 157.248 102.446 157.692C102.89 158.135 103.455 158.437 104.071 158.56C104.686 158.682 105.324 158.619 105.904 158.379C106.483 158.139 106.979 157.732 107.327 157.211C107.676 156.689 107.862 156.076 107.862 155.448C107.862 154.607 107.528 153.8 106.933 153.205C106.338 152.61 105.531 152.276 104.69 152.276Z" fill="#313131"/>
<path d="M104.69 177.655C104.062 177.655 103.449 177.841 102.927 178.19C102.405 178.539 101.999 179.034 101.759 179.614C101.519 180.193 101.456 180.831 101.578 181.447C101.701 182.062 102.003 182.627 102.446 183.071C102.89 183.515 103.455 183.817 104.071 183.939C104.686 184.062 105.324 183.999 105.904 183.759C106.483 183.519 106.979 183.112 107.327 182.59C107.676 182.068 107.862 181.455 107.862 180.828C107.862 179.986 107.528 179.179 106.933 178.584C106.338 177.989 105.531 177.655 104.69 177.655Z" fill="#313131"/>
<path d="M130.069 0C129.442 0 128.828 0.186052 128.306 0.534642C127.785 0.883231 127.378 1.37868 127.138 1.95836C126.898 2.53805 126.835 3.17593 126.958 3.79132C127.08 4.40671 127.382 4.97197 127.826 5.41564C128.269 5.85931 128.835 6.16146 129.45 6.28387C130.065 6.40628 130.703 6.34345 131.283 6.10334C131.863 5.86323 132.358 5.45659 132.707 4.93489C133.055 4.41319 133.241 3.79986 133.241 3.17241C133.241 2.33104 132.907 1.5241 132.312 0.92916C131.717 0.334217 130.91 0 130.069 0Z" fill="#313131"/>
<path d="M130.069 25.3794C129.442 25.3794 128.828 25.5654 128.306 25.914C127.785 26.2626 127.378 26.7581 127.138 27.3378C126.898 27.9174 126.835 28.5553 126.958 29.1707C127.08 29.7861 127.382 30.3514 127.826 30.795C128.269 31.2387 128.835 31.5409 129.45 31.6633C130.065 31.7857 130.703 31.7228 131.283 31.4827C131.863 31.2426 132.358 30.836 132.707 30.3143C133.055 29.7926 133.241 29.1793 133.241 28.5518C133.241 27.7104 132.907 26.9035 132.312 26.3086C131.717 25.7136 130.91 25.3794 130.069 25.3794Z" fill="#313131"/>
<path d="M130.069 50.7585C129.442 50.7585 128.828 50.9446 128.306 51.2932C127.785 51.6418 127.378 52.1372 127.138 52.7169C126.898 53.2965 126.835 53.9344 126.958 54.5498C127.08 55.1652 127.382 55.7304 127.826 56.1741C128.269 56.6178 128.835 56.9199 129.45 57.0423C130.065 57.1647 130.703 57.1019 131.283 56.8618C131.863 56.6217 132.358 56.215 132.707 55.6934C133.055 55.1717 133.241 54.5583 133.241 53.9309C133.241 53.0895 132.907 52.2826 132.312 51.6877C131.717 51.0928 130.91 50.7585 130.069 50.7585Z" fill="#313131"/>
<path d="M130.069 76.1379C129.442 76.1379 128.828 76.324 128.306 76.6726C127.785 77.0212 127.378 77.5166 127.138 78.0963C126.898 78.676 126.835 79.3139 126.958 79.9293C127.08 80.5446 127.382 81.1099 127.826 81.5536C128.269 81.9972 128.835 82.2994 129.45 82.4218C130.065 82.5442 130.703 82.4814 131.283 82.2413C131.863 82.0012 132.358 81.5945 132.707 81.0728C133.055 80.5511 133.241 79.9378 133.241 79.3104C133.241 78.469 132.907 77.662 132.312 77.0671C131.717 76.4722 130.91 76.1379 130.069 76.1379Z" fill="#313131"/>
<path d="M130.069 101.517C129.442 101.517 128.828 101.703 128.306 102.052C127.785 102.401 127.378 102.896 127.138 103.476C126.898 104.055 126.835 104.693 126.958 105.309C127.08 105.924 127.382 106.489 127.826 106.933C128.269 107.377 128.835 107.679 129.45 107.801C130.065 107.924 130.703 107.861 131.283 107.621C131.863 107.381 132.358 106.974 132.707 106.452C133.055 105.931 133.241 105.317 133.241 104.69C133.241 103.848 132.907 103.041 132.312 102.446C131.717 101.852 130.91 101.517 130.069 101.517Z" fill="#313131"/>
<path d="M130.069 126.896C129.442 126.896 128.828 127.083 128.306 127.431C127.785 127.78 127.378 128.275 127.138 128.855C126.898 129.434 126.835 130.072 126.958 130.688C127.08 131.303 127.382 131.868 127.826 132.312C128.269 132.756 128.835 133.058 129.45 133.18C130.065 133.303 130.703 133.24 131.283 133C131.863 132.76 132.358 132.353 132.707 131.831C133.055 131.31 133.241 130.696 133.241 130.069C133.241 129.227 132.907 128.421 132.312 127.826C131.717 127.231 130.91 126.896 130.069 126.896Z" fill="#313131"/>
<path d="M130.069 152.276C129.442 152.276 128.828 152.462 128.306 152.811C127.785 153.159 127.378 153.655 127.138 154.234C126.898 154.814 126.835 155.452 126.958 156.067C127.08 156.683 127.382 157.248 127.826 157.692C128.269 158.135 128.835 158.437 129.45 158.56C130.065 158.682 130.703 158.619 131.283 158.379C131.863 158.139 132.358 157.732 132.707 157.211C133.055 156.689 133.241 156.076 133.241 155.448C133.241 154.607 132.907 153.8 132.312 153.205C131.717 152.61 130.91 152.276 130.069 152.276Z" fill="#313131"/>
<path d="M130.069 177.655C129.442 177.655 128.828 177.841 128.306 178.19C127.785 178.539 127.378 179.034 127.138 179.614C126.898 180.193 126.835 180.831 126.958 181.447C127.08 182.062 127.382 182.627 127.826 183.071C128.269 183.515 128.835 183.817 129.45 183.939C130.065 184.062 130.703 183.999 131.283 183.759C131.863 183.519 132.358 183.112 132.707 182.59C133.055 182.068 133.241 181.455 133.241 180.828C133.241 179.986 132.907 179.179 132.312 178.584C131.717 177.989 130.91 177.655 130.069 177.655Z" fill="#313131"/>
<path d="M155.448 0C154.821 0 154.207 0.186052 153.686 0.534642C153.164 0.883231 152.757 1.37868 152.517 1.95836C152.277 2.53805 152.214 3.17593 152.337 3.79132C152.459 4.40671 152.761 4.97197 153.205 5.41564C153.649 5.85931 154.214 6.16146 154.829 6.28387C155.445 6.40628 156.083 6.34345 156.662 6.10334C157.242 5.86323 157.737 5.45659 158.086 4.93489C158.435 4.41319 158.621 3.79986 158.621 3.17241C158.621 2.33104 158.287 1.5241 157.692 0.92916C157.097 0.334217 156.29 0 155.448 0Z" fill="#313131"/>
<path d="M155.448 25.3794C154.821 25.3794 154.207 25.5654 153.686 25.914C153.164 26.2626 152.757 26.7581 152.517 27.3378C152.277 27.9174 152.214 28.5553 152.337 29.1707C152.459 29.7861 152.761 30.3514 153.205 30.795C153.649 31.2387 154.214 31.5409 154.829 31.6633C155.445 31.7857 156.083 31.7228 156.662 31.4827C157.242 31.2426 157.737 30.836 158.086 30.3143C158.435 29.7926 158.621 29.1793 158.621 28.5518C158.621 27.7104 158.287 26.9035 157.692 26.3086C157.097 25.7136 156.29 25.3794 155.448 25.3794Z" fill="#313131"/>
<path d="M155.448 50.7585C154.821 50.7585 154.207 50.9446 153.686 51.2932C153.164 51.6418 152.757 52.1372 152.517 52.7169C152.277 53.2965 152.214 53.9344 152.337 54.5498C152.459 55.1652 152.761 55.7304 153.205 56.1741C153.649 56.6178 154.214 56.9199 154.829 57.0423C155.445 57.1647 156.083 57.1019 156.662 56.8618C157.242 56.6217 157.737 56.215 158.086 55.6934C158.435 55.1717 158.621 54.5583 158.621 53.9309C158.621 53.0895 158.287 52.2826 157.692 51.6877C157.097 51.0928 156.29 50.7585 155.448 50.7585Z" fill="#313131"/>
<path d="M155.448 76.1379C154.821 76.1379 154.207 76.324 153.686 76.6726C153.164 77.0212 152.757 77.5166 152.517 78.0963C152.277 78.676 152.214 79.3139 152.337 79.9293C152.459 80.5446 152.761 81.1099 153.205 81.5536C153.649 81.9972 154.214 82.2994 154.829 82.4218C155.445 82.5442 156.083 82.4814 156.662 82.2413C157.242 82.0012 157.737 81.5945 158.086 81.0728C158.435 80.5511 158.621 79.9378 158.621 79.3104C158.621 78.469 158.287 77.662 157.692 77.0671C157.097 76.4722 156.29 76.1379 155.448 76.1379Z" fill="#313131"/>
<path d="M155.448 101.517C154.821 101.517 154.207 101.703 153.686 102.052C153.164 102.401 152.757 102.896 152.517 103.476C152.277 104.055 152.214 104.693 152.337 105.309C152.459 105.924 152.761 106.489 153.205 106.933C153.649 107.377 154.214 107.679 154.829 107.801C155.445 107.924 156.083 107.861 156.662 107.621C157.242 107.381 157.737 106.974 158.086 106.452C158.435 105.931 158.621 105.317 158.621 104.69C158.621 103.848 158.287 103.041 157.692 102.446C157.097 101.852 156.29 101.517 155.448 101.517Z" fill="#313131"/>
<path d="M155.448 126.896C154.821 126.896 154.207 127.083 153.686 127.431C153.164 127.78 152.757 128.275 152.517 128.855C152.277 129.434 152.214 130.072 152.337 130.688C152.459 131.303 152.761 131.868 153.205 132.312C153.649 132.756 154.214 133.058 154.829 133.18C155.445 133.303 156.083 133.24 156.662 133C157.242 132.76 157.737 132.353 158.086 131.831C158.435 131.31 158.621 130.696 158.621 130.069C158.621 129.227 158.287 128.421 157.692 127.826C157.097 127.231 156.29 126.896 155.448 126.896Z" fill="#313131"/>
<path d="M155.448 152.276C154.821 152.276 154.207 152.462 153.686 152.811C153.164 153.159 152.757 153.655 152.517 154.234C152.277 154.814 152.214 155.452 152.337 156.067C152.459 156.683 152.761 157.248 153.205 157.692C153.649 158.135 154.214 158.437 154.829 158.56C155.445 158.682 156.083 158.619 156.662 158.379C157.242 158.139 157.737 157.732 158.086 157.211C158.435 156.689 158.621 156.076 158.621 155.448C158.621 154.607 158.287 153.8 157.692 153.205C157.097 152.61 156.29 152.276 155.448 152.276Z" fill="#313131"/>
<path d="M155.448 177.655C154.821 177.655 154.207 177.841 153.686 178.19C153.164 178.539 152.757 179.034 152.517 179.614C152.277 180.193 152.214 180.831 152.337 181.447C152.459 182.062 152.761 182.627 153.205 183.071C153.649 183.515 154.214 183.817 154.829 183.939C155.445 184.062 156.083 183.999 156.662 183.759C157.242 183.519 157.737 183.112 158.086 182.59C158.435 182.068 158.621 181.455 158.621 180.828C158.621 179.986 158.287 179.179 157.692 178.584C157.097 177.989 156.29 177.655 155.448 177.655Z" fill="#313131"/>
</svg>
