<svg width="105" height="20" viewBox="0 0 105 20" fill="none" xmlns="http://www.w3.org/2000/svg">
<path d="M0 10.1008C0 4.00078 3.3 0.300781 8.7 0.300781C12.8 0.300781 16.1 2.80078 16.7 6.50078C16.8 6.90078 16.5 7.20078 16.1 7.20078H13.5C13.2 7.20078 13 7.00078 12.9 6.70078C12.4 4.80078 10.8 3.60078 8.7 3.60078C5.8 3.60078 4 6.10078 4 10.1008C4 14.1008 5.8 16.6008 8.8 16.6008C10.9 16.6008 12.4 15.5008 13 13.7008C13.1 13.4008 13.3 13.2008 13.6 13.2008H16.2C16.6 13.2008 16.9 13.6008 16.8 13.9008C16.2 17.5008 13 19.9008 8.8 19.9008C3.3 19.9008 0 16.1008 0 10.1008Z" fill="white"/>
<path d="M24.2997 19.401H21.3997C21.0997 19.401 20.8997 19.201 20.8997 18.901V1.60104C20.8997 1.20104 21.2997 0.801038 21.6997 0.801038H28.6997C32.7997 0.801038 35.2997 3.10104 35.2997 6.70104C35.2997 8.80104 34.2997 10.701 32.5997 11.701C32.1997 11.901 32.0997 12.401 32.2997 12.701L35.3997 18.601C35.5997 18.901 35.2997 19.301 34.9997 19.301H31.6997C31.4997 19.301 31.2997 19.201 31.1997 19.001L28.2997 13.001C28.1997 12.701 27.8997 12.601 27.5997 12.601H25.2997C24.9997 12.601 24.7997 12.801 24.7997 13.101V19.001C24.8997 19.201 24.5997 19.401 24.2997 19.401ZM24.8997 9.20104C24.8997 9.50104 25.0997 9.70104 25.3997 9.70104H28.3997C30.3997 9.70104 31.4997 8.60104 31.4997 6.80104C31.4997 5.00104 30.2997 3.90104 28.3997 3.90104H25.4997C25.1997 3.90104 24.9997 4.10104 24.9997 4.40104V9.20104H24.8997Z" fill="white"/>
<path d="M51.4998 19.401H40.4998C40.0998 19.401 39.7998 19.101 39.7998 18.701V1.50104C39.7998 1.10104 40.0998 0.801038 40.4998 0.801038H51.4998C51.8998 0.801038 52.1998 1.10104 52.1998 1.50104V3.40104C52.1998 3.80104 51.8998 4.10104 51.4998 4.10104H44.1998C43.8998 4.10104 43.6998 4.30104 43.6998 4.60104V8.00104C43.6998 8.30104 43.8998 8.50104 44.1998 8.50104H50.9998C51.3998 8.50104 51.6998 8.80104 51.6998 9.20104V10.901C51.6998 11.301 51.3998 11.601 50.9998 11.601H44.1998C43.8998 11.601 43.6998 11.801 43.6998 12.101V15.901C43.6998 16.201 43.8998 16.401 44.1998 16.401H51.4998C51.8998 16.401 52.1998 16.701 52.1998 17.101V19.001C52.1998 19.101 51.8998 19.401 51.4998 19.401Z" fill="white"/>
<path d="M66.9999 14.901H61.2999C60.9999 14.901 60.7999 15.101 60.6999 15.301L59.5999 19.001C59.4999 19.301 59.2999 19.401 58.9999 19.401H56.3999C55.9999 19.401 55.6999 19.001 55.7999 18.601L61.7999 1.20104C61.8999 1.00104 62.0999 0.801038 62.3999 0.801038H66.0999C66.3999 0.801038 66.5999 1.00104 66.6999 1.20104L72.6999 18.601C72.7999 19.001 72.4999 19.401 72.0999 19.401H69.1999C68.8999 19.401 68.6999 19.201 68.5999 19.001L67.4999 15.301C67.4999 15.101 67.1999 14.901 66.9999 14.901ZM62.0999 12.001H66.1999C66.3999 12.001 66.4999 11.801 66.4999 11.601L64.2999 4.60104H64.0999L61.8999 11.601C61.7999 11.801 61.8999 12.001 62.0999 12.001Z" fill="white"/>
<path d="M79.0001 18.7014V4.50143C79.0001 4.20143 78.8001 4.00143 78.5001 4.00143H74.1001C73.7001 4.00143 73.3001 3.70143 73.3001 3.20143V1.50143C73.3001 1.10143 73.6001 0.701427 74.1001 0.701427H87.7001C88.1001 0.701427 88.5001 1.00143 88.5001 1.50143V3.20143C88.5001 3.60143 88.2001 4.00143 87.7001 4.00143H83.3001C83.0001 4.00143 82.8001 4.20143 82.8001 4.50143V18.8014C82.8001 19.2014 82.5001 19.5014 82.1001 19.5014H79.6001C79.3001 19.4014 79.0001 19.1014 79.0001 18.7014Z" fill="white"/>
<path d="M103.8 19.401H92.7999C92.3999 19.401 92.0999 19.101 92.0999 18.701V1.50104C92.0999 1.10104 92.3999 0.801038 92.7999 0.801038H103.8C104.2 0.801038 104.5 1.10104 104.5 1.50104V3.40104C104.5 3.80104 104.2 4.10104 103.8 4.10104H96.4999C96.1999 4.10104 95.9999 4.30104 95.9999 4.60104V8.00104C95.9999 8.30104 96.1999 8.50104 96.4999 8.50104H103.3C103.7 8.50104 104 8.80104 104 9.20104V10.901C104 11.301 103.7 11.601 103.3 11.601H96.4999C96.1999 11.601 95.9999 11.801 95.9999 12.101V15.901C95.9999 16.201 96.1999 16.401 96.4999 16.401H103.8C104.2 16.401 104.5 16.701 104.5 17.101V19.001C104.5 19.101 104.2 19.401 103.8 19.401Z" fill="white"/>
</svg>
