<svg width="24" height="24" viewBox="0 0 24 24" fill="none" xmlns="http://www.w3.org/2000/svg">
<path fill-rule="evenodd" clip-rule="evenodd" d="M7.5 1.25C8.05228 1.25 8.5 1.69772 8.5 2.25V2.75001L15.5 2.75003V2.25C15.5 1.69772 15.9477 1.25 16.5 1.25C17.0523 1.25 17.5 1.69771 17.5 2.25V2.75003L18.75 2.75003C20.9591 2.75004 22.75 4.5409 22.75 6.75003V18.75C22.75 20.9591 20.9591 22.75 18.75 22.75L5.25 22.75C3.04086 22.75 1.25 20.9591 1.25 18.75L1.25 9.00019L1.25 6.75001C1.25 4.54086 3.04087 2.75 5.25001 2.75001L6.5 2.75001V2.25C6.5 1.69772 6.94771 1.25 7.5 1.25ZM6.5 4.75001L5.25 4.75001C4.14543 4.75 3.25 5.64543 3.25 6.75001V8H20.75V6.75003C20.75 5.64546 19.8546 4.75003 18.75 4.75003L17.5 4.75003V5.25C17.5 5.80228 17.0523 6.25 16.5 6.25C15.9477 6.25 15.5 5.80229 15.5 5.25V4.75003L8.5 4.75001V5.25C8.5 5.80228 8.05228 6.25 7.5 6.25C6.94771 6.25 6.5 5.80228 6.5 5.25V4.75001ZM20.75 10H3.25L3.25 18.75C3.25 19.8546 4.14543 20.75 5.25 20.75L18.75 20.75C19.8546 20.75 20.75 19.8546 20.75 18.75V10Z" fill="#1E212C"/>
</svg>
