<svg width="16" height="12" viewBox="0 0 16 12" fill="none" xmlns="http://www.w3.org/2000/svg">
<path fill-rule="evenodd" clip-rule="evenodd" d="M15.1663 9.99935V2.66602C15.1663 1.56145 14.2709 0.666016 13.1663 0.666016L2.83301 0.666026C1.72844 0.666027 0.833008 1.56146 0.833008 2.66603V9.99934C0.833008 11.1039 1.72844 11.9993 2.83301 11.9993L13.1663 11.9993C14.2709 11.9993 15.1663 11.1039 15.1663 9.99935ZM13.833 4.17232V9.99935C13.833 10.3675 13.5345 10.666 13.1663 10.666L2.83301 10.666C2.46482 10.666 2.16634 10.3675 2.16634 9.99934L2.16634 4.17223L6.87512 7.3742C7.55384 7.83573 8.44564 7.83573 9.12436 7.3742L13.833 4.17232ZM13.8254 2.56509C13.7768 2.24479 13.5002 1.99935 13.1663 1.99935L2.83301 1.99936C2.49916 1.99936 2.22262 2.24476 2.17394 2.56501L7.62487 6.27164C7.85111 6.42548 8.14837 6.42548 8.37461 6.27164L13.8254 2.56509Z" fill="white"/>
</svg>
