<svg width="170" height="27" viewBox="0 0 170 27" fill="none" xmlns="http://www.w3.org/2000/svg">
<path d="M63.0859 0.174407C32.8372 -0.639979 10.0344 3.81006 9.01642 11.285C8.49289 15.1242 22.1048 21.6975 30.365 23.1808C23.0064 24.6351 13.1465 25.4204 0.814386 25.3913L0 26.0021C33.1862 27.7472 56.1927 24.8969 57.1816 16.8693C57.8214 11.6631 40.3121 5.67152 40.3121 5.67152L39.585 5.84603C39.585 5.84603 46.2164 8.98724 46.2164 13.0883C46.2164 17.451 41.2719 20.8249 31.5866 22.9191C25.1296 20.5922 21.3486 17.7419 21.4067 14.6589C21.5231 7.4748 36.4147 1.86135 62.6496 1.10514L63.0859 0.174407Z" fill="black"/>
<path d="M70.0082 21.1449C70.9098 21.1449 71.8696 20.4178 72.1605 19.5161L72.7422 17.7419H78.7919L76.1451 25.8276H57.2397L65.6745 0.0581055H84.5799L82.3403 6.89313H76.2906L76.3778 6.63137C76.6687 5.72973 76.1742 5.00259 75.3017 5.00259H72.5095H72.4804C71.5788 5.00259 70.648 5.75881 70.3572 6.63137L66.1398 19.5452C65.849 20.3887 66.3434 21.174 67.2451 21.174H70.0082V21.1449Z" fill="black"/>
<path d="M85.1325 0.116455H91.9093L93.3345 8.493L99.4715 0.116455H106.539L94.6433 16.2878L91.6185 25.8569H85.0161L87.8955 16.2878L85.1325 0.116455Z" fill="black"/>
<path d="M141.267 20.9704H131.174C131.174 20.9704 129.197 20.8832 129.778 19.0508L131 15.3279H141.82L143.39 10.5288H132.541C132.541 10.5288 133.181 8.60922 133.85 6.57325C134.49 4.59546 136.439 4.79906 136.439 4.79906H145.252L146.822 0H129.226L120.791 25.7695H139.696L141.267 20.9704ZM154.181 17.8583C154.006 17.8583 153.919 18.0619 153.715 18.3528L148.684 25.7986H140.802L149.702 12.8266L148.742 0.0290781H155.664L156.159 7.00953C156.159 7.12587 156.159 7.32947 156.246 7.32947C156.304 7.32947 156.333 7.21313 156.449 7.09679L161.423 0.0290781H169.421L160.638 11.9831L161.888 25.7986H155.053L154.326 18.4109C154.326 18.0328 154.297 17.8583 154.181 17.8583ZM112.094 20.9414C112.967 20.9414 114.363 20.3015 114.77 19.3708L115.236 18.0038C115.788 16.2877 116.428 15.0661 113.927 15.0661H109.39L107.441 20.9704L112.094 20.9414ZM121.373 0.0290781C124.805 0.0290781 125.939 2.44316 125.037 5.20625L123.583 9.42361C122.682 11.8668 119.977 12.4485 119.977 12.4485C123.234 13.0302 122.013 16.055 122.013 16.055C121.664 17.3057 121.46 18.0037 121.053 19.2253C120.5 20.9414 120.064 22.3374 119.54 23.5881C119.046 24.7806 117.388 25.7695 115.178 25.7695H98.9771L107.412 0L121.373 0.0290781ZM116.05 4.82814H112.734L110.902 10.4416H114.101C116.515 10.5288 117.563 9.51086 118.115 7.79484L118.61 6.39875C118.9 5.52619 118.58 4.82814 117.912 4.82814H116.05Z" fill="black"/>
</svg>
