<svg width="226" height="44" viewBox="0 0 226 44" fill="none" xmlns="http://www.w3.org/2000/svg">
<path fill-rule="evenodd" clip-rule="evenodd" d="M40.7527 9.90724C44.0469 9.96737 44.0096 10.1297 46.1697 8.74301C47.648 7.80262 49.0952 6.81426 50.5091 5.77951C52.7161 4.16186 52.9374 3.47751 49.0274 2.60434C45.845 1.89353 44.8804 1.63735 41.5128 3.55689C36.821 6.23173 23.0968 15.8342 9.126 29.17C5.52747 29.8038 2.56397 31.1809 1.40095 32.0264C0.236716 32.8743 0.152526 33.0932 1.29511 34.7794C2.85623 37.0814 2.91637 37.1332 5.50221 35.8907C6.87812 35.2281 8.91553 34.0374 10.7148 32.6602C18.6527 31.1809 36.3279 31.0751 58.1307 37.2125C60.0635 37.7574 60.5987 38.058 59.1891 34.9899C57.8397 32.0517 57.9984 32.2104 54.2147 31.2855C40.1513 27.8446 25.1089 27.3695 16.4301 28.215C25.2136 20.9145 32.0738 15.0934 40.7527 9.90724Z" fill="black"/>
<path fill-rule="evenodd" clip-rule="evenodd" d="M61.0774 5.1445C59.5283 5.55222 54.9387 6.94377 52.9278 7.5788C50.9168 8.21384 50.7244 8.21504 50.811 10.1189C50.9168 12.4474 51.1285 12.4474 52.5044 11.9182C53.8803 11.389 60.5747 9.30831 62.5062 8.75626C63.988 8.3329 64.0168 7.92518 63.7763 6.53364C63.4191 4.46978 63.0895 4.61531 61.0774 5.1445ZM45.4397 13.2412C43.9315 14.4319 38.0574 19.5915 34.6441 23.4811C33.712 24.5431 33.6915 24.1955 34.5647 26.8944C34.9796 28.1765 35.3573 30.0708 37.1842 28.0058C39.0099 25.9407 47.186 19.1153 48.7736 17.8452C50.3612 16.5751 50.3768 16.3274 49.0117 13.9556C47.5047 11.3373 46.9479 12.0505 45.4397 13.2412Z" fill="black"/>
<path fill-rule="evenodd" clip-rule="evenodd" d="M77.3345 1.89107C73.0481 2.12921 69.7923 4.43121 65.1101 8.55894C62.7007 10.6762 60.352 12.8616 58.067 15.1125C55.2803 14.3789 52.9061 13.6212 52.4094 13.4011C51.695 13.0836 51.2981 13.1629 51.4569 14.1949C51.6926 15.7295 52.0967 17.2173 54.8353 18.3996C52.6279 20.7132 50.4952 23.0971 48.4405 25.5473C47.5637 26.5925 47.5673 26.7356 48.758 28.5637C49.8524 30.2415 50.4406 29.9288 51.1393 29.1976C53.5159 26.7127 56.649 23.297 60.1357 19.8524C62.398 20.3347 65.0007 20.6282 66.4463 20.8146C65.8603 21.5516 65.3002 22.309 64.7673 23.0854C63.8064 24.4925 63.9735 25.4667 65.0055 27.1325C66.0374 28.8007 67.3075 30.2283 71.1177 28.7201C74.9267 27.2119 78.2606 24.9099 79.0556 23.6386C79.8494 22.3697 79.9288 22.1304 77.9443 22.6872C75.9598 23.2441 73.4197 24.4324 69.4507 24.9893C70.0088 23.9224 71.0491 22.5983 72.2687 21.2572C75.6134 21.4088 80.5037 21.3378 84.5328 19.3533C87.1126 18.082 86.5967 15.7812 85.0872 13.5586C83.5802 11.336 82.0708 9.74842 77.468 11.6535C74.8233 12.748 72.1015 14.7878 69.6456 17.2269C67.8198 17.0092 65.1955 16.7037 63.751 16.4139C66.9503 13.4961 70.3179 10.784 73.6025 8.87525C76.8402 6.9942 78.6034 7.28766 79.2384 8.79587C79.6678 9.81457 80.4592 10.161 81.3023 9.51028C82.1755 8.83436 82.7708 7.60518 82.6914 6.33511C82.511 3.41973 80.6637 1.70585 77.3345 1.89107ZM79.9432 14.4823C82.9596 13.2122 84.5857 15.7211 81.3588 16.4957C79.6642 16.9022 77.9467 17.3376 76.1751 17.4554C77.6328 16.1926 79.1987 14.7962 79.9432 14.4823ZM146.482 3.66267C146.027 4.02108 144.065 6.01759 141.45 8.73453C138 9.22884 134.485 9.79532 130.924 10.4364C128.39 10.8922 128.92 11.3877 129.445 13.0823C129.868 14.4595 130.222 15.0151 131.667 14.6699C132.966 14.3584 134.305 14.0686 135.66 13.7859C131.195 16.4247 123.708 20.3889 117.084 24.1955C119.374 21.8268 121.739 19.5324 124.176 17.3159C125.233 16.3634 124.915 16.0458 123.858 14.2466C122.705 12.2874 122.587 11.7064 121.105 12.8695C119.626 14.0337 112.216 21.8658 108.194 26.311C107.19 27.4223 107.559 28.322 108.935 29.6979C110.311 31.0738 110.628 31.4972 113.061 30.1213C115.437 28.7802 126.397 22.2988 132.782 17.8559C128.849 22.027 125.204 25.9406 123.621 27.6882C122.618 28.7971 122.881 29.1699 124.257 30.4388C125.686 31.7594 125.951 32.238 128.385 30.8645C130.49 29.6738 142.153 21.588 149.214 16.5462C146.294 19.2908 142.673 22.9651 140.116 26.3122C139.205 27.5077 139.271 27.794 140.647 29.3828C142.021 30.9704 142.34 31.0762 143.609 29.8061C144.88 28.5349 152.183 22.0799 158.744 19.3281C155.676 23.6675 153.877 25.7843 152.923 26.9497C151.972 28.1127 152.395 28.7213 154.194 30.1237C155.653 31.2626 155.806 31.087 157.593 29.9517C160.238 28.2739 163.355 27.0676 166.453 25.7794C166.621 27.8541 167.607 30.2283 169.524 30.2283C171.809 30.2283 180.423 25.3332 188.723 19.5506C189.376 20.3877 190.125 21.0047 190.798 21.5363C187.606 22.9795 184.716 24.4312 182.738 25.5726C181.136 26.4987 180.939 26.4181 181.681 28.0057C182.421 29.5933 182.097 29.7556 183.375 29.9108C194.117 31.2217 198.364 27.794 198.364 24.4071C198.364 22.9182 197.494 21.8886 196.626 21.1442C198.555 20.2169 201.291 19.2968 203.673 18.3948C204.481 21.5627 208.442 21.8321 208.747 23.9585C209.006 25.7674 203.044 26.5239 200.715 26.1006C198.387 25.6772 199.207 27.0074 200.609 28.2174C202.157 29.5536 202.507 30.357 205.796 30.1225C210.451 29.7917 215.001 28.0057 215.001 25.0434C215.001 20.9145 210.173 19.1946 209.394 17.5276C208.765 16.1818 210.769 15.5034 213.31 15.94C214.316 17.156 214.076 17.1668 216.287 16.7735C217.058 16.6405 217.825 16.4885 218.589 16.3177C219.165 16.1793 219.106 16.1793 218.979 15.4637C218.899 14.9815 218.79 14.5044 218.654 14.0349C218.336 12.9236 218.282 12.7648 211.721 12.2356C207.58 11.9025 203.948 13.8389 203.566 16.8024C201.064 17.5769 197.639 18.6269 194.87 19.7731C191.96 17.3688 192.122 15.8209 195.346 15.8209C197.885 15.8209 199.391 16.0458 199.99 16.1517C201.338 16.3898 201.816 15.8871 201.575 14.3524C201.373 13.0439 201.39 13.0258 200.345 12.5664C199.354 12.1298 197.131 11.7076 195.966 11.7076C189.168 11.7076 186.518 14.955 187.864 18.1362C184.333 20.2457 176.206 24.2327 174.287 25.0434C172.48 25.8023 171.447 26.4674 171.867 23.7589C177.033 22.021 185.397 19.1801 185.397 16.575C185.397 13.294 182.647 12.4473 179.682 12.4473C172.741 12.4473 167.936 18.6846 166.728 23.0974C165.412 23.5484 163.364 24.0211 161.813 24.5118C162.898 23.03 164.261 20.1627 164.987 18.3731C165.729 16.5474 165.729 16.5209 164.67 15.4349C163.587 14.3248 163.533 14.3512 162.447 14.5641C160.756 14.8936 157.366 16.4692 155.144 17.9497C156.626 16.4692 156.838 16.1505 157.475 15.4108C158.109 14.6699 157.687 14.1395 156.627 13.0811C155.413 11.8664 155.38 11.4587 154.424 12.0781C150.813 14.0782 141.46 19.7322 132.406 24.9339C134.602 22.6692 141.057 16.3321 145.408 12.0985C157.09 10.4604 170.254 9.91801 184.161 10.9644C186.522 11.1412 185.643 10.2235 184.481 8.74175C183.316 7.26 182.997 6.76568 180.988 6.62496C172.076 6.00316 161.489 6.3796 149.974 7.65328C150.462 6.999 150.107 6.51912 149.237 5.03738C148.082 3.08056 147.964 2.49965 146.482 3.66267ZM184.41 27.6388C186.362 26.3796 190.281 24.5214 192.561 23.2513C194.316 25.1612 191.481 26.9701 184.41 27.6388ZM181.162 15.1029C183.811 15.6333 180.243 17.7729 172.942 20.7773C175.007 17.6731 178.84 14.6375 181.162 15.1029Z" fill="black"/>
<path fill-rule="evenodd" clip-rule="evenodd" d="M132.874 5.43067C132.098 3.45701 132.021 3.42334 131.011 3.42334C117.992 3.42334 106.337 4.79564 94.5707 6.91483C92.4635 7.29489 92.7846 7.67975 93.5965 9.34071C94.4275 11.0413 95.0686 11.0786 95.9105 10.9487C97.4667 10.6991 99.02 10.4309 100.57 10.1441C98.7669 11.7419 97.0102 13.3911 95.3019 15.0897C93.4209 15.3495 91.5486 15.6684 89.6876 16.0459C87.8775 16.4187 88.0664 16.5534 88.6858 18.3539C89.1536 19.7154 89.4579 20.1988 90.2156 20.0678L90.5247 20.0172C86.7061 24.1089 83.0847 28.3605 80.5301 31.8556C79.6076 33.1172 79.4621 33.7655 80.286 36.0579C81.2626 38.7784 81.6426 38.9023 82.7997 37.3809C86.148 32.9741 92.5453 25.5281 98.7946 18.9949C102.818 18.6991 107.085 18.4802 112.558 18.7015C114.264 18.77 114.222 18.159 113.372 15.9148C112.634 13.97 112.443 13.8136 111.385 13.8232C109.323 13.8413 106.569 13.9628 103.538 14.1997C105.823 11.9783 107.963 10.0431 109.783 8.61187C113.127 8.23061 117.915 7.85777 121.551 7.88904C122.385 9.378 122.916 9.38281 124.292 9.18316C125.671 8.9835 129.324 8.59382 131.393 8.1861C133.61 7.75312 133.701 7.53904 132.874 5.43067Z" fill="black"/>
<path fill-rule="evenodd" clip-rule="evenodd" d="M40.2716 8.03101C43.5658 8.08995 43.5297 8.25351 45.6898 6.86678C47.1683 5.92667 48.6156 4.93831 50.0292 3.90329C52.235 2.28563 52.4563 1.60129 48.5475 0.728116C45.3651 0.0173104 44.4005 -0.238869 41.0329 1.68067C36.3423 4.35551 22.6169 13.958 8.64613 27.2949C5.0476 27.9288 2.0841 29.3059 0.919872 30.1514C-0.245561 30.9969 -0.328548 31.2182 0.814033 32.902C2.37516 35.2064 2.4353 35.2581 5.02234 34.0157C6.39825 33.353 8.43565 32.1623 10.2337 30.7852C18.1716 29.3059 35.8468 29.2 57.6496 35.3375C59.5812 35.8799 60.1176 36.183 58.708 33.1149C57.3586 30.1767 57.5173 30.3354 53.7336 29.4105C39.6702 25.9671 24.6278 25.4945 15.949 26.34C24.7337 19.0383 31.5928 13.2171 40.2716 8.03101Z" fill="#CF4044"/>
<path fill-rule="evenodd" clip-rule="evenodd" d="M60.5963 3.26804C59.0472 3.67456 54.4576 5.0661 52.4467 5.70114C50.4358 6.33617 50.2433 6.33858 50.3299 8.24128C50.4358 10.5697 50.6474 10.5697 52.0233 10.0417C53.3992 9.51254 60.0936 7.43184 62.0251 6.87979C63.5069 6.45644 63.5357 6.04872 63.2952 4.65717C62.9392 2.59331 62.6085 2.73884 60.5963 3.26804ZM44.9586 11.3647C43.4504 12.5554 37.5763 17.7151 34.163 21.6047C33.2309 22.6667 33.2104 22.3191 34.0836 25.018C34.4997 26.3001 34.8774 28.1944 36.7031 26.1293C38.5301 24.0642 46.7049 17.2388 48.2925 15.9687C49.8801 14.6987 49.8957 14.4509 48.5306 12.0791C47.0236 9.45962 46.4668 10.1728 44.9586 11.3647Z" fill="#CF4044"/>
<path fill-rule="evenodd" clip-rule="evenodd" d="M76.8535 0.0136303C72.5682 0.251768 69.3124 2.55377 64.629 6.68149C62.2199 8.79906 59.8713 10.9845 57.5859 13.2351C54.7992 12.5002 52.4239 11.7437 51.9283 11.5236C51.2139 11.2061 50.817 11.2855 50.9758 12.3174C51.2115 13.8533 51.6156 15.3399 54.3554 16.5221C52.1482 18.8355 50.0151 21.2185 47.9594 23.6675C47.0826 24.715 47.0862 24.8582 48.2769 26.6839C49.3714 28.3629 49.9595 28.0514 50.6583 27.3201C53.036 24.8353 56.1679 21.4184 59.6558 17.9738C61.9181 18.4561 64.5196 18.7496 65.9665 18.936C65.3804 19.673 64.8204 20.4304 64.2875 21.2067C63.3265 22.6139 63.4937 23.5893 64.5256 25.2551C65.5575 26.9232 66.8276 28.3509 70.6378 26.8426C74.448 25.3344 77.782 23.0324 78.5757 21.7624C79.3695 20.4923 79.4489 20.2542 77.4644 20.8098C75.4799 21.3643 72.9398 22.555 68.9708 23.1118C69.5301 22.045 70.5693 20.7196 71.79 19.3798C75.1348 19.5301 80.025 19.4604 84.0529 17.4759C86.634 16.2046 86.1168 13.9038 84.6086 11.6812C83.1004 9.45857 81.5922 7.87099 76.9882 9.77609C74.3434 10.8706 71.6204 12.9104 69.1645 15.3495C67.34 15.1318 64.7156 14.8263 63.2712 14.5364C66.4704 11.6187 69.838 8.90652 73.1226 6.99781C76.3603 5.11676 78.1247 5.41022 78.7586 6.91843C79.1879 7.93713 79.9805 8.28351 80.8224 7.63284C81.6968 6.95812 82.2921 5.72774 82.2116 4.45767C82.03 1.54228 80.1826 -0.171588 76.8535 0.0136303ZM79.4622 12.6061C82.4786 11.336 84.1046 13.8437 80.8778 14.6194C79.1831 15.0259 77.4668 15.4613 75.6952 15.5792C77.1517 14.3151 78.7189 12.9188 79.4622 12.6061ZM146.004 1.78643C145.548 2.14484 143.584 4.14136 140.972 6.8583C137.519 7.35261 134.004 7.9203 130.445 8.56014C127.911 9.01597 128.442 9.51029 128.964 11.2061C129.387 12.582 129.741 13.1389 131.186 12.7937C132.485 12.4834 133.824 12.1923 135.179 11.9109C130.714 14.5497 123.227 18.5126 116.606 22.3192C118.894 19.9504 121.259 17.656 123.696 15.4397C124.755 14.4871 124.438 14.1684 123.378 12.3704C122.227 10.4123 122.107 9.83021 120.628 10.9944C119.146 12.1587 111.736 19.9908 107.715 24.436C106.711 25.5473 107.08 26.447 108.456 27.8229C109.832 29.1988 110.149 29.6221 112.584 28.2462C114.96 26.9052 125.918 20.4237 132.304 15.9809C128.373 20.1519 124.725 24.0632 123.145 25.8131C122.139 26.922 122.403 27.2949 123.779 28.5637C125.209 29.8843 125.472 30.363 127.906 28.9871C130.011 27.7988 141.676 19.7141 148.735 14.6699C145.815 17.4146 142.195 21.0888 139.64 24.4372C138.726 25.6327 138.792 25.919 140.168 27.5078C141.544 29.0965 141.862 29.2012 143.133 27.9311C144.402 26.6598 151.705 20.2048 158.265 17.453C155.197 21.7924 153.398 23.9092 152.447 25.0722C151.493 26.2377 151.916 26.8463 153.716 28.2486C155.177 29.3876 155.33 29.2096 157.117 28.0766C159.762 26.3988 162.879 25.1925 165.975 23.9044C166.144 25.9791 167.128 28.3533 169.045 28.3533C171.331 28.3533 179.944 23.4582 188.244 17.6743C188.897 18.5114 189.647 19.1284 190.321 19.66C187.129 21.1033 184.237 22.555 182.262 23.6963C180.658 24.6224 180.463 24.5419 181.202 26.1294C181.944 27.717 181.619 27.8794 182.896 28.0345C193.639 29.3431 197.885 25.9178 197.885 22.5309C197.885 21.0407 197.016 20.0124 196.147 19.2679C198.077 18.3406 200.813 17.4206 203.194 16.5185C204.002 19.6853 207.965 19.9547 208.268 22.0811C208.527 23.8912 202.567 24.6477 200.237 24.2243C197.908 23.801 198.728 25.1312 200.131 26.3411C201.679 27.6773 202.029 28.4783 205.317 28.2462C209.975 27.9155 214.525 26.1294 214.525 23.1647C214.525 19.0382 209.695 17.3183 208.915 15.6514C208.286 14.3055 210.293 13.6272 212.831 14.0638C213.839 15.2797 213.6 15.2905 215.808 14.8973C216.579 14.7637 217.347 14.6117 218.11 14.4414C218.686 14.3019 218.627 14.3019 218.5 13.5875C218.42 13.1052 218.311 12.6281 218.175 12.1587C217.858 11.0474 217.804 10.8886 211.243 10.3594C207.102 10.025 203.47 11.9626 203.089 14.9261C200.585 15.7007 197.16 16.7507 194.391 17.8956C191.483 15.4914 191.643 13.9447 194.868 13.9447C197.407 13.9447 198.912 14.1696 199.511 14.2743C200.86 14.5124 201.337 14.0097 201.099 12.475C200.895 11.1664 200.911 11.1484 199.869 10.6889C198.875 10.2524 196.653 9.82901 195.489 9.82901C188.689 9.82901 186.04 13.0763 187.386 16.2587C183.854 18.3683 175.728 22.3565 173.808 23.1647C172.002 23.9261 170.971 24.5888 171.391 21.8826C176.554 20.1435 184.921 17.3027 184.921 14.6988C184.921 11.4178 182.168 10.5711 179.206 10.5711C172.263 10.5711 167.458 16.8084 166.249 21.2212C164.933 21.6722 162.887 22.1448 161.335 22.6355C162.42 21.1538 163.785 18.2865 164.511 16.4969C165.251 14.6699 165.251 14.6447 164.191 13.5586C163.109 12.4485 163.055 12.475 161.969 12.6867C160.28 13.0174 156.889 14.5918 154.668 16.0735C156.147 14.5918 156.361 14.2742 156.997 13.5334C157.63 12.7925 157.208 12.2633 156.149 11.2049C154.934 9.98897 154.901 9.58245 153.945 10.2006C150.335 12.2008 140.984 17.8547 131.927 23.0577C134.123 20.793 140.578 14.4559 144.93 10.2235C156.614 8.58539 169.775 8.04177 183.685 9.08813C186.043 9.26613 185.167 8.34726 184.002 6.86551C182.838 5.38376 182.518 4.88945 180.51 4.74873C171.598 4.12693 161.01 4.50337 149.495 5.77705C149.986 5.12277 149.631 4.64409 148.758 3.15994C147.603 1.20311 147.485 0.621001 146.004 1.78643ZM183.931 25.7602C185.881 24.5034 189.799 22.6452 192.082 21.3739C193.837 23.2838 191.002 25.0927 183.931 25.7602ZM180.68 13.2243C183.332 13.7547 179.762 15.8943 172.461 18.8987C174.525 15.7957 178.359 12.7612 180.68 13.2243Z" fill="#CF4044"/>
<path fill-rule="evenodd" clip-rule="evenodd" d="M132.393 3.55321C131.619 1.57955 131.542 1.54468 130.529 1.54468C117.511 1.54468 105.857 2.91698 94.0896 5.03617C91.9836 5.41502 92.3035 5.8023 93.1154 7.46205C93.9476 9.16269 94.5863 9.20117 95.4294 9.07008C96.8703 8.84637 98.4302 8.56614 100.089 8.26546C98.2857 9.86266 96.5294 11.5119 94.822 13.211C92.941 13.4708 91.0687 13.7897 89.2077 14.1672C87.3976 14.5412 87.5877 14.6747 88.2059 16.4752C88.6737 17.8367 88.9768 18.319 89.7369 18.1891L90.0448 18.1386C86.2262 22.229 82.6048 26.4818 80.0515 29.9769C79.129 31.2386 78.9834 31.8868 79.8061 34.1792C80.7827 36.8998 81.1628 37.0236 82.3198 35.5022C85.6681 31.0954 92.0654 23.6494 98.3135 17.1163C102.337 16.8204 106.603 16.6015 112.077 16.8228C113.782 16.8925 113.742 16.2816 112.89 14.0373C112.153 12.0925 111.962 11.9349 110.904 11.9458C108.843 11.9638 106.088 12.0853 103.057 12.3222C105.341 10.1008 107.482 8.16563 109.302 6.7344C112.646 6.35314 117.433 5.9803 121.073 6.01157C121.906 7.50053 122.435 7.50535 123.811 7.30449C125.189 7.10484 128.843 6.71636 130.912 6.30864C133.127 5.87566 133.22 5.66158 132.393 3.55321Z" fill="#CF4044"/>
<path fill-rule="evenodd" clip-rule="evenodd" d="M103.737 40.8388C103.462 41.2261 102.944 41.825 102.54 41.825C102.202 41.825 102.059 41.552 102.059 41.0709C102.059 40.3168 102.527 36.6004 102.683 36.159C102.462 36.2227 102.254 36.2769 102.032 36.3394V36.1325L103.541 35.4302C103.293 36.6377 102.838 40.1989 102.838 40.8099C102.838 41.0853 102.903 41.1743 103.02 41.1743C103.111 41.1743 103.293 41.0312 103.604 40.7065L103.737 40.8388ZM103.347 33.0656C103.502 33.0656 103.788 33.157 103.788 33.6622C103.788 34.0398 103.593 34.3008 103.281 34.3008C103.073 34.3008 102.813 34.195 102.813 33.7271C102.814 33.2087 103.086 33.0656 103.347 33.0656ZM110.105 40.9939C109.741 41.3692 109.312 41.825 108.831 41.825C108.403 41.825 108.325 41.4089 108.325 40.9278C108.325 40.0702 108.897 37.0827 108.897 36.6665C108.897 36.509 108.833 36.4693 108.754 36.4693C107.961 36.4693 106.102 39.9151 105.829 41.6157L105.114 41.6951C105.335 39.8092 105.647 37.8356 105.841 36.1843C105.62 36.236 105.413 36.2877 105.191 36.3394V36.1325L106.776 35.4302C106.543 36.5342 106.321 38.1194 106.152 39.4593H106.178C106.646 38.0689 108.206 35.56 109.272 35.56C109.635 35.56 109.739 35.7549 109.739 36.1963C109.739 36.7808 109.103 40.0041 109.103 40.7726C109.103 41.0192 109.195 41.1743 109.35 41.1743C109.531 41.1743 109.753 40.9795 109.935 40.8099L110.105 40.9939ZM111.64 35.7693H112.199L112.42 34.0518L113.213 33.7536L112.94 35.7693H114.045V36.159H112.888C112.525 38.7833 112.42 39.7972 112.42 40.5634C112.42 41.0565 112.537 41.1743 112.771 41.1743C113.044 41.1743 113.278 40.9278 113.734 40.4226L113.903 40.5778C113.474 41.214 113.046 41.825 112.421 41.825C112.032 41.825 111.642 41.4606 111.642 40.8905C111.642 40.1111 112.019 37.2234 112.15 36.159H111.642V35.7693H111.64ZM118.24 40.2001C117.733 40.917 116.89 41.8262 115.955 41.8262C114.836 41.8262 114.654 40.84 114.654 39.9536C114.654 37.4194 116.46 35.4314 117.747 35.4314C118.318 35.4314 118.578 35.8848 118.578 36.4837C118.578 37.862 116.875 39.0588 115.536 39.3679C115.506 39.614 115.494 39.862 115.499 40.1099C115.499 40.8893 115.772 41.3054 116.253 41.3054C116.929 41.3054 117.656 40.5261 118.06 40.0438L118.24 40.2001ZM117.265 36.082C116.966 36.082 116.745 36.1337 116.473 36.3923C115.966 36.8878 115.642 38.1615 115.576 39.0046C116.823 38.6546 117.799 37.642 117.799 36.6533C117.798 36.2769 117.577 36.082 117.265 36.082ZM119.644 36.1337L121.229 35.4314C121.049 36.3372 120.893 37.2476 120.761 38.1615H120.786C121.188 37.1861 121.957 35.4314 122.982 35.4314C123.138 35.4314 123.281 35.4566 123.476 35.4975L123.32 36.2769H123.034C122.137 36.2769 121.552 37.1861 121.018 38.4189C120.668 39.2247 120.41 40.8496 120.279 41.6157L119.564 41.6951C119.786 39.8092 120.097 37.8356 120.292 36.1843L119.641 36.3394V36.1337H119.644ZM128.274 41.0456C127.988 41.3319 127.52 41.825 127.119 41.825C126.648 41.825 126.638 41.3836 126.638 40.9422C126.638 40.395 126.766 39.173 126.872 38.2902L126.844 38.265C126.391 39.6156 125.494 41.8262 124.364 41.8262C123.585 41.8262 123.337 41.0204 123.337 40.1376C123.337 37.7069 125.001 35.4326 126.716 35.4326C127.054 35.4326 127.289 35.5095 127.47 35.5613L127.977 35.3027C127.756 36.8337 127.418 39.6409 127.418 40.7859C127.418 41.0589 127.443 41.2417 127.599 41.2417C127.73 41.2417 128.015 40.9687 128.131 40.8917L128.274 41.0456ZM124.648 41.0456C125.56 41.0456 127.12 36.8482 127.12 36.1855C127.12 36.0568 126.716 36.0159 126.455 36.0159C126.028 36.0159 125.637 36.0929 125.325 36.4428C124.637 37.2222 124.118 39.1213 124.118 40.1352C124.117 40.7594 124.257 41.0456 124.648 41.0456ZM132.59 39.784C132.355 40.4744 131.42 41.825 130.445 41.825C129.471 41.825 129.107 40.6956 129.107 39.5254C129.107 37.5241 130.472 35.4314 132.094 35.4314C132.329 35.4314 132.498 35.4566 132.668 35.5083L132.459 36.2107C132.252 36.1855 132.017 36.1337 131.667 36.1446C131.056 36.1446 130.899 36.236 130.615 36.6774C130.263 37.2222 129.887 38.55 129.887 39.3667C129.887 40.1725 130.042 41.1094 130.627 41.1094C131.421 41.1094 132.109 40.1977 132.356 39.7046L132.59 39.784ZM134.044 35.7693H134.603L134.824 34.0518L135.618 33.7536L135.345 35.7693H136.449V36.159H135.291C134.929 38.7833 134.823 39.7972 134.823 40.5634C134.823 41.0565 134.941 41.1743 135.176 41.1743C135.449 41.1743 135.681 40.9278 136.137 40.4226L136.306 40.5778C135.879 41.214 135.449 41.825 134.824 41.825C134.435 41.825 134.045 41.4606 134.045 40.8905C134.045 40.1111 134.423 37.2234 134.553 36.159H134.045V35.7693H134.044ZM139.139 40.8388C138.863 41.2261 138.345 41.825 137.943 41.825C137.605 41.825 137.462 41.552 137.462 41.0709C137.462 40.3168 137.93 36.6004 138.085 36.159C137.864 36.2227 137.658 36.2769 137.437 36.3394V36.1325L138.945 35.4302C138.696 36.6377 138.243 40.1989 138.243 40.8099C138.243 41.0853 138.306 41.1743 138.423 41.1743C138.514 41.1743 138.696 41.0312 139.007 40.7065L139.139 40.8388ZM138.749 33.0656C138.904 33.0656 139.19 33.157 139.19 33.6622C139.19 34.0398 138.995 34.3008 138.683 34.3008C138.473 34.3008 138.215 34.195 138.215 33.7271C138.216 33.2087 138.488 33.0656 138.749 33.0656ZM139.983 36.1337L141.425 35.4314C141.425 37.2631 141.605 39.4857 141.841 40.8508C142.556 40.0053 143.765 37.8633 143.765 36.9251C143.765 36.5234 143.585 36.4056 143.063 36.1337L143.556 35.4314C144.012 35.5348 144.48 35.9124 144.48 36.444C144.48 37.6937 142.582 40.5525 141.816 41.6963L141.257 41.825C140.881 40.0955 140.581 36.8879 140.581 36.1855L139.984 36.3406V36.1337H139.983ZM148.587 40.2001C148.08 40.917 147.234 41.8262 146.3 41.8262C145.181 41.8262 145.001 40.84 145.001 39.9536C145.001 37.4194 146.807 35.4314 148.092 35.4314C148.665 35.4314 148.923 35.8848 148.923 36.4837C148.923 37.862 147.222 39.0588 145.883 39.3679C145.852 39.6139 145.839 39.8619 145.844 40.1099C145.844 40.8893 146.117 41.3054 146.598 41.3054C147.274 41.3054 148.003 40.5261 148.404 40.0438L148.587 40.2001ZM147.612 36.082C147.311 36.082 147.09 36.1337 146.818 36.3923C146.31 36.8878 145.987 38.1615 145.921 39.0046C147.168 38.6546 148.143 37.642 148.143 36.6533C148.143 36.2769 147.922 36.082 147.612 36.082ZM152.876 35.7693C153.396 35.7693 153.616 35.5997 153.707 34.7422C153.877 32.8563 154.877 32.2189 155.8 32.2189H156.073C156.051 32.4603 156.011 32.6999 155.955 32.9357C155.775 32.9081 155.565 32.8696 155.332 32.8696C154.799 32.8696 154.681 33.1426 154.553 34.0915L154.343 35.637H155.579V36.159H154.268L153.669 40.6295C153.344 43.0867 153.006 43.5545 151.733 43.9959L151.682 43.7493C152.396 43.4366 152.709 42.6573 152.863 41.1888C153.046 39.5002 153.319 37.8079 153.528 36.159H152.877V35.7693H152.876ZM157.553 40.8388C157.28 41.2261 156.762 41.825 156.358 41.825C156.022 41.825 155.879 41.552 155.879 41.0709C155.879 40.3168 156.347 36.6004 156.502 36.159C156.281 36.2227 156.075 36.2769 155.854 36.3394V36.1325L157.36 35.4302C157.113 36.6377 156.66 40.1989 156.66 40.8099C156.66 41.0853 156.724 41.1743 156.84 41.1743C156.932 41.1743 157.113 41.0312 157.425 40.7065L157.553 40.8388ZM157.164 33.0656C157.321 33.0656 157.605 33.157 157.605 33.6622C157.605 34.0398 157.41 34.3008 157.1 34.3008C156.891 34.3008 156.632 34.195 156.632 33.7271C156.632 33.2087 156.905 33.0656 157.164 33.0656ZM158.958 35.7693H159.517L159.739 34.0518L160.53 33.7536L160.257 35.7693H161.361V36.159H160.205C159.841 38.7833 159.738 39.7972 159.738 40.5634C159.738 41.0565 159.853 41.1743 160.088 41.1743C160.361 41.1743 160.595 40.9278 161.051 40.4226L161.218 40.5778C160.791 41.214 160.361 41.825 159.739 41.825C159.349 41.825 158.959 41.4606 158.959 40.8905C158.959 40.1111 159.335 37.2234 159.467 36.159H158.958V35.7693ZM167.535 40.9939C167.17 41.3692 166.741 41.825 166.261 41.825C165.832 41.825 165.754 41.4089 165.754 40.9278C165.754 40.0702 166.325 37.0827 166.325 36.6665C166.325 36.509 166.261 36.4693 166.182 36.4693C165.39 36.4693 163.532 39.9151 163.257 41.6157L162.542 41.6951C162.764 39.8092 163.075 37.8356 163.27 36.1843L162.619 36.3394V36.1325L164.204 35.4302C163.972 36.5342 163.751 38.1194 163.581 39.4593H163.607C164.075 38.0689 165.634 35.56 166.7 35.56C167.064 35.56 167.168 35.7549 167.168 36.1963C167.168 36.7808 166.532 40.0041 166.532 40.7726C166.532 41.0192 166.621 41.1743 166.778 41.1743C166.959 41.1743 167.18 40.9795 167.363 40.8099L167.535 40.9939ZM172.059 40.2001C171.552 40.917 170.706 41.8262 169.772 41.8262C168.653 41.8262 168.473 40.84 168.473 39.9536C168.473 37.4194 170.279 35.4314 171.564 35.4314C172.138 35.4314 172.397 35.8848 172.397 36.4837C172.397 37.862 170.694 39.0588 169.356 39.3679C169.324 39.6139 169.311 39.8619 169.316 40.1099C169.316 40.8893 169.589 41.3054 170.07 41.3054C170.746 41.3054 171.475 40.5261 171.877 40.0438L172.059 40.2001ZM171.084 36.082C170.783 36.082 170.562 36.1337 170.29 36.3923C169.783 36.8878 169.459 38.1615 169.393 39.0046C170.643 38.6546 171.618 37.642 171.618 36.6533C171.617 36.2769 171.397 36.082 171.084 36.082ZM176.297 36.3406C175.932 36.2227 175.554 36.082 175.035 36.082C174.399 36.082 173.707 36.2516 173.707 36.9251C173.707 37.8079 176.138 38.6799 176.138 39.8357C176.138 41.0312 175.008 41.825 173.942 41.825C173.552 41.825 173.059 41.748 172.706 41.5123L172.838 40.7726C173.15 40.9422 173.565 41.1743 174.203 41.1743C174.994 41.1743 175.553 40.8099 175.553 40.2254C175.553 39.1983 173.124 38.4333 173.124 37.3028C173.124 36.1073 174.319 35.4302 175.254 35.4302C175.604 35.4302 176.111 35.5071 176.294 35.637V36.3406H176.297ZM180.622 36.3406C180.257 36.2227 179.882 36.082 179.36 36.082C178.724 36.082 178.034 36.2516 178.034 36.9251C178.034 37.8079 180.465 38.6799 180.465 39.8357C180.465 41.0312 179.333 41.825 178.267 41.825C177.879 41.825 177.384 41.748 177.034 41.5123L177.162 40.7726C177.475 40.9422 177.89 41.1743 178.528 41.1743C179.321 41.1743 179.881 40.8099 179.881 40.2254C179.881 39.1983 177.45 38.4333 177.45 37.3028C177.45 36.1073 178.645 35.4302 179.58 35.4302C179.932 35.4302 180.438 35.5071 180.62 35.637V36.3406H180.622ZM188.197 36.3406C187.833 36.2227 187.458 36.082 186.936 36.082C186.3 36.082 185.61 36.2516 185.61 36.9251C185.61 37.8079 188.04 38.6799 188.04 39.8357C188.04 41.0312 186.911 41.825 185.844 41.825C185.454 41.825 184.961 41.748 184.611 41.5123L184.74 40.7726C185.052 40.9422 185.467 41.1743 186.105 41.1743C186.898 41.1743 187.458 40.8099 187.458 40.2254C187.458 39.1983 185.027 38.4333 185.027 37.3028C185.027 36.1073 186.223 35.4302 187.157 35.4302C187.509 35.4302 188.015 35.5071 188.197 35.637V36.3406ZM191.899 35.4314C193.004 35.4314 193.316 36.5607 193.316 37.5361C193.316 39.357 192.261 41.825 190.418 41.825C189.403 41.825 189.039 40.7582 189.039 39.9007C189.038 38.4706 190.027 35.4314 191.899 35.4314ZM190.793 41.3066C191.094 41.3066 191.352 41.2008 191.572 40.9807C192.248 40.306 192.536 37.9523 192.536 37.4339C192.536 36.4068 192.106 36.0171 191.56 36.0171C190.976 36.0171 190.858 36.1975 190.468 36.9781C190.143 37.6287 189.817 38.9277 189.817 39.7479C189.805 40.5898 190.093 41.3066 190.793 41.3066ZM196.329 40.8508C195.809 41.4762 195.354 41.8262 195.042 41.8262C194.758 41.8262 194.574 41.6458 194.574 40.9807C194.574 40.6307 194.589 40.1496 194.666 39.5639L195.497 32.8575C195.285 32.9371 195.068 32.9982 194.846 33.0404V32.8311C195.29 32.6615 195.938 32.3777 196.369 32.1311L195.445 39.096C195.393 39.5519 195.302 40.4238 195.302 40.7738C195.302 41.1118 195.379 41.1755 195.471 41.1755C195.589 41.1755 195.681 41.0986 196.134 40.6969L196.329 40.8508ZM202.631 40.9025C202.215 41.3584 201.877 41.8262 201.409 41.8262C201.045 41.8262 200.813 41.5279 200.813 40.84C200.813 40.3589 200.916 39.3691 201.034 38.6041L201.009 38.5789C200.1 40.8268 199.372 41.8274 198.396 41.8274C198.007 41.8274 197.68 41.5147 197.68 40.9182C197.68 39.6709 198.279 36.5511 198.279 36.1867L197.628 36.3418V36.135L199.213 35.4326C198.915 36.7062 198.459 40.1123 198.459 40.6054C198.459 40.9182 198.565 41.0469 198.745 41.0469C199.812 41.0469 201.085 37.7466 201.449 35.797L202.203 35.5625C201.957 37.031 201.592 39.6312 201.592 40.8003C201.592 41.125 201.629 41.2417 201.747 41.2417C201.942 41.2417 202.215 40.917 202.41 40.7221L202.631 40.9025ZM204.077 35.7693H204.636L204.857 34.0518L205.649 33.7536L205.376 35.7693H206.482V36.159H205.324C204.96 38.7833 204.856 39.7972 204.856 40.5634C204.856 41.0565 204.974 41.1743 205.206 41.1743C205.482 41.1743 205.714 40.9278 206.17 40.4226L206.339 40.5778C205.91 41.214 205.482 41.825 204.857 41.825C204.468 41.825 204.078 41.4606 204.078 40.8905C204.078 40.1111 204.453 37.2234 204.586 36.159H204.078V35.7693H204.077ZM209.169 40.8388C208.896 41.2261 208.378 41.825 207.974 41.825C207.636 41.825 207.493 41.552 207.493 41.0709C207.493 40.3168 207.963 36.6004 208.118 36.159C207.897 36.2227 207.689 36.2769 207.467 36.3394V36.1325L208.976 35.4302C208.729 36.6377 208.273 40.1989 208.273 40.8099C208.273 41.0853 208.339 41.1743 208.456 41.1743C208.547 41.1743 208.729 41.0312 209.041 40.7065L209.169 40.8388ZM208.78 33.0656C208.937 33.0656 209.221 33.157 209.221 33.6622C209.221 34.0398 209.026 34.3008 208.713 34.3008C208.507 34.3008 208.246 34.195 208.246 33.7271C208.246 33.2087 208.519 33.0656 208.78 33.0656ZM212.834 35.4314C213.94 35.4314 214.251 36.5607 214.251 37.5361C214.251 39.357 213.198 41.825 211.355 41.825C210.339 41.825 209.976 40.7582 209.976 39.9007C209.975 38.4706 210.964 35.4314 212.834 35.4314ZM211.73 41.3066C211.875 41.3084 212.019 41.2805 212.153 41.2244C212.287 41.1683 212.408 41.0854 212.509 40.9807C213.185 40.306 213.47 37.9523 213.47 37.4339C213.47 36.4068 213.043 36.0171 212.495 36.0171C211.91 36.0171 211.795 36.1975 211.405 36.9781C211.079 37.6287 210.754 38.9277 210.754 39.7479C210.741 40.5898 211.027 41.3066 211.73 41.3066ZM220.593 40.9939C220.228 41.3692 219.801 41.825 219.319 41.825C218.89 41.825 218.811 41.4089 218.811 40.9278C218.811 40.0702 219.385 37.0827 219.385 36.6665C219.385 36.509 219.319 36.4693 219.242 36.4693C218.448 36.4693 216.59 39.9151 216.317 41.6157L215.603 41.6951C215.824 39.8092 216.133 37.8356 216.329 36.1843C216.108 36.236 215.902 36.2877 215.681 36.3394V36.1325L217.266 35.4302C217.031 36.5342 216.81 38.1194 216.641 39.4593H216.666C217.134 38.0689 218.694 35.56 219.759 35.56C220.124 35.56 220.227 35.7549 220.227 36.1963C220.227 36.7808 219.591 40.0041 219.591 40.7726C219.591 41.0192 219.682 41.1743 219.837 41.1743C220.02 41.1743 220.241 40.9795 220.422 40.8099L220.593 40.9939ZM225.014 36.3406C224.649 36.2227 224.272 36.082 223.752 36.082C223.116 36.082 222.427 36.2516 222.427 36.9251C222.427 37.8079 224.856 38.6799 224.856 39.8357C224.856 41.0312 223.727 41.825 222.66 41.825C222.27 41.825 221.777 41.748 221.427 41.5123L221.556 40.7726C221.869 40.9422 222.284 41.1743 222.921 41.1743C223.715 41.1743 224.272 40.8099 224.272 40.2254C224.272 39.1983 221.842 38.4333 221.842 37.3028C221.842 36.1073 223.038 35.4302 223.972 35.4302C224.322 35.4302 224.83 35.5071 225.013 35.637V36.3406H225.014Z" fill="black"/>
</svg>
