<svg width="188" height="38" viewBox="0 0 188 38" fill="none" xmlns="http://www.w3.org/2000/svg">
<path d="M149.524 22.8935H136.055L137.455 21.8406C138.061 21.0453 138.571 20.1819 138.975 19.268L142.621 11.4409C142.869 10.9145 142.919 10.547 142.77 10.3682C142.621 10.1894 142.164 10.1 141.389 10.1H137.356C136.843 10.0778 136.33 10.1554 135.846 10.3284C135.414 10.5781 135.084 10.972 134.913 11.4409L131.267 19.268C130.919 19.9356 130.652 20.6426 130.473 21.3738C130.446 21.9004 130.559 22.4249 130.8 22.8935H117.361L118.355 22.3472C119.162 21.4453 119.802 20.4058 120.242 19.2779L124.215 10.6662C124.545 10.0363 124.798 9.36944 124.97 8.67959C125.001 8.11742 124.899 7.55579 124.672 7.04067H136.055L135.608 8.69946C136.109 8.25252 136.651 7.85345 137.227 7.5075C137.904 7.19086 138.645 7.03129 139.392 7.04067H148.332C153.206 7.04067 154.742 8.97427 152.941 12.8415L149.961 19.3077C149.624 19.9686 149.36 20.6649 149.176 21.3837C149.138 21.9199 149.259 22.4555 149.524 22.9233" fill="#CF4044"/>
<path d="M150.408 23.4496H134.386L136.055 22.1981L137.048 21.4432C137.608 20.6981 138.081 19.8916 138.459 19.0395L142.104 11.2024C142.182 11.0521 142.239 10.8916 142.273 10.7257C141.978 10.6688 141.679 10.6455 141.379 10.6561H137.346C136.912 10.6341 136.477 10.6947 136.065 10.8349C135.936 10.8945 135.687 11.0733 135.409 11.6792L131.764 19.5063C131.434 20.1358 131.18 20.8028 131.009 21.4929C130.994 21.9154 131.093 22.3341 131.297 22.7047L131.655 23.4894H117.351L117.093 22.4961L117.47 22.2974L118.066 21.9796C118.79 21.1289 119.371 20.1661 119.785 19.1289L123.758 10.5171C124.075 9.93116 124.315 9.30687 124.473 8.65962C124.492 8.19124 124.4 7.72501 124.205 7.29882L123.927 6.54393H136.84L136.631 7.31869L137.018 7.0803C137.777 6.71641 138.61 6.53285 139.452 6.54393H148.391C151.222 6.54393 152.99 7.1697 153.805 8.45104C154.619 9.73238 154.421 11.1528 153.497 13.1393L150.517 19.6056C150.195 20.2194 149.948 20.8697 149.782 21.5425C149.767 21.9644 149.874 22.3817 150.09 22.7444L150.408 23.4496ZM137.714 22.3372H148.719C148.613 21.9934 148.583 21.6309 148.63 21.2743C148.813 20.5018 149.09 19.7546 149.454 19.0494L152.434 12.5732C153.189 10.964 153.318 9.75224 152.812 8.95761C152.305 8.16298 150.716 7.56701 148.332 7.56701H139.392C138.729 7.55359 138.073 7.69651 137.475 7.98419C136.937 8.30556 136.432 8.67811 135.965 9.09667L134.595 10.2787L135.33 7.56701H125.397C125.501 7.94842 125.532 8.34627 125.486 8.73908C125.313 9.49132 125.046 10.2188 124.692 10.9045L120.719 19.5162C120.286 20.516 119.739 21.4626 119.09 22.3372H130.016C129.91 22.0002 129.88 21.6442 129.926 21.2942C130.105 20.5094 130.385 19.7513 130.761 19.0395L134.416 11.2024C134.636 10.6088 135.068 10.1172 135.628 9.82176C136.179 9.61237 136.767 9.51773 137.356 9.54364H141.389C142.382 9.54364 142.928 9.6827 143.197 10.0105C143.604 10.5071 143.346 11.2024 143.117 11.6792L139.472 19.5063C139.052 20.4609 138.518 21.3614 137.882 22.1882L137.793 22.2776L137.714 22.3372Z" fill="#231F20"/>
<path d="M166.072 13.5864L167.065 11.421C167.237 10.9687 167.56 10.5896 167.979 10.3482C168.393 10.17 168.84 10.0852 169.29 10.0999H173.82C174.892 10.0999 175.23 10.537 174.813 11.421L173.82 13.5864H166.072ZM185.372 11.8084C186.206 10.0105 186.305 8.76893 185.68 8.0637C185.054 7.35846 183.574 7.0108 181.259 7.0108H164.463C162.59 6.90205 160.721 7.27119 159.03 8.08355C157.637 8.97524 156.554 10.2765 155.931 11.8084L152.951 18.1058C152.116 19.8937 152.007 21.1453 152.623 21.8406C153.239 22.5359 154.699 22.8934 157.013 22.8934H179.084L181.647 19.0991C180.888 19.3855 180.103 19.5952 179.303 19.7249C178.756 19.7845 177.783 19.8043 176.323 19.8043H165.675C163.986 19.8043 163.38 19.268 163.887 18.2051L164.572 16.7252H183.037L185.372 11.8084Z" fill="#CF4044"/>
<path d="M179.382 23.4496H157.053C154.55 23.4496 152.98 23.0424 152.245 22.208C151.51 21.3736 151.54 19.8936 152.494 17.8673L155.474 11.5699C156.145 9.93291 157.307 8.54462 158.801 7.59677C160.576 6.73485 162.542 6.3416 164.513 6.45448H181.309C183.812 6.45448 185.391 6.86173 186.146 7.68616C186.901 8.51059 186.871 10.0105 185.928 12.0368L183.484 17.2813H164.969L164.423 18.4335C164.326 18.587 164.294 18.7728 164.334 18.95C164.334 18.95 164.562 19.248 165.714 19.248H176.362C177.753 19.248 178.726 19.248 179.243 19.1685C180.003 19.0476 180.749 18.8479 181.468 18.5726L183.027 18.0461L179.382 23.4496ZM164.483 7.55703C162.708 7.45436 160.937 7.79576 159.328 8.55031C158.035 9.38533 157.032 10.5996 156.457 12.0268L153.477 18.3243C152.762 19.8738 152.613 20.9565 153.06 21.463C153.507 21.9696 154.371 22.3272 157.033 22.3272H178.776L180.286 20.0824C179.975 20.1609 179.66 20.2206 179.342 20.2612C178.776 20.3208 177.793 20.3506 176.362 20.3506H165.675C164.463 20.3506 163.688 20.0824 163.36 19.5361C163.221 19.2963 163.147 19.0238 163.147 18.7464C163.147 18.469 163.221 18.1965 163.36 17.9567L164.195 16.1589H182.66L184.805 11.56C185.52 10.0204 185.66 8.9377 185.203 8.4212C184.746 7.90469 183.872 7.55703 181.23 7.55703H164.483ZM174.207 14.1326H165.267L166.648 11.1527C166.869 10.5846 167.285 10.1131 167.82 9.82172C168.313 9.60158 168.85 9.49629 169.39 9.5138H173.909C174.198 9.47357 174.493 9.50917 174.765 9.61712C175.037 9.72507 175.276 9.90167 175.459 10.1296C175.588 10.3565 175.657 10.6133 175.657 10.8746C175.657 11.136 175.588 11.3928 175.459 11.6196L174.207 14.1326ZM166.946 13.04H173.482L174.346 11.1925C174.424 11.0639 174.462 10.9154 174.455 10.7654C174.263 10.6757 174.05 10.6413 173.839 10.666H169.32C168.949 10.6483 168.578 10.7163 168.237 10.8647C167.936 11.0463 167.708 11.3273 167.592 11.6593L166.946 13.04Z" fill="#231F20"/>
<path d="M120.123 12.9504C121.454 9.81166 122.268 7.07019 115.613 6.99073H82.7354L84.3346 3.55396H73.2594L71.6702 6.96093H48.5465C48.5465 6.96093 42.259 6.69275 39.8254 11.8181L36.8456 18.2745C35.5543 21.1451 37.1733 22.8535 41.0074 22.8535H58.678L61.2109 19.0095C59.7592 19.4904 58.2405 19.7384 56.7113 19.7445H49.6589C49.6589 19.7445 46.9175 19.9531 47.9008 18.046L50.8807 11.6691C50.8807 11.6691 51.4071 10.0699 54.0095 10.0401H70.2696L66.2965 18.6916C65.6608 20.4597 65.482 22.8634 71.0245 22.8535H84.7517L87.1654 19.1585C86.011 19.5539 84.7999 19.7585 83.5797 19.7644H78.792C77.4511 19.7644 76.8055 19.7644 77.322 18.7115L81.3646 10.06H108.839C111.024 10.06 110.041 12.1161 107.846 12.126H97.1877C94.8137 12.126 91.5259 12.3942 89.4698 15.9899C89.4698 15.9899 88.3077 18.3837 88.1289 18.8506C86.9866 21.8304 88.3276 22.8237 92.3504 22.8237H101.171C103.644 22.8237 105.035 22.0688 105.829 21.1053L105.581 22.8237H116.596C116.298 22.3966 115.911 22.039 116.477 20.7477L120.123 12.8809V12.9504ZM106.952 17.4898C106.687 18.1877 106.282 18.8235 105.76 19.3571C105.291 19.6481 104.74 19.7804 104.19 19.7346H101.002C100.409 19.8049 99.8086 19.7014 99.2736 19.4366C99.0451 19.2379 99.0451 18.8903 99.2736 18.3738L100.148 16.5064C100.555 15.6224 101.548 15.1853 103.128 15.1853H108.064L106.952 17.4898Z" fill="#CF4044"/>
<path d="M70.9152 23.4597C68.2631 23.4597 66.6044 22.9333 65.8296 21.8307C65.5528 21.3345 65.3969 20.78 65.3744 20.2122C65.352 19.6444 65.4637 19.0793 65.7005 18.5628V18.5131L69.326 10.6563H53.9698C51.8441 10.6563 51.3773 11.8681 51.3574 11.9177V11.9674L48.3776 18.3443C48.2286 18.6323 48.1888 18.8509 48.2484 18.9502C48.308 19.0495 49.1424 19.278 49.5894 19.2482H56.6318C58.0964 19.2449 59.5513 19.0102 60.9426 18.5529L62.5418 17.9668L58.9064 23.4696H40.9776C38.6434 23.4696 37.0044 22.8538 36.2694 21.6917C35.9537 21.1469 35.7875 20.5284 35.7875 19.8988C35.7875 19.2691 35.9537 18.6507 36.2694 18.1059L39.2493 11.6396C41.8219 6.24606 48.1888 6.45466 48.4968 6.4646H71.243L72.8422 3.05762H85.1391L83.5399 6.50432H115.613C118.593 6.50432 120.391 7.09036 121.166 8.26244C122.04 9.60338 121.414 11.3714 120.629 13.2289L117.004 21.046C116.616 21.94 116.765 22.1486 117.004 22.4664L117.689 23.4597H104.975L105.104 22.5459C103.91 23.1905 102.566 23.5059 101.21 23.4597H92.3801C89.7678 23.4597 88.2878 23.0127 87.6124 22.0194C87.2414 21.4281 87.1166 20.715 87.2647 20.0329L85.0099 23.4895H70.9152V23.4597ZM66.7335 18.9999C66.5526 19.3428 66.458 19.7246 66.458 20.1123C66.458 20.5 66.5526 20.8819 66.7335 21.2248C67.2699 21.9897 68.7201 22.3969 70.9152 22.3969H84.3345L85.7947 20.1819C85.0296 20.3373 84.2511 20.4171 83.4704 20.4202H78.5039C77.5702 20.4202 76.9445 20.4203 76.6266 19.9038C76.5291 19.6943 76.4852 19.4638 76.4991 19.2332C76.513 19.0025 76.5841 18.7789 76.7061 18.5827L80.8978 9.64311H108.71C110.031 9.64311 110.488 10.2987 110.488 10.9046C110.488 11.8283 109.355 12.8117 107.677 12.8216H97.1876C94.4958 12.8216 91.7544 13.2487 89.9565 16.3975C89.6486 17.0332 88.7944 18.831 88.6454 19.1886C88.2282 20.2713 88.1785 21.0162 88.4964 21.4831C88.9334 22.1287 90.1949 22.4764 92.3503 22.4764H101.171C103.157 22.4764 104.578 21.9599 105.402 20.9566L106.654 19.4468L106.227 22.4764H115.683C115.582 21.8778 115.683 21.2627 115.971 20.7282L119.606 12.8713C120.272 11.3118 120.808 9.89142 120.232 8.96766C119.656 8.04391 118.146 7.736 115.603 7.71613H81.8314L83.4306 4.27935H73.5872L71.9979 7.68633H48.5166C48.4372 7.68633 42.5569 7.4976 40.2922 12.2256L37.3124 18.682C37.0808 19.0563 36.9484 19.4834 36.9275 19.9231C36.9066 20.3627 36.9981 20.8005 37.1932 21.195C37.7196 22.0195 39.0605 22.4664 40.9677 22.4664H58.3998L59.9493 20.1123C58.8916 20.3408 57.8132 20.4606 56.7311 20.4699H49.6986C49.3609 20.4699 47.9306 20.5395 47.3644 19.6852C47.2117 19.424 47.1362 19.1248 47.1468 18.8224C47.1573 18.5199 47.2535 18.2267 47.424 17.9768L50.4039 11.6396C50.5231 11.3416 51.278 9.65303 54.0492 9.65303H71.1834L66.7335 18.9999ZM77.6596 19.2581C77.9905 19.2758 78.3221 19.2758 78.6529 19.2581H83.5399C84.6921 19.2532 85.8359 19.062 86.927 18.6919L87.7812 18.3741C88.1289 17.5993 88.9036 16.0001 89.003 15.7915C91.1087 12.1065 94.3369 11.6198 97.2174 11.6198H107.766C108.055 11.6367 108.344 11.5944 108.615 11.4953C108.887 11.3962 109.136 11.2425 109.345 11.0436C109.455 10.9145 109.475 10.8251 109.465 10.8152C109.455 10.8052 109.276 10.6662 108.799 10.6563H81.6824L77.749 18.9999L77.6596 19.2581ZM104.19 20.4004H101.002C100.275 20.4903 99.5394 20.3403 98.906 19.9733C98.608 19.715 98.3398 19.1985 98.7769 18.2549L99.651 16.3776C100.158 15.2949 101.32 14.7387 103.127 14.7387H108.889L107.458 17.8278C107.16 18.6131 106.696 19.3247 106.097 19.9137C105.526 20.2636 104.858 20.4203 104.19 20.3607V20.4004ZM99.6609 19.1389C100.094 19.2744 100.549 19.325 101.002 19.2879H104.19C104.619 19.3346 105.051 19.2405 105.422 19.0197C105.863 18.5403 106.201 17.9758 106.415 17.3609L107.111 15.8511H103.098C101.767 15.8511 100.932 16.1889 100.634 16.8444L99.7503 18.7217C99.696 18.8405 99.6656 18.9687 99.6609 19.0992V19.1389Z" fill="#231F20"/>
<path d="M39.6863 2.75954C38.8917 1.78612 37.1998 1.29941 34.6106 1.29941H17.5261C15.2842 1.21051 13.061 1.73968 11.0995 2.82908C9.28638 3.97763 7.8659 5.65103 7.02706 7.62665L2.86519 16.5662C1.79907 18.864 1.67656 20.5195 2.49768 21.5326C3.28237 22.4564 4.93123 22.9133 7.46411 22.9133H24.5387C26.8069 23.005 29.0579 22.4835 31.0546 21.4035C32.8696 20.2483 34.2901 18.568 35.1271 16.5861L39.2989 7.64652C40.3518 5.38183 40.4809 3.75945 39.6863 2.77941V2.75954ZM25.8399 15.8014C18.9564 20.152 11.4075 22.0194 8.95404 19.9732C6.50062 17.927 10.1062 12.7619 17.0096 8.42128C23.9129 4.08062 31.4321 2.2033 33.8954 4.23954C36.3588 6.27578 32.7234 11.4508 25.8399 15.8014Z" fill="#CF4044"/>
<path d="M24.5387 23.4496H7.46408C4.73255 23.4496 2.97443 22.9331 2.08047 21.8703C1.18652 20.8075 1.19645 18.8209 2.3586 16.3277L6.53039 7.38818C7.41587 5.31557 8.90844 3.55982 10.8115 2.35222C12.8604 1.21202 15.1828 0.655461 17.5261 0.74309H34.6106C37.4017 0.74309 39.1996 1.28941 40.1233 2.41182C41.1166 3.5839 40.9676 5.39167 39.7955 7.86495L35.6337 16.8045C34.7458 18.8895 33.2461 20.656 31.3327 21.8703C29.2511 22.9977 26.9041 23.5433 24.5387 23.4496ZM17.5261 1.85558C15.3861 1.77152 13.2637 2.27292 11.3876 3.30577C9.6761 4.40177 8.33342 5.9867 7.53361 7.85502L3.37174 16.7946C2.37846 18.8706 2.25927 20.3406 2.9347 21.1551C3.61013 21.9696 5.11 22.3371 7.46408 22.3371H24.5387C26.7056 22.4301 28.8573 21.9359 30.7666 20.9068C32.4851 19.803 33.8314 18.2074 34.6304 16.3277L38.7923 7.38818C39.7856 5.35194 39.9048 3.91168 39.2592 3.10712C38.6135 2.30255 37.0143 1.85558 34.6106 1.85558H17.5261ZM12.0431 21.3438C10.8207 21.4159 9.61069 21.0652 8.6163 20.3506C8.27016 20.0721 7.99831 19.7124 7.825 19.3033C7.65168 18.8943 7.58229 18.4488 7.62301 18.0064C7.81173 15.2153 11.3677 11.2521 16.6917 7.89476C23.8632 3.36538 31.591 1.54765 34.2033 3.77261C34.5487 4.04951 34.8201 4.40756 34.9934 4.81486C35.1667 5.22215 35.2365 5.66601 35.1966 6.10684C35.0178 8.88804 31.4619 12.8612 26.1379 16.2185C21.0324 19.4963 15.6885 21.3438 12.0431 21.3438ZM30.846 3.98121C27.6775 3.98121 22.562 5.5804 17.3274 8.88805C11.5962 12.4937 8.90435 16.1291 8.76529 18.1355C8.73433 18.3992 8.76994 18.6664 8.86884 18.9128C8.96774 19.1592 9.12678 19.3769 9.33146 19.546C11.318 21.2048 18.271 19.9135 25.5419 15.3345C31.2632 11.7189 33.955 8.08348 34.0941 6.07705C34.125 5.81336 34.0894 5.54612 33.9905 5.29974C33.8916 5.05335 33.7326 4.83568 33.5279 4.66658C32.7361 4.14392 31.7915 3.90254 30.846 3.98121Z" fill="#231F20"/>
<path d="M70.1504 22.7345C67.4983 22.7345 65.8395 22.1981 65.0648 21.0956C64.788 20.5993 64.632 20.0448 64.6096 19.4771C64.5872 18.9093 64.6989 18.3442 64.9357 17.8277L68.5711 9.96083H53.2049C51.0793 9.96083 50.6125 11.1726 50.5926 11.2223V11.272L47.6127 17.6489C47.4638 17.9468 47.424 18.1654 47.4836 18.2647C47.5432 18.364 48.3676 18.5826 48.8246 18.5528H55.8769C57.3417 18.5423 58.796 18.3044 60.1877 17.8475L61.777 17.2615L58.1515 22.7643H40.2128C37.8785 22.7643 36.2396 22.1484 35.5046 20.9863C35.1898 20.443 35.024 19.8263 35.024 19.1984C35.024 18.5705 35.1898 17.9537 35.5046 17.4105L38.4844 10.9343C41.0571 5.54071 47.424 5.7493 47.7319 5.75923H70.4782L72.0674 2.34232H84.3742L82.7751 5.78903H114.779C117.759 5.78903 119.556 6.37507 120.331 7.54715C121.205 8.88808 120.58 10.6561 119.795 12.5136L116.159 20.3804C115.762 21.2644 115.921 21.473 116.159 21.7909L116.378 22.0988L116.289 21.7313L116.626 21.5425L117.262 21.2148C117.988 20.3697 118.569 19.4097 118.98 18.374L122.953 9.76217C123.269 9.17426 123.503 8.54601 123.649 7.8948C123.679 7.42562 123.586 6.95667 123.381 6.53399L123.112 5.78903H136.025L135.817 6.55386C135.94 6.4689 136.07 6.39258 136.204 6.32541C136.961 5.95698 137.795 5.77317 138.637 5.78903H147.527C150.358 5.78903 152.126 6.40487 152.941 7.68621C153.666 8.81855 153.557 10.3979 152.633 12.3745L149.653 18.8408C149.334 19.4561 149.088 20.106 148.918 20.7777C148.908 21.1978 149.011 21.6129 149.216 21.9796L149.603 22.7742H133.611L135.201 21.5922C135.558 21.324 135.926 21.0558 136.293 20.7678C136.853 20.0226 137.326 19.2162 137.704 18.364L141.349 10.527C141.427 10.3767 141.484 10.2162 141.518 10.0502C141.224 9.9934 140.924 9.97007 140.624 9.9807H136.591C136.156 9.95471 135.72 10.019 135.31 10.1694C135.181 10.1694 134.933 10.3979 134.654 11.0038L131.009 18.8309C130.675 19.4587 130.421 20.1261 130.254 20.8174C130.239 21.238 130.343 21.6544 130.552 22.0193L130.9 22.804H104.18L104.31 21.8902C103.114 22.5402 101.766 22.8558 100.406 22.804H91.5855C88.9632 22.804 87.4932 22.357 86.8177 21.3638C86.4468 20.7724 86.322 20.0594 86.4701 19.3772L84.2253 22.7146H70.2001L70.1504 22.7345ZM65.9687 18.225C65.7877 18.5696 65.6931 18.9531 65.6931 19.3424C65.6931 19.7317 65.7877 20.1152 65.9687 20.4599C66.505 21.2148 67.9552 21.622 70.1504 21.622H83.5697L85.0298 19.407C84.2647 19.5624 83.4862 19.6422 82.7055 19.6454H77.8682C76.8749 19.6454 76.2293 19.6454 75.8817 19.1289C75.7814 18.9201 75.7361 18.6892 75.75 18.458C75.7639 18.2268 75.8366 18.003 75.9611 17.8078L80.1528 8.86822H107.965C109.276 8.86822 109.743 9.52379 109.743 10.1297C109.743 11.0535 108.61 12.0368 106.932 12.0467H96.4228C93.731 12.0467 90.9895 12.4738 89.1917 15.6325C88.8838 16.2583 88.0196 18.0561 87.8805 18.4236C87.4634 19.4964 87.4137 20.2413 87.7316 20.7082C88.1686 21.3538 89.4301 21.7015 91.5855 21.7015H100.406C102.392 21.7015 103.803 21.185 104.637 20.1817L105.889 18.6719L105.462 21.7015H114.918C114.811 21.1062 114.913 20.4923 115.206 19.9632L118.841 12.0964C119.507 10.5469 120.043 9.11654 119.467 8.20272C118.891 7.2889 117.381 6.96111 114.838 6.94124H81.0666L82.6658 3.50447H72.8223L71.2331 6.91145H47.7518C47.6624 6.91145 41.7921 6.72271 39.5274 11.4508L36.5475 17.9071C36.316 18.2833 36.1836 18.712 36.1628 19.1532C36.1419 19.5945 36.2333 20.0338 36.4283 20.4301C36.9548 21.2446 38.2957 21.6915 40.2028 21.6915H57.5754L59.1249 19.3374C58.0672 19.5659 56.9888 19.6857 55.9067 19.695H48.8742C48.5365 19.695 47.1062 19.7546 46.54 18.9004C46.3873 18.6392 46.3118 18.34 46.3224 18.0375C46.3329 17.7351 46.429 17.4419 46.5996 17.1919L49.5795 10.8548C49.6887 10.5568 50.4535 8.86822 53.2248 8.86822H70.3193L65.9687 18.225ZM136.949 21.6021H147.954C147.848 21.2585 147.818 20.8959 147.865 20.5393C148.048 19.7668 148.325 19.0195 148.689 18.3144L151.669 11.8381C152.424 10.229 152.543 9.01721 152.047 8.23252C151.55 7.44782 149.951 6.83198 147.567 6.83198H138.677C138.011 6.81959 137.351 6.96242 136.75 7.24916C136.216 7.57111 135.714 7.94365 135.25 8.36164L133.89 9.54365L134.625 6.83198H124.692C124.796 7.21343 124.826 7.61123 124.781 8.00405C124.61 8.75675 124.343 9.48444 123.986 10.1694L120.013 18.7812C119.581 19.781 119.034 20.7276 118.384 21.6021H129.231C129.128 21.2648 129.094 20.91 129.132 20.5592C129.321 19.7763 129.605 19.0192 129.976 18.3044L133.631 10.4674C133.86 9.86155 134.306 9.36241 134.883 9.06687C135.434 8.85748 136.022 8.76285 136.611 8.78876H140.644C141.637 8.78876 142.183 8.92781 142.452 9.26553C142.899 9.81184 142.501 10.6462 142.372 10.9243L138.727 18.7514C138.307 19.706 137.773 20.6065 137.138 21.4333L137.048 21.5227L136.949 21.6021ZM76.8948 18.4832C77.2257 18.5009 77.5572 18.5009 77.8881 18.4832H82.7651C83.9173 18.4783 85.0611 18.2871 86.1522 17.9171L87.0065 17.5992C87.3541 16.8244 88.1289 15.2253 88.2282 15.0167C90.334 11.3316 93.5621 10.8448 96.4427 10.8448H106.972C107.26 10.8618 107.549 10.8195 107.821 10.7204C108.092 10.6213 108.341 10.4676 108.551 10.2688C108.613 10.2063 108.654 10.1267 108.67 10.0403C108.67 10.0403 108.481 9.89131 108.005 9.88138H80.8878L76.9842 18.215L76.8948 18.4832ZM178.587 22.7146H156.288C153.785 22.7146 152.216 22.3074 151.481 21.4829C150.746 20.6585 150.775 19.1587 151.729 17.1324L154.659 10.8349C155.33 9.19792 156.493 7.80963 157.987 6.86178C159.763 6.0037 161.729 5.61392 163.698 5.72943H180.495C182.998 5.72943 184.577 6.12675 185.332 6.96111C186.087 7.79547 186.057 9.27546 185.113 11.3018L182.68 16.5463H164.205L163.658 17.6985C163.561 17.8521 163.529 18.0378 163.569 18.215C163.569 18.215 163.797 18.523 164.95 18.523H175.608C176.998 18.523 177.962 18.5229 178.488 18.4336C179.244 18.312 179.986 18.1157 180.703 17.8475L182.273 17.3111L178.587 22.7146ZM163.688 6.82205C161.914 6.71939 160.142 7.06078 158.533 7.81534C157.24 8.65035 156.238 9.86466 155.662 11.2918L152.683 17.5992C151.957 19.1388 151.818 20.2215 152.265 20.738C152.712 21.2545 153.576 21.5922 156.238 21.5922H177.972L179.491 19.3474C179.165 19.4332 178.833 19.493 178.498 19.5262C177.507 19.6054 176.512 19.6353 175.518 19.6156H164.95C163.738 19.6156 162.963 19.3573 162.625 18.8011C162.489 18.5603 162.417 18.2883 162.417 18.0114C162.417 17.7346 162.489 17.4625 162.625 17.2218L163.46 15.4239H181.925L184.07 10.825C184.786 9.2854 184.925 8.20272 184.468 7.68621C184.011 7.1697 183.127 6.82205 180.495 6.82205H163.688ZM23.764 22.7146H6.74897C4.01743 22.7146 2.25931 22.1981 1.35542 21.1353C0.451535 20.0725 0.481334 18.0859 1.64348 15.5928L5.81528 6.6532C6.70395 4.58257 8.19579 2.82766 10.0963 1.61723C12.147 0.481296 14.4682 -0.0749614 16.811 0.00811228H33.8955C36.6866 0.00811228 38.4845 0.554412 39.3983 1.67683C40.3916 2.8489 40.2426 4.65669 39.0705 7.12997L34.9086 16.0695C34.0208 18.1545 32.521 19.921 30.6077 21.1353C28.5144 22.2697 26.1527 22.8155 23.7739 22.7146H23.764ZM16.7613 1.12059C14.6212 1.03552 12.4985 1.53699 10.6228 2.57079C8.89913 3.6626 7.54812 5.25263 6.74897 7.12997L2.5871 16.0695C1.59381 18.1455 1.47462 19.6156 2.14012 20.4301C2.80562 21.2446 4.32535 21.6121 6.67944 21.6121H23.7739C25.9408 21.705 28.0926 21.2108 30.0018 20.1817C31.7203 19.078 33.0667 17.4824 33.8657 15.6027L38.0275 6.66312C39.0208 4.67655 39.14 3.18662 38.4944 2.39199C37.8487 1.59736 36.2496 1.12059 33.8458 1.12059H16.7613ZM11.2784 20.6089C10.0554 20.6859 8.84372 20.3347 7.85151 19.6156C7.50331 19.3389 7.22998 18.9794 7.05647 18.5699C6.88296 18.1604 6.8148 17.714 6.85823 17.2714C7.04695 14.4902 10.6029 10.5171 15.9269 7.15977C23.0985 2.63038 30.8262 0.812662 33.4386 3.03762C33.7832 3.31509 34.0542 3.67325 34.2274 4.08039C34.4007 4.48753 34.4709 4.93111 34.4318 5.37185C34.2531 8.16298 30.6971 12.1262 25.3731 15.4835C20.2676 18.7614 14.9038 20.6089 11.2784 20.6089ZM30.0812 3.24622C26.9027 3.24622 21.7972 4.84541 16.5527 8.15305C10.8314 11.7587 8.13957 15.3941 8.00051 17.4005C7.96929 17.6633 8.00377 17.9297 8.10085 18.1759C8.19793 18.422 8.35457 18.6403 8.55675 18.811C10.5433 20.4797 17.4963 19.1785 24.7771 14.5995C30.4984 10.9839 33.1902 7.34848 33.3194 5.35198C33.3543 5.08898 33.3215 4.82141 33.2242 4.5746C33.1269 4.32778 32.9682 4.10989 32.7631 3.94152C31.9745 3.41101 31.0283 3.16571 30.0812 3.24622ZM103.425 19.6255H100.237C99.5105 19.7169 98.774 19.5668 98.1412 19.1984C97.8432 18.9401 97.575 18.4236 98.0121 17.48L98.8862 15.6027C99.3927 14.52 100.555 13.9638 102.363 13.9638H108.124L106.693 17.0628C106.393 17.8442 105.929 18.5521 105.333 19.1388C104.766 19.5013 104.097 19.6719 103.425 19.6255ZM98.8961 18.374C99.3301 18.5059 99.7847 18.5565 100.237 18.523H103.425C103.854 18.5641 104.285 18.4703 104.657 18.2548C105.096 17.7704 105.434 17.203 105.65 16.5861L106.346 15.0763H102.323C100.992 15.0763 100.158 15.414 99.8596 16.0695L98.9756 17.9469C98.921 18.0825 98.894 18.2277 98.8961 18.374ZM173.393 13.4075H164.403L165.784 10.4277C166.005 9.85956 166.42 9.38807 166.956 9.09667C167.446 8.87734 167.979 8.77206 168.516 8.78876H173.045C173.335 8.74764 173.632 8.78383 173.904 8.8937C174.176 9.00356 174.414 9.18321 174.594 9.41453C174.723 9.63984 174.791 9.89493 174.791 10.1545C174.791 10.4141 174.723 10.6692 174.594 10.8945L173.393 13.4075ZM166.151 12.2951H172.677L173.542 10.4475C173.691 10.1396 173.661 10.0304 173.661 10.0204C173.468 9.93324 173.255 9.89896 173.045 9.9211H168.516C168.148 9.90829 167.782 9.97609 167.443 10.1198C167.141 10.3033 166.91 10.5833 166.787 10.9144L166.151 12.2951Z" fill="white"/>
<path d="M186.693 33.9487C186.677 34.7445 186.35 35.5023 185.782 36.0595C185.213 36.6167 184.449 36.9287 183.653 36.9286L1.88187 36.9783L2.36858 37.455V30.0253C2.38415 29.2312 2.70988 28.4748 3.27607 27.9179C3.84226 27.361 4.60393 27.0478 5.3981 27.0454H187.169L186.683 26.5587L186.693 33.9487ZM187.189 26.0024H5.41797C4.36422 26.0024 3.35364 26.421 2.60853 27.1661C1.86342 27.9113 1.44482 28.9218 1.44482 29.9756V37.9219H1.93154H183.703C184.757 37.9219 185.767 37.5033 186.512 36.7582C187.257 36.0131 187.676 35.0025 187.676 33.9487V26.0024H187.189Z" fill="#010101"/>
<path d="M18.3009 29.2007C18.8968 29.2007 19.1948 29.3795 19.1948 29.747C19.1948 30.1145 18.8968 30.2834 18.3009 30.2834H11.2485V31.6938H18.3009C18.8968 31.6938 19.1948 31.8726 19.1948 32.2401C19.1948 32.6077 18.8968 32.7765 18.3009 32.7765H11.2485V34.7631C11.2485 35.1207 10.9506 35.2995 10.3546 35.2995C9.75862 35.2995 9.46063 35.1207 9.46063 34.7631V29.7966C9.46063 29.5384 9.69902 29.2603 10.3546 29.2603H18.3009" fill="#010101"/>
<path d="M38.2163 34.7433C38.2163 35.1009 37.9283 35.2797 37.3323 35.2797C36.7363 35.2797 36.4384 35.1009 36.4384 34.7433V29.7769C36.4384 29.4193 36.7363 29.2405 37.3323 29.2405C37.9283 29.2405 38.2163 29.4193 38.2163 29.7769V34.7433Z" fill="#010101"/>
<path d="M66.1375 29.747C66.1375 30.1046 65.8296 30.2834 65.2336 30.2834H62.1544V34.7432C62.1544 35.1008 61.8564 35.2796 61.2604 35.2796C60.6645 35.2796 60.3665 35.1008 60.3665 34.7432V30.2834H57.3072C56.7112 30.2834 56.4132 30.1046 56.4132 29.747C56.4132 29.3795 56.7112 29.2007 57.3072 29.2007H65.2535C65.8395 29.2007 66.1474 29.3795 66.1474 29.747" fill="#010101"/>
<path d="M93.3535 34.7631C93.3535 35.1803 93.0356 35.4981 92.4397 35.3789C92.0026 35.2995 90.0955 34.2565 86.7481 32.0117L85.4171 31.1177V34.7432C85.4171 35.1008 85.1192 35.2796 84.5232 35.2796C83.9371 35.2796 83.6392 35.1008 83.6392 34.7432V29.7073C83.6392 28.714 84.6324 29.1212 84.6324 29.1212C85.0099 29.2802 87.0859 30.5118 91.0987 33.1441L91.6152 33.4818V29.7371C91.6152 29.3795 91.9033 29.2007 92.4893 29.2007C93.0754 29.2007 93.3932 29.3795 93.3932 29.7371V34.7631" fill="#010101"/>
<path d="M121.285 34.7333C121.285 35.1009 120.987 35.2797 120.391 35.2797H112.445C112.196 35.2797 111.57 35.2797 111.551 34.7433V29.7769C111.551 29.2604 112.057 29.2504 112.445 29.2405H120.391C120.987 29.2405 121.285 29.4193 121.285 29.7868C121.285 30.1543 120.987 30.3232 120.391 30.3232H113.338V31.7336H120.391C120.987 31.7336 121.285 31.9124 121.285 32.2799C121.285 32.6474 120.987 32.8163 120.391 32.8163H113.338V34.2268H120.391C120.987 34.2268 121.285 34.4155 121.285 34.7731" fill="#010101"/>
<path d="M148.56 34.7432C148.56 35.2001 148.054 35.2796 147.666 35.2796H139.72C139.124 35.2796 138.826 35.1008 138.826 34.7333C138.826 34.3658 139.124 34.187 139.72 34.187H146.802V32.8063H139.651C138.945 32.8063 138.836 32.4984 138.836 32.1408V29.7271C138.836 29.2503 139.492 29.2106 139.73 29.2007H147.676C148.272 29.2007 148.57 29.3795 148.57 29.747C148.57 30.1145 148.272 30.2834 147.676 30.2834H140.624V31.7236H147.796C148.64 31.7236 148.61 32.1905 148.61 32.5481V34.7432" fill="#010101"/>
<path d="M176.233 34.7432C176.233 35.2001 175.737 35.2796 175.339 35.2796H167.393C166.797 35.2796 166.499 35.1008 166.499 34.7333C166.499 34.3658 166.797 34.187 167.393 34.187H174.445V32.8063H167.314C166.618 32.8063 166.499 32.4984 166.499 32.1408V29.7271C166.499 29.2503 167.155 29.2106 167.393 29.2007H175.339C175.935 29.2007 176.233 29.3795 176.233 29.747C176.233 30.1145 175.935 30.2834 175.339 30.2834H168.297V31.7236H175.419C176.273 31.7236 176.233 32.1905 176.233 32.5481V34.7432Z" fill="#010101"/>
<path d="M183.623 19.6354C183.955 19.6314 184.28 19.7262 184.557 19.9076C184.834 20.089 185.051 20.3488 185.18 20.6539C185.309 20.9591 185.344 21.2957 185.282 21.621C185.219 21.9462 185.06 22.2454 184.827 22.4804C184.593 22.7154 184.295 22.8755 183.97 22.9404C183.645 23.0053 183.308 22.972 183.002 22.8448C182.696 22.7175 182.435 22.5021 182.252 22.226C182.069 21.9498 181.973 21.6255 181.974 21.2942C181.972 21.0764 182.013 20.8604 182.094 20.6586C182.176 20.4568 182.297 20.2733 182.451 20.1189C182.604 19.9644 182.787 19.8421 182.988 19.7591C183.19 19.6761 183.406 19.634 183.623 19.6354ZM183.623 19.8936C183.342 19.8797 183.063 19.9505 182.822 20.0968C182.581 20.2431 182.389 20.4582 182.272 20.7144C182.154 20.9706 182.116 21.2561 182.163 21.5341C182.209 21.8122 182.337 22.0699 182.532 22.2742C182.726 22.4785 182.977 22.6199 183.252 22.6802C183.527 22.7405 183.814 22.7169 184.076 22.6125C184.338 22.5081 184.563 22.3277 184.721 22.0944C184.879 21.8612 184.964 21.586 184.964 21.3041C184.971 21.1229 184.941 20.9422 184.877 20.7727C184.813 20.6031 184.716 20.4481 184.591 20.3167C184.466 20.1853 184.316 20.0802 184.15 20.0075C183.984 19.9349 183.805 19.8961 183.623 19.8936ZM183.315 22.2576H183.027V20.4101C183.199 20.3975 183.372 20.3975 183.544 20.4101C183.746 20.3968 183.947 20.4453 184.12 20.5492C184.176 20.5939 184.221 20.6515 184.251 20.7172C184.28 20.7829 184.293 20.8548 184.289 20.9266C184.29 21.032 184.255 21.1344 184.19 21.2174C184.125 21.3003 184.034 21.3589 183.931 21.3835C184.09 21.3835 184.199 21.5624 184.239 21.8305C184.252 21.9886 184.292 22.1432 184.358 22.2874H184.05C183.978 22.1415 183.934 21.983 183.921 21.8206C183.919 21.7721 183.907 21.7247 183.885 21.6813C183.863 21.6379 183.833 21.5996 183.795 21.5687C183.758 21.5378 183.714 21.5151 183.668 21.502C183.621 21.489 183.572 21.4858 183.524 21.4928H183.315V22.2576ZM183.315 21.2644H183.554C183.792 21.2644 184.001 21.175 184.001 20.9465C184.001 20.7181 183.882 20.6287 183.554 20.6287H183.335L183.315 21.2644Z" fill="#010101"/>
</svg>
