<svg width="162" height="26" viewBox="0 0 162 26" fill="none" xmlns="http://www.w3.org/2000/svg">
<path d="M14.792 3.82596C15.1422 1.99381 16.7858 0.431092 18.6449 0.0808271C18.8874 0.0269402 18.7257 0 18.6449 0H14.4956C12.367 0 10.2924 1.72437 9.88824 3.79902L5.73895 25.246H6.7628C8.89134 25.246 10.966 23.5486 11.3701 21.447L14.792 3.82596Z" fill="#03AFCC"/>
<path d="M43.7831 0H30.8503C28.7217 0 26.6471 1.72437 26.2429 3.79902L22.0936 25.246H24.761C26.8896 25.246 28.9642 23.5486 29.3684 21.447L32.4669 5.44257C32.5746 4.93065 33.0866 4.49955 33.6254 4.49955H39.7146C40.2535 4.49955 40.6038 4.93065 40.496 5.44257L39.4722 10.6696C39.3644 11.1815 38.8525 11.6126 38.3136 11.6126H32.2244L32.0896 12.2593C31.6855 14.3609 33.0866 16.0583 35.242 16.0583H40.6577C42.7862 16.0583 44.8608 14.3339 45.265 12.2593L46.9085 3.79902C47.3396 1.72437 45.9386 0 43.7831 0Z" fill="#424242"/>
<path d="M105.591 24.5722C105.996 22.4707 104.594 20.7732 102.439 20.7732H96.727C96.1881 20.7732 95.8379 20.3421 95.9456 19.8302L98.7208 5.46935C98.8286 4.95742 99.3405 4.52632 99.8794 4.52632H105.591C107.72 4.52632 109.795 2.80194 110.199 0.727297L110.333 0.0537109H97.1042C94.9757 0.0537109 92.901 1.77809 92.4969 3.85274L89.102 21.5007C88.6979 23.6023 90.0989 25.2997 92.2544 25.2997H105.457L105.591 24.5722Z" fill="#424242"/>
<path d="M114.725 19.8304L117.5 5.44257C117.608 4.93065 118.12 4.49955 118.659 4.49955H124.748C125.287 4.49955 125.637 4.93065 125.53 5.44257L122.754 19.8304C122.647 20.3423 122.135 20.7734 121.596 20.7734H115.507C114.995 20.7734 114.644 20.3423 114.725 19.8304ZM129.248 0H115.911C113.782 0 111.708 1.72437 111.303 3.79902L107.908 21.447C107.504 23.5486 108.932 25.246 111.061 25.246H124.398C126.526 25.246 128.601 23.5216 129.005 21.447L132.427 3.79902C132.804 1.72437 131.376 0 129.248 0Z" fill="#424242"/>
<path d="M68.4633 12.2593L70.1069 3.79902C70.511 1.69743 69.11 0 66.9545 0H54.0216C51.8931 0 49.8185 1.72437 49.4143 3.79902L45.265 25.246H51.8123L55.6382 5.41563C55.746 4.87676 56.2579 4.47261 56.7968 4.47261H62.886C63.4249 4.47261 63.7752 4.9037 63.6674 5.41563L62.6435 10.6427C62.5358 11.1546 62.0238 11.5857 61.485 11.5857H55.3957L55.261 12.2323C55.1802 12.6634 55.0994 13.5526 55.4766 14.2531L61.7005 25.2191H68.6789L63.4788 16.0314H63.829C65.9845 16.0852 68.0592 14.3609 68.4633 12.2593Z" fill="#424242"/>
<path d="M153.928 12.2593L155.571 3.79902C155.976 1.69743 154.548 0 152.419 0H139.486C137.358 0 135.283 1.72437 134.879 3.79902L130.73 25.246H137.277L141.103 5.41563C141.211 4.87676 141.723 4.47261 142.261 4.47261H148.351C148.89 4.47261 149.24 4.9037 149.132 5.41563L148.108 10.6427C148 11.1546 147.488 11.5857 146.95 11.5857H140.887L140.753 12.2323C140.672 12.6634 140.591 13.5526 140.968 14.2531L147.192 25.2191H154.17L148.97 16.0852H149.321C151.449 16.0852 153.524 14.3609 153.928 12.2593Z" fill="#424242"/>
<path d="M23.7911 3.82596C24.1413 1.99381 25.7849 0.458035 27.617 0.0808271C27.8865 0.0269402 27.7248 0 27.644 0H21.8781C19.7495 0 17.6749 1.72437 17.2707 3.79902L13.1215 25.246H15.7619C17.8904 25.246 19.9651 23.5486 20.3692 21.447L23.7911 3.82596Z" fill="#026496"/>
<path d="M4.14929 3.82596L0 25.2191C1.91298 24.9227 3.63737 23.36 3.98763 21.4739L7.40945 3.82596C7.75971 1.99381 9.40326 0.431092 11.2624 0.0808271C11.5049 0.0269402 11.3162 0 11.2624 0H8.78356C6.62809 0 4.55344 1.72438 4.14929 3.82596Z" fill="#8ED7F4"/>
<path d="M77.651 0C75.5225 0 73.4478 1.72437 73.0437 3.79902L69.6488 21.447C69.2446 23.5486 70.6726 25.246 72.8012 25.246H86.677L86.8118 24.5724C87.2159 22.4708 85.8149 20.7734 83.6594 20.7734H77.2738C76.7349 20.7734 76.3846 20.3423 76.4924 19.8304L77.4624 14.8189H86.3807L87.2429 10.4002H78.3246L79.2945 5.46952C79.4023 4.95759 79.9142 4.5265 80.4531 4.5265H86.8387C88.9672 4.5265 91.0419 2.80211 91.446 0.727468L91.5808 0.053882H77.651V0Z" fill="#424242"/>
<path d="M159.371 0.0268555C160.637 0.0268555 161.661 1.05071 161.661 2.31705C161.661 3.58339 160.637 4.60724 159.371 4.60724C158.104 4.60724 157.08 3.58339 157.08 2.31705C157.08 1.05071 158.104 0.0268555 159.371 0.0268555ZM159.371 4.06837C160.34 4.06837 161.095 3.28701 161.095 2.34399C161.095 1.37403 160.314 0.619615 159.371 0.619615C158.401 0.619615 157.646 1.40097 157.646 2.34399C157.646 3.28701 158.401 4.06837 159.371 4.06837ZM159.02 3.31396C159.02 3.47562 158.966 3.61034 158.751 3.61034C158.535 3.61034 158.481 3.50256 158.481 3.31396V1.40097C158.481 1.26626 158.535 1.13154 158.778 1.13154H159.478C159.99 1.13154 160.394 1.2932 160.394 1.85901C160.394 2.29011 160.179 2.5326 159.775 2.5326L160.206 3.26007C160.233 3.31396 160.233 3.36784 160.233 3.39479C160.233 3.5295 160.152 3.61034 159.936 3.61034C159.748 3.61034 159.667 3.44868 159.586 3.31396L159.182 2.58648H158.993V3.31396H159.02ZM159.478 2.12845C159.694 2.12845 159.802 2.07456 159.802 1.85901C159.802 1.64347 159.694 1.58958 159.478 1.58958H159.02V2.15539H159.478V2.12845Z" fill="#424242"/>
</svg>
