<svg width="484" height="363" viewBox="0 0 484 363" fill="none" xmlns="http://www.w3.org/2000/svg">
<g filter="url(#filter0_iiii_501_188)">
<path d="M249.893 347.472C284.339 339.469 273.997 290.578 304.266 275.402C343.868 255.545 406.389 278.88 439.417 252.447C472.939 225.618 476.976 180.892 470.231 142.573C462.936 101.129 441.581 58.48 400.607 31.9617C360.115 5.75514 304.468 -0.907096 253.459 2.27751C208.26 5.09936 175.199 33.0864 134.591 48.5697C95.3329 63.5383 42.8386 62.8192 18.7218 91.7801C-5.43641 120.791 -1.64391 161.578 12.2953 195.43C24.6238 225.37 61.4925 242.705 89.9275 264.705C111.655 281.515 133.889 295.998 159.216 309.102C188.567 324.288 217.034 355.106 249.893 347.472Z" fill="#2AB1AD"/>
</g>
<defs>
<filter id="filter0_iiii_501_188" x="-11" y="-16" width="494.355" height="394.829" filterUnits="userSpaceOnUse" color-interpolation-filters="sRGB">
<feFlood flood-opacity="0" result="BackgroundImageFix"/>
<feBlend mode="normal" in="SourceGraphic" in2="BackgroundImageFix" result="shape"/>
<feColorMatrix in="SourceAlpha" type="matrix" values="0 0 0 0 0 0 0 0 0 0 0 0 0 0 0 0 0 0 127 0" result="hardAlpha"/>
<feOffset dy="16"/>
<feGaussianBlur stdDeviation="16"/>
<feComposite in2="hardAlpha" operator="arithmetic" k2="-1" k3="1"/>
<feColorMatrix type="matrix" values="0 0 0 0 0 0 0 0 0 0 0 0 0 0 0 0 0 0 0.16 0"/>
<feBlend mode="normal" in2="shape" result="effect1_innerShadow_501_188"/>
<feColorMatrix in="SourceAlpha" type="matrix" values="0 0 0 0 0 0 0 0 0 0 0 0 0 0 0 0 0 0 127 0" result="hardAlpha"/>
<feOffset dy="8"/>
<feGaussianBlur stdDeviation="8"/>
<feComposite in2="hardAlpha" operator="arithmetic" k2="-1" k3="1"/>
<feColorMatrix type="matrix" values="0 0 0 0 0 0 0 0 0 0 0 0 0 0 0 0 0 0 0.12 0"/>
<feBlend mode="normal" in2="effect1_innerShadow_501_188" result="effect2_innerShadow_501_188"/>
<feColorMatrix in="SourceAlpha" type="matrix" values="0 0 0 0 0 0 0 0 0 0 0 0 0 0 0 0 0 0 127 0" result="hardAlpha"/>
<feOffset dy="4"/>
<feGaussianBlur stdDeviation="4"/>
<feComposite in2="hardAlpha" operator="arithmetic" k2="-1" k3="1"/>
<feColorMatrix type="matrix" values="0 0 0 0 0 0 0 0 0 0 0 0 0 0 0 0 0 0 0.12 0"/>
<feBlend mode="normal" in2="effect2_innerShadow_501_188" result="effect3_innerShadow_501_188"/>
<feColorMatrix in="SourceAlpha" type="matrix" values="0 0 0 0 0 0 0 0 0 0 0 0 0 0 0 0 0 0 127 0" result="hardAlpha"/>
<feOffset dy="2"/>
<feGaussianBlur stdDeviation="2"/>
<feComposite in2="hardAlpha" operator="arithmetic" k2="-1" k3="1"/>
<feColorMatrix type="matrix" values="0 0 0 0 0 0 0 0 0 0 0 0 0 0 0 0 0 0 0.12 0"/>
<feBlend mode="normal" in2="effect3_innerShadow_501_188" result="effect4_innerShadow_501_188"/>
</filter>
</defs>
</svg>
