<svg width="514" height="371" viewBox="0 0 514 371" fill="none" xmlns="http://www.w3.org/2000/svg">
<path d="M328.627 367.572C288.665 376.953 278.081 324.522 239.381 324.887C188.745 325.366 132.88 379.012 86.3038 369.861C39.031 360.572 15.0704 319.317 5.33622 278.9C-5.19191 235.187 -1.37661 183.319 30.2937 137.303C61.5916 91.8274 117.526 57.7236 172.889 35.4498C221.945 15.7133 269.24 26.3509 319.014 21.1432C367.133 16.1086 422.349 -10.6794 460.61 5.34619C498.938 21.3993 512.882 62.7365 513.039 102.409C513.178 137.497 481.807 172.59 461.412 208.004C445.828 235.063 428.682 260.123 407.659 285.387C383.295 314.666 366.749 358.624 328.627 367.572Z" fill="#484C9A"/>
</svg>
