<svg width="1425" height="1437" viewBox="0 0 1425 1437" fill="none" xmlns="http://www.w3.org/2000/svg">
<g filter="url(#filter0_iiii_498_3465)">
<path d="M472.669 1284.55C386.814 1231.64 456.286 1077.47 387.779 1003.97C298.145 907.805 110.059 937.269 43.7176 824.333C-23.6163 709.708 3.62303 558.339 54.4128 436.471C109.345 304.661 203.133 179.63 335.961 123.104C467.227 67.2435 622.619 87.7873 757.143 137.422C876.344 181.403 941.452 299.515 1037.52 381.954C1130.39 461.654 1272.23 499.485 1312.44 613.972C1352.73 728.657 1307.78 860.971 1241.44 962.519C1182.76 1052.33 1068.8 1081.56 973.557 1132.71C900.781 1171.8 828.622 1202.78 749.319 1226.82C657.413 1254.68 554.573 1335.04 472.669 1284.55Z" fill="#F5F5F5"/>
</g>
<defs>
<filter id="filter0_iiii_498_3465" x="-109" y="0" width="1533.69" height="1452.04" filterUnits="userSpaceOnUse" color-interpolation-filters="sRGB">
<feFlood flood-opacity="0" result="BackgroundImageFix"/>
<feBlend mode="normal" in="SourceGraphic" in2="BackgroundImageFix" result="shape"/>
<feColorMatrix in="SourceAlpha" type="matrix" values="0 0 0 0 0 0 0 0 0 0 0 0 0 0 0 0 0 0 127 0" result="hardAlpha"/>
<feOffset dy="16"/>
<feGaussianBlur stdDeviation="16"/>
<feComposite in2="hardAlpha" operator="arithmetic" k2="-1" k3="1"/>
<feColorMatrix type="matrix" values="0 0 0 0 0 0 0 0 0 0 0 0 0 0 0 0 0 0 0.16 0"/>
<feBlend mode="normal" in2="shape" result="effect1_innerShadow_498_3465"/>
<feColorMatrix in="SourceAlpha" type="matrix" values="0 0 0 0 0 0 0 0 0 0 0 0 0 0 0 0 0 0 127 0" result="hardAlpha"/>
<feOffset dy="8"/>
<feGaussianBlur stdDeviation="8"/>
<feComposite in2="hardAlpha" operator="arithmetic" k2="-1" k3="1"/>
<feColorMatrix type="matrix" values="0 0 0 0 0 0 0 0 0 0 0 0 0 0 0 0 0 0 0.12 0"/>
<feBlend mode="normal" in2="effect1_innerShadow_498_3465" result="effect2_innerShadow_498_3465"/>
<feColorMatrix in="SourceAlpha" type="matrix" values="0 0 0 0 0 0 0 0 0 0 0 0 0 0 0 0 0 0 127 0" result="hardAlpha"/>
<feOffset dy="4"/>
<feGaussianBlur stdDeviation="4"/>
<feComposite in2="hardAlpha" operator="arithmetic" k2="-1" k3="1"/>
<feColorMatrix type="matrix" values="0 0 0 0 0 0 0 0 0 0 0 0 0 0 0 0 0 0 0.12 0"/>
<feBlend mode="normal" in2="effect2_innerShadow_498_3465" result="effect3_innerShadow_498_3465"/>
<feColorMatrix in="SourceAlpha" type="matrix" values="0 0 0 0 0 0 0 0 0 0 0 0 0 0 0 0 0 0 127 0" result="hardAlpha"/>
<feOffset dy="2"/>
<feGaussianBlur stdDeviation="2"/>
<feComposite in2="hardAlpha" operator="arithmetic" k2="-1" k3="1"/>
<feColorMatrix type="matrix" values="0 0 0 0 0 0 0 0 0 0 0 0 0 0 0 0 0 0 0.12 0"/>
<feBlend mode="normal" in2="effect3_innerShadow_498_3465" result="effect4_innerShadow_498_3465"/>
</filter>
</defs>
</svg>
