<svg width="16" height="15" viewBox="0 0 16 15" fill="none" xmlns="http://www.w3.org/2000/svg">
<path d="M8.66699 3.83268C8.66699 3.46449 8.36851 3.16602 8.00033 3.16602C7.63213 3.16602 7.33366 3.46449 7.33366 3.83268V7.49935C7.33366 7.67616 7.4039 7.84573 7.52892 7.97075L9.52892 9.97075C9.78927 10.2311 10.2114 10.2311 10.4717 9.97075C10.7321 9.7104 10.7321 9.28829 10.4717 9.02794L8.66699 7.22321V3.83268Z" fill="#787A80"/>
<path fill-rule="evenodd" clip-rule="evenodd" d="M8.00033 0.166016C3.95024 0.166016 0.666992 3.44926 0.666992 7.49935C0.666992 11.5494 3.95024 14.8327 8.00033 14.8327C12.0504 14.8327 15.3337 11.5494 15.3337 7.49935C15.3337 3.44926 12.0504 0.166016 8.00033 0.166016ZM2.00033 7.49935C2.00033 4.18564 4.68662 1.49935 8.00033 1.49935C11.314 1.49935 14.0003 4.18564 14.0003 7.49935C14.0003 10.8131 11.314 13.4993 8.00033 13.4993C4.68662 13.4993 2.00033 10.8131 2.00033 7.49935Z" fill="#787A80"/>
</svg>
