<svg width="18" height="18" viewBox="0 0 18 18" fill="none" xmlns="http://www.w3.org/2000/svg">
<path d="M17.3174 5.56704C17.2783 4.68147 17.1351 4.07266 16.93 3.54511C16.7183 2.98513 16.3927 2.48378 15.9662 2.06701C15.5494 1.64375 15.0447 1.31485 14.4913 1.10653C13.9607 0.901388 13.355 0.758181 12.4695 0.719137C11.5773 0.676785 11.294 0.666992 9.03124 0.666992C6.76843 0.666992 6.4852 0.676785 5.59633 0.71583C4.71076 0.754875 4.10195 0.898208 3.57453 1.10322C3.01442 1.31485 2.51307 1.64044 2.0963 2.06701C1.67304 2.48378 1.34428 2.98843 1.13583 3.54193C0.930684 4.07266 0.787478 4.67817 0.748433 5.56373C0.706082 6.45591 0.696289 6.73914 0.696289 9.00195C0.696289 11.2648 0.706082 11.548 0.745127 12.4369C0.784171 13.3224 0.927505 13.9312 1.13265 14.4588C1.34428 15.0188 1.67304 15.5201 2.0963 15.9369C2.51307 16.3602 3.01773 16.6891 3.57122 16.8974C4.10195 17.1025 4.70746 17.2457 5.59315 17.2848C6.48189 17.3239 6.76525 17.3336 9.02806 17.3336C11.2909 17.3336 11.5741 17.3239 12.463 17.2848C13.3485 17.2457 13.9573 17.1025 14.4848 16.8974C15.6049 16.4643 16.4904 15.5788 16.9235 14.4588C17.1285 13.9281 17.2718 13.3224 17.3109 12.4369C17.3499 11.548 17.3597 11.2648 17.3597 9.00195C17.3597 6.73914 17.3564 6.45591 17.3174 5.56704ZM15.8165 12.3718C15.7806 13.1857 15.6439 13.6253 15.5299 13.9183C15.2499 14.6444 14.6736 15.2206 13.9476 15.5007C13.6545 15.6146 13.2118 15.7513 12.401 15.7871C11.522 15.8263 11.2583 15.8359 9.03455 15.8359C6.81078 15.8359 6.54383 15.8263 5.66793 15.7871C4.85397 15.7513 4.41443 15.6146 4.12141 15.5007C3.76009 15.3671 3.43119 15.1555 3.16424 14.8788C2.88749 14.6085 2.67586 14.2829 2.54232 13.9216C2.42837 13.6286 2.29165 13.1857 2.25591 12.3751C2.21674 11.496 2.20707 11.2322 2.20707 9.00844C2.20707 6.78467 2.21674 6.51772 2.25591 5.64195C2.29165 4.82799 2.42837 4.38845 2.54232 4.09542C2.67586 3.73397 2.88749 3.40521 3.16755 3.13813C3.43768 2.86138 3.76326 2.64975 4.12471 2.51634C4.41774 2.40238 4.86058 2.26566 5.67124 2.2298C6.55031 2.19075 6.81409 2.18096 9.03773 2.18096C11.2648 2.18096 11.5284 2.19075 12.4043 2.2298C13.2183 2.26566 13.6578 2.40238 13.9509 2.51634C14.3122 2.64975 14.6411 2.86138 14.908 3.13813C15.1848 3.40839 15.3964 3.73397 15.5299 4.09542C15.6439 4.38845 15.7806 4.83117 15.8165 5.64195C15.8555 6.52102 15.8653 6.78467 15.8653 9.00844C15.8653 11.2322 15.8555 11.4927 15.8165 12.3718Z" fill="#787A80"/>
<path d="M9.03124 4.72052C6.66757 4.72052 4.7498 6.63816 4.7498 9.00196C4.7498 11.3658 6.66757 13.2834 9.03124 13.2834C11.395 13.2834 13.3127 11.3658 13.3127 9.00196C13.3127 6.63816 11.395 4.72052 9.03124 4.72052ZM9.03124 11.7792C7.49781 11.7792 6.25398 10.5355 6.25398 9.00196C6.25398 7.4684 7.49781 6.22469 9.03124 6.22469C10.5648 6.22469 11.8085 7.4684 11.8085 9.00196C11.8085 10.5355 10.5648 11.7792 9.03124 11.7792Z" fill="#787A80"/>
<path d="M14.4816 4.55124C14.4816 5.10321 14.0341 5.55076 13.482 5.55076C12.93 5.55076 12.4825 5.10321 12.4825 4.55124C12.4825 3.99915 12.93 3.55172 13.482 3.55172C14.0341 3.55172 14.4816 3.99915 14.4816 4.55124Z" fill="#787A80"/>
</svg>
